{
.appVersion = "3185";
.formatVersion = 3;
axes = (
{
name = Weight;
tag = wght;
}
);
classes = (
{
automatic = 1;
code = "A Aacute Abreve Acircumflex Adieresis Agrave Amacron Aogonek Aring Atilde AE B C Cacute Ccaron Ccedilla Cdotaccent D Dcaron Dcroat Eth E Eacute Ecaron Ecircumflex Edieresis Edotaccent Egrave Emacron Eogonek F G Gbreve Gcommaaccent Gdotaccent H Hbar I IJ Iacute Icircumflex Idieresis Idotaccent Igrave Imacron Iogonek J K Kcommaaccent L Lacute Lcaron Lcommaaccent Lslash M N Nacute Ncaron Ncommaaccent Ntilde Eng O Oacute Ocircumflex Odieresis Ograve Ohungarumlaut Omacron Oslash Otilde OE P Thorn Q R Racute Rcaron Rcommaaccent S Sacute Scaron Scedilla Scommaaccent Germandbls T Tbar Tcaron Tcedilla Tcommaaccent U Uacute Ubreve Ucircumflex Udieresis Ugrave Uhungarumlaut Umacron Uogonek Uring V W Wacute Wcircumflex Wdieresis Wgrave X Y Yacute Ycircumflex Ydieresis Ygrave Z Zacute Zcaron Zdotaccent a aacute abreve acircumflex adieresis agrave amacron aogonek aring atilde ae b c cacute ccaron ccedilla cdotaccent d dcaron dcroat eth e eacute ecaron ecircumflex edieresis edotaccent egrave emacron eogonek f g gbreve gcommaaccent gdotaccent h hbar i idotless iacute icircumflex idieresis idotaccent igrave imacron iogonek ij j jdotless k kcommaaccent l lacute lcaron lcommaaccent lslash m n nacute ncaron ncommaaccent ntilde eng o oacute ocircumflex odieresis ograve ohungarumlaut omacron oslash otilde oe p thorn q r racute rcaron rcommaaccent s sacute scaron scedilla scommaaccent germandbls t tbar tcaron tcedilla tcommaaccent u uacute ubreve ucircumflex udieresis ugrave uhungarumlaut umacron uogonek uring v w wacute wcircumflex wdieresis wgrave x y yacute ycircumflex ydieresis ygrave z zacute zcaron zdotaccent fi fl ordfeminine ordmasculine Delta Omega mu pi";
name = AllLetters;
},
{
automatic = 1;

glyphs = (
{
glyphname = A;
kernLeft = A;
kernRight = A;
lastChange = "2023-04-19 12:33:55 +0000";
layers = (
{
anchors = (
{
name = bottom;
pos = (401,0);
},
{
name = ogonek;
pos = (859,25);
},
{
name = top;
pos = (572,1215);
}
);
layerId = "AD226DB4-BE97-401A-8A1F-FC26A063DFB1";
shapes = (
{
closed = 1;
nodes = (
(122,0,l),
(270,363,l),
(739,363,l),
(816,0,l),
(879,0,l),
(622,1215,l),
(547,1215,l),
(53,0,l)
);
},
{
closed = 1;
nodes = (
(574,1118,l),
(722,429,l),
(294,429,l)
);
}
);
width = 934;
},
{
anchors = (
{
name = bottom;
pos = (548,0);
},
{
name = ogonek;
pos = (1044,10);
},
{
name = top;
pos = (738,1346);
}
);
layerId = "2146CDF3-509B-498B-BCC4-8BA41979C9D7";
shapes = (
{
closed = 1;
nodes = (
(346,0,l),
(434,232,l),
(844,232,l),
(888,0,l),
(1208,0,l),
(943,1346,l),
(567,1346,l),
(33,0,l)
);
},
{
closed = 1;
nodes = (
(713,960,l),
(801,475,l),
(530,475,l)
);
}
);
width = 1236;
},
{
anchors = (
{
name = bottom;
pos = (450,0);
},
{
name = ogonek;
pos = (920,20);
},
{
name = top;
pos = (627,1258);
}
);
layerId = "3D647E92-BB94-42FD-9C12-A678B6C1687F";
shapes = (
{
closed = 1;
nodes = (
(196,0,l),
(324,320,l),
(774,320,l),
(840,0,l),
(988,0,l),
(728,1258,l),
(554,1258,l),
(46,0,l)
);
},
{
closed = 1;
nodes = (
(620,1066,l),
(748,444,l),
(372,444,l)
);
}
);
width = 1033.7913;
}
);
unicode = 65;
},
{
glyphname = AE;
kernLeft = A;
kernRight = A;
lastChange = "2023-04-19 12:33:55 +0000";
layers = (
{
guides = (
{
angle = 248.0626;
locked = 1;
pos = (550,1234);
},
{
angle = 248.0626;
pos = (596,1180);
},
{
pos = (1553,1152);
},
{
angle = 84.6877;
pos = (653,0);
},
{
angle = 84.6877;
pos = (723,0);
},
{
pos = (-209,363);
},
{
pos = (1505,644);
},
{
pos = (1501,586);
},
{
pos = (1453,64);
}
);
layerId = "AD226DB4-BE97-401A-8A1F-FC26A063DFB1";
shapes = (
{
closed = 1;
nodes = (
(122,0,l),
(280,395,l),
(236,363,l),
(681,363,l),
(639,387,l),
(603,0,l),
(1276,0,l),
(1283,64,l),
(667,64,l),
(678,53,l),
(731,623,l),
(711,586,l),
(1298,586,l),
(1302,644,l),
(719,644,l),
(731,624,l),
(782,1183,l),
(763,1152,l),
(1381,1152,l),
(1387,1215,l),
(542,1215,l),
(53,0,l)
);
},
{
closed = 1;
nodes = (
(690,429,l),
(277,429,l),
(285,408,l),
(596,1180,l),
(554,1152,l),
(754,1152,l),
(713,1183,l),
(640,398,l)
);
}
);
width = 1411;
},
{
guides = (
{
angle = 264.6183;
pos = (1041,288);
},
{
pos = (-392,232);
}
);
layerId = "2146CDF3-509B-498B-BCC4-8BA41979C9D7";
shapes = (
{
closed = 1;
nodes = (
(346,0,l),
(470,318,l),
(399,292,l),
(823,292,l),
(782,321,l),
(752,0,l),
(1510,0,l),
(1537,288,l),
(944,288,l),
(1070,167,l),
(1110,591,l),
(976,526,l),
(1525,526,l),
(1548,814,l),
(997,814,l),
(1121,713,l),
(1161,1137,l),
(1029,1061,l),
(1612,1061,l),
(1632,1346,l),
(579,1346,l),
(33,0,l)
);
},
{
closed = 1;
nodes = (
(839,535,l),
(471,535,l),
(510,418,l),
(788,1134,l),
(717,1061,l),
(899,1061,l),
(859,1132,l),
(791,415,l)
);
}
);
width = 1645;
},
{
layerId = "3D647E92-BB94-42FD-9C12-A678B6C1687F";
shapes = (
{
closed = 1;
nodes = (
(196,0,l),
(343,370,l),
(290,340,l),
(728,340,l),
(686,365,l),
(652,0,l),
(1353,0,l),
(1367,138,l),
(759,138,l),
(808,91,l),
(856,612,l),
(799,566,l),
(1373,566,l),
(1383,700,l),
(811,700,l),
(860,653,l),
(907,1168,l),
(851,1122,l),
(1457,1122,l),
(1468,1258,l),
(554,1258,l),
(46,0,l)
);
},
{
closed = 1;
nodes = (
(739,464,l),
(341,464,l),
(359,411,l),
(659,1165,l),
(608,1122,l),
(802,1122,l),
(761,1166,l),
(690,404,l)
);
}
);
width = 1488.32174;
}
);
metricLeft = A;
metricRight = E;
unicode = 198;
},
{
glyphname = B;
lastChange = "2020-10-22 18:07:07 +0000";
layers = (
{
anchors = (
{
name = bottom;
pos = (469,0);
},
{
name = top;
pos = (640,1215);
}
);
layerId = "AD226DB4-BE97-401A-8A1F-FC26A063DFB1";
shapes = (
{
closed = 1;
nodes = (
(569,0,ls),
(828,0,o),
(940,146,o),
(959,327,c),
(966,443,o),
(887,588,o),
(742,606,c),
(899,640,o),
(978,762,o),
(988,900,cs),
(1006,1065,o),
(911,1215,o),
(683,1215,cs),
(311,1215,l),
(197,0,l)
);
},
{
closed = 1;
nodes = (
(317,577,l),
(623,577,ls),
(805,577,o),
(907,476,o),
(889,324,cs),
(875,172,o),
(788,64,o),
(575,64,cs),
(269,64,l)
);
},
{
closed = 1;
nodes = (
(676,1152,ls),
(835,1152,o),
(935,1059,o),
(921,899,cs),
(906,733,o),
(780,637,o),
(629,637,cs),
(321,637,l),
(369,1152,l)
);
}
);
width = 1070;
},
{
anchors = (
{
name = bottom;
pos = (541,0);
},
{
name = top;
pos = (731,1346);
}
);
layerId = "2146CDF3-509B-498B-BCC4-8BA41979C9D7";
shapes = (
{
closed = 1;
nodes = (
(681,0,ls),
(1052,0,o),
(1157,225,o),
(1169,379,c),
(1190,561,o),
(1097,648,o),
(978,685,c),
(1102,731,o),
(1195,834,o),
(1212,985,cs),
(1230,1190,o),
(1102,1346,o),
(808,1346,cs),
(278,1346,l),
(151,0,l)
);
},
{
closed = 1;
nodes = (
(495,525,l),
(722,525,ls),
(825,525,o),
(855,476,o),
(850,403,cs),
(842,330,o),
(788,288,o),
(700,288,cs),
(472,288,l)
);
},
{
closed = 1;
nodes = (
(767,1061,ls),
(874,1061,o),
(908,1007,o),
(901,938,cs),
(893,864,o),
(852,815,o),
(741,815,cs),
(524,815,l),
(547,1061,l)
);
}
);
width = 1221;
},
{
anchors = (
{
name = bottom;
pos = (493,0);
},
{
name = top;
pos = (670,1258);
}
);
layerId = "3D647E92-BB94-42FD-9C12-A678B6C1687F";
shapes = (
{
closed = 1;
nodes = (
(606.009,0,ls),
(902,0,o),
(1012,172,o),
(1028,344,cs),
(1040,482,o),
(956,608,o),
(820,632,c),
(966,670,o),
(1050,786,o),
(1062,928,cs),
(1080,1106,o),
(974,1258,o),
(724,1258,cs),
(300,1258,l),
(182,0,l)
);
},
{
closed = 1;
nodes = (
(376,560,l),
(656,560,ls),
(812,560,o),
(890,476,o),
(876,350,cs),
(864,224,o),
(788,138,o),
(616,138,cs),
(336,138,l)
);
},
{
closed = 1;
nodes = (
(706,1122,ls),
(848,1122,o),
(926,1042,o),
(914,912,cs),
(902,776,o),
(804,696,o),
(666,696,cs),
(388,696,l),
(428,1122,l)
);
}
);
width = 1119.89565;
}
);
unicode = 66;
},
{
glyphname = C;
kernLeft = C;
lastChange = "2023-04-19 12:33:55 +0000";
layers = (
{
anchors = (
{
name = bottom;
pos = (616,0);
},
{
name = top;
pos = (687,1215);
}
);
layerId = "AD226DB4-BE97-401A-8A1F-FC26A063DFB1";
shapes = (
{
closed = 1;
nodes = (
(790,-15,o),
(989,138,o),
(1008,386,c),
(939,386,l),
(921,180,o),
(768,46,o),
(558,46,cs),
(292,46,o),
(198,306,o),
(228,619,cs),
(258,975,o),
(459,1168,o),
(663,1168,cs),
(816,1168,o),
(944,1060,o),
(985,882,c),
(1065,903,l),
(1011,1099,o),
(880,1232,o),
(670,1232,cs),
(422,1232,o),
(192,1013,o),
(159,619,cs),
(125,264,o),
(259,-15,o),
(550,-15,cs)
);
}
);
width = 1063;
},
{
anchors = (
{
name = bottom;
pos = (680,0);
},
{
name = top;
pos = (714,1346);
}
);
layerId = "2146CDF3-509B-498B-BCC4-8BA41979C9D7";
shapes = (
{
closed = 1;
nodes = (
(929,-35,o),
(1120,138,o),
(1153,452,c),
(834,452,l),
(822,350,o),
(755,270,o),
(637,270,cs),
(509,270,o),
(434,397,o),
(458,671,cs),
(488,948,o),
(590,1077,o),
(715,1077,cs),
(816,1077,o),
(859,994,o),
(873,882,c),
(1190,942,l),
(1189,1198,o),
(1050,1377,o),
(742,1377,cs),
(422,1377,o),
(186,1138,o),
(139,671,cs),
(92,204,o),
(292,-35,o),
(610,-35,cs)
);
}
);
width = 1188;
},
{
anchors = (
{
name = bottom;
pos = (637,0);
},
{
name = top;
pos = (696,1258);
}
);
layerId = "3D647E92-BB94-42FD-9C12-A678B6C1687F";
shapes = (
{
closed = 1;
nodes = (
(836,-22,o),
(1032,138,o),
(1056,408,c),
(904,408,l),
(888,236,o),
(764,120,o),
(584,120,cs),
(364,120,o),
(276,336,o),
(304,636,cs),
(334,966,o),
(502,1138,o),
(680,1138,cs),
(816,1138,o),
(916,1038,o),
(947.991,882,c),
(1106,916,l),
(1070,1132,o),
(936,1280,o),
(694,1280,cs),
(422,1280,o),
(190,1054,o),
(152,636,cs),
(114,244,o),
(270,-22,o),
(570,-22,cs)
);
}
);
width = 1104.30435;
}
);
unicode = 67;
},
{
glyphname = D;
lastChange = "2020-02-19 16:24:59 +0000";
layers = (
{
anchors = (
{
name = bottom;
pos = (505,0);
},
{
name = center;
pos = (590,608);
},
{
name = top;
pos = (676,1215);
}
);
layerId = "AD226DB4-BE97-401A-8A1F-FC26A063DFB1";
shapes = (
{
closed = 1;
nodes = (
(195,0,l),
(475,0,ls),
(806,0,o),
(1031,241,o),
(1064,610,cs),
(1100,971,o),
(924,1215,o),
(593,1215,cs),
(309,1215,l)
);
},
{
closed = 1;
nodes = (
(588,1155,ls),
(872,1155,o),
(1025,923,o),
(997,610,cs),
(971,290,o),
(767,55,o),
(483,55,cs),
(262,55,l),
(367,1155,l)
);
}
);
width = 1142;
},
{
anchors = (
{
name = bottom;
pos = (574,0);
},
{
name = center;
pos = (669,673);
},
{
name = top;
pos = (764,1346);
}
);
layerId = "2146CDF3-509B-498B-BCC4-8BA41979C9D7";
shapes = (
{
closed = 1;
nodes = (
(149,0,l),
(587,0,ls),
(957,0,o),
(1241,261,o),
(1281,670,cs),
(1317,1089,o),
(1082,1346,o),
(711,1346,cs),
(276,1346,l)
);
},
{
closed = 1;
nodes = (
(679,1043,ls),
(872,1043,o),
(979,890,o),
(958,670,cs),
(932,460,o),
(806,305,o),
(614,305,cs),
(479,305,l),
(545,1043,l)
);
}
);
width = 1287;
},
{
anchors = (
{
name = bottom;
pos = (528,0);
},
{
name = center;
pos = (616,629);
},
{
name = top;
pos = (705,1258);
}
);
layerId = "3D647E92-BB94-42FD-9C12-A678B6C1687F";
shapes = (
{
closed = 1;
nodes = (
(180,0,l),
(512.009,0,ls),
(856,0,o),
(1100,248,o),
(1136,630,cs),
(1172,1010,o),
(976,1258,o),
(632,1258,cs),
(298,1258,l)
);
},
{
closed = 1;
nodes = (
(618,1118,ls),
(872,1117.991,o),
(1010,912,o),
(984,630,cs),
(958,346,o),
(780,138,o),
(526,138,cs),
(334,138,l),
(426,1118,l)
);
}
);
width = 1189.91304;
}
);
unicode = 68;
},
{
glyphname = Eth;
lastChange = "2020-02-19 16:24:59 +0000";
layers = (
{
layerId = "AD226DB4-BE97-401A-8A1F-FC26A063DFB1";
shapes = (
{
closed = 1;
nodes = (
(121,586,l),
(659,586,l),
(663,645,l),
(128,645,l)
);
},
{
ref = D;
}
);
width = 1142;
},
{
layerId = "2146CDF3-509B-498B-BCC4-8BA41979C9D7";
shapes = (
{
closed = 1;
nodes = (
(77,523,l),
(653,523,l),
(690,826,l),
(114,826,l)
);
},
{
ref = D;
}
);
width = 1287;
},
{
layerId = "3D647E92-BB94-42FD-9C12-A678B6C1687F";
shapes = (
{
closed = 1;
nodes = (
(106,565,l),
(657,565,l),
(672,705,l),
(123,705,l)
);
},
{
alignment = -1;
ref = D;
}
);
width = 1189.91304;
}
);
unicode = 208;
},
{
glyphname = E;
lastChange = "2020-02-19 16:24:59 +0000";
layers = (
{
anchors = (
{
name = above;
pos = (530,1270);
},
{
name = bottom;
pos = (547,0);
},
{
name = ogonek;
pos = (544,30);
},
{
name = top;
pos = (588,1215);
},
{
name = topleft;
pos = (125,1215);
}
);
layerId = "AD226DB4-BE97-401A-8A1F-FC26A063DFB1";
shapes = (
{
closed = 1;
nodes = (
(830,0,l),
(840,64,l),
(267,64,l),
(315,586,l),
(855,586,l),
(858,644,l),
(319,644,l),
(367,1152,l),
(937,1152,l),
(948,1215,l),
(309,1215,l),
(195,0,l)
);
}
);
width = 966;
},
{
anchors = (
{
name = above;
pos = (530,1270);
},
{
name = bottom;
pos = (582,0);
},
{
name = ogonek;
pos = (586,10);
},
{
name = top;
pos = (672,1346);
},
{
name = topleft;
pos = (140,1346);
}
);
layerId = "2146CDF3-509B-498B-BCC4-8BA41979C9D7";
shapes = (
{
closed = 1;
nodes = (
(969,0,l),
(991,288,l),
(470,288,l),
(493,526,l),
(980,526,l),
(1009,814,l),
(522,814,l),
(545,1061,l),
(1068,1061,l),
(1093,1346,l),
(276,1346,l),
(149,0,l)
);
}
);
width = 1104;
},
{
anchors = (
{
name = above;
pos = (530,1270);
},
{
name = bottom;
pos = (559,0);
},
{
name = ogonek;
pos = (558,23);
},
{
name = top;
pos = (616,1258);
},
{
name = topleft;
pos = (130,1258);
}
);
layerId = "3D647E92-BB94-42FD-9C12-A678B6C1687F";
shapes = (
{
closed = 1;
nodes = (
(876,0,l),
(890,138,l),
(334,138,l),
(374,566,l),
(896,566,l),
(908,700,l),
(386,700,l),
(426,1122,l),
(980,1122,l),
(996,1258,l),
(298,1258,l),
(180,0,l)
);
}
);
width = 1011.6;
}
);
unicode = 69;
},
{
glyphname = F;
kernRight = F;
lastChange = "2023-04-19 12:33:55 +0000";
layers = (
{
anchors = (
{
name = bottom;
pos = (385,0);
},
{
name = top;
pos = (556,1215);
}
);
layerId = "AD226DB4-BE97-401A-8A1F-FC26A063DFB1";
shapes = (
{
closed = 1;
nodes = (
(263,0,l),
(317,588,l),
(858,588,l),
(861,652,l),
(321,652,l),
(369,1152,l),
(939,1152,l),
(947,1215,l),
(311,1215,l),
(197,0,l)
);
}
);
width = 901;
},
{
anchors = (
{
name = bottom;
pos = (446,0);
},
{
name = top;
pos = (636,1346);
}
);
layerId = "2146CDF3-509B-498B-BCC4-8BA41979C9D7";
shapes = (
{
closed = 1;
nodes = (
(447,0,l),
(495,528,l),
(937,528,l),
(966,810,l),
(524,810,l),
(547,1061,l),
(1044,1061,l),
(1072,1346,l),
(278,1346,l),
(151,0,l)
);
}
);
width = 1032;
},
{
anchors = (
{
name = bottom;
pos = (405,0);
},
{
name = top;
pos = (582,1258);
}
);
layerId = "3D647E92-BB94-42FD-9C12-A678B6C1687F";
shapes = (
{
closed = 1;
nodes = (
(324,0,l),
(376,568,l),
(884,568,l),
(896,704,l),
(388,704,l),
(428,1122,l),
(974,1122,l),
(988,1258,l),
(300,1258,l),
(182,0,l)
);
}
);
width = 944.28696;
}
);
unicode = 70;
},
{
glyphname = G;
lastChange = "2020-10-22 18:07:07 +0000";
layers = (
{
anchors = (
{
name = bottom;
pos = (483,0);
},
{
name = top;
pos = (654,1215);
}
);
layerId = "AD226DB4-BE97-401A-8A1F-FC26A063DFB1";
shapes = (
{
closed = 1;
nodes = (
(741,-15,o),
(851,86,o),
(911,258,c),
(901,255,l),
(900,170,o),
(893,84,o),
(891,0,c),
(947,0,l),
(996,572,l),
(622,572,l),
(616,520,l),
(969,499,l),
(895,544,l),
(919,516,o),
(922,503,o),
(922,494,cs),
(922,176,o),
(747,48,o),
(570,48,cs),
(317,48,o),
(196,278,o),
(222,584,cs),
(260,949,o),
(483,1164,o),
(717,1164,cs),
(819,1164,o),
(919,1121,o),
(1010,1011,c),
(1065,1059,l),
(968,1176,o),
(855,1228,o),
(724,1228,cs),
(471,1228,o),
(194,1028,o),
(157,584,cs),
(119,202,o),
(312,-15,o),
(561,-15,cs)
);
}
);
width = 1097;
},
{
anchors = (
{
name = bottom;
pos = (574,0);
},
{
name = top;
pos = (764,1346);
}
);
layerId = "2146CDF3-509B-498B-BCC4-8BA41979C9D7";
shapes = (
{
closed = 1;
nodes = (
(754,-35,o),
(861,66,o),
(921,238,c),
(904,235,l),
(910,157,o),
(913,78,o),
(918,0,c),
(1157,0,l),
(1226,723,l),
(707,723,l),
(688,514,l),
(969,515,l),
(940,577,l),
(928,534,o),
(927,514,o),
(922,481,c),
(890,368,o),
(793,272,o),
(661,272,cs),
(527,272,o),
(432,423,o),
(458,675,cs),
(477,922,o),
(601,1079,o),
(737,1079,cs),
(839,1079,o),
(899,1009,o),
(925,899,c),
(1243,960,l),
(1204,1248,o),
(1052,1379,o),
(784,1379,cs),
(432,1379,o),
(181,1088,o),
(137,675,cs),
(99,262,o),
(299,-35,o),
(607,-35,cs)
);
}
);
width = 1288;
},
{
anchors = (
{
name = bottom;
pos = (513,0);
},
{
name = top;
pos = (690,1258);
}
);
layerId = "3D647E92-BB94-42FD-9C12-A678B6C1687F";
shapes = (
{
closed = 1;
nodes = (
(745,-22,o),
(854,79,o),
(914,251,c),
(902,248,l),
(903,166,o),
(900,82,o),
(900,0,c),
(1016,0,l),
(1072,622,l),
(650,622,l),
(640,518,l),
(969,504,l),
(910,555,l),
(922,522,o),
(924,507,o),
(922,490,c),
(911,239,o),
(762,122,o),
(600,122,cs),
(386,122,o),
(274,326,o),
(300,614,cs),
(332,940,o),
(522,1136,o),
(724,1136,cs),
(826,1136,o),
(912,1084,o),
(982,974,c),
(1124,1026,l),
(1046,1200,o),
(920,1278,o),
(744,1278,cs),
(458,1278,o),
(190,1048,o),
(150,614,cs),
(112,222,o),
(308,-22,o),
(576,-22,cs)
);
}
);
width = 1160.11304;
}
);
unicode = 71;
},
{
glyphname = H;
lastChange = "2020-02-19 16:24:59 +0000";
layers = (
{
anchors = (
{
name = bottom;
pos = (500,0);
},
{
name = center;
pos = (585,608);
},
{
name = top;
pos = (671,1215);
},
{
name = topleft;
pos = (125,1215);
}
);
layerId = "AD226DB4-BE97-401A-8A1F-FC26A063DFB1";
shapes = (
{
closed = 1;
nodes = (
(263,0,l),
(317,588,l),
(923,588,l),
(869,0,l),
(935,0,l),
(1053,1215,l),
(983,1215,l),
(927,648,l),
(321,648,l),
(377,1215,l),
(311,1215,l),
(197,0,l)
);
}
);
width = 1132;
},
{
anchors = (
{
name = bottom;
pos = (605,0);
},
{
name = center;
pos = (700,673);
},
{
name = top;
pos = (795,1346);
},
{
name = topleft;
pos = (140,1346);
}
);
layerId = "2146CDF3-509B-498B-BCC4-8BA41979C9D7";
shapes = (
{
closed = 1;
nodes = (
(447,0,l),
(495,528,l),
(950,528,l),
(902,0,l),
(1198,0,l),
(1322,1346,l),
(1029,1346,l),
(979,818,l),
(524,818,l),
(574,1346,l),
(278,1346,l),
(151,0,l)
);
}
);
width = 1349;
},
{
anchors = (
{
name = bottom;
pos = (535,0);
},
{
name = center;
pos = (623,629);
},
{
name = top;
pos = (712,1258);
},
{
name = topleft;
pos = (130,1258);
}
);
layerId = "3D647E92-BB94-42FD-9C12-A678B6C1687F";
shapes = (
{
closed = 1;
nodes = (
(324,0,l),
(376,568,l),
(932,568,l),
(880,0,l),
(1022,0,l),
(1142,1258,l),
(998,1258,l),
(944,704,l),
(388,704,l),
(442,1258,l),
(300,1258,l),
(182,0,l)
);
}
);
width = 1203.70435;
}
);
unicode = 72;
},
{
glyphname = Hbar;
lastChange = "2020-02-19 16:24:59 +0000";
layers = (
{
anchors = (
{
name = _top;
pos = (607.193,627.286);
},
{
name = bottom;
pos = (500,0);
},
{
name = center;
pos = (585,608);
},
{
name = top;
pos = (671,1215);
},
{
name = topleft;
pos = (125,1215);
}
);
guides = (
{
angle = 84.6398;
pos = (377,1215);
},
{
angle = 84.6398;
pos = (983,1215);
}
);
layerId = "AD226DB4-BE97-401A-8A1F-FC26A063DFB1";
shapes = (
{
closed = 1;
nodes = (
(263,0,l),
(318,587,l),
(269,542,l),
(965,542,l),
(924,587,l),
(869,0,l),
(935,0,l),
(1053,1215,l),
(983,1215,l),
(920,557,l),
(969,602,l),
(273,602,l),
(314,557,l),
(377,1215,l),
(311,1215,l),
(197,0,l)
);
},
{
closed = 1;
nodes = (
(951,766,l),
(967,826,l),
(328,826,l),
(311,766,l)
);
}
);
width = 1132;
},
{
anchors = (
{
name = _top;
pos = (743,739);
},
{
name = bottom;
pos = (605,0);
},
{
name = center;
pos = (700,673);
},
{
name = top;
pos = (795,1346);
},
{
name = topleft;
pos = (140,1346);
}
);
guides = (
{
angle = 84.6099;
pos = (511,673);
},
{
angle = 84.6099;
pos = (1029,1346);
}
);
layerId = "2146CDF3-509B-498B-BCC4-8BA41979C9D7";
shapes = (
{
closed = 1;
nodes = (
(447,0,l),
(491,463,l),
(442,438,l),
(987,438,l),
(946,463,l),
(902,0,l),
(1198,0,l),
(1322,1346,l),
(1029,1346,l),
(965,668,l),
(1016,678,l),
(471,678,l),
(510,663,l),
(574,1346,l),
(278,1346,l),
(151,0,l)
);
},
{
closed = 1;
nodes = (
(1171,807,l),
(1207,1046,l),
(445,1046,l),
(409,807,l)
);
}
);
width = 1349;
},
{
anchors = (
{
name = _top;
pos = (652,664);
},
{
name = bottom;
pos = (535,0);
},
{
name = center;
pos = (623,629);
},
{
name = top;
pos = (712,1258);
},
{
name = topleft;
pos = (130,1258);
}
);
layerId = "3D647E92-BB94-42FD-9C12-A678B6C1687F";
shapes = (
{
closed = 1;
nodes = (
(324,0,l),
(375,546,l),
(326,508,l),
(972,508,l),
(931,546,l),
(880,0,l),
(1022,0,l),
(1142,1258,l),
(998,1258,l),
(935,594,l),
(985,627,l),
(338,627,l),
(379,592,l),
(442,1258,l),
(300,1258,l),
(182,0,l)
);
},
{
closed = 1;
nodes = (
(1024,780,l),
(1046,899,l),
(367,899,l),
(343,780,l)
);
}
);
width = 1203.70435;
}
);
unicode = 294;
},
{
glyphname = I;
lastChange = "2020-02-19 16:24:59 +0000";
layers = (
{
anchors = (
{
name = bottom;
pos = (212,0);
},
{
name = ogonek;
pos = (243,25);
},
{
name = top;
pos = (333,1215);
},
{
name = topleft;
pos = (125,1215);
}
);
layerId = "AD226DB4-BE97-401A-8A1F-FC26A063DFB1";
shapes = (
{
closed = 1;
nodes = (
(263,0,l),
(377,1215,l),
(311,1215,l),
(197,0,l)
);
}
);
width = 456;
},
{
anchors = (
{
name = bottom;
pos = (231,0);
},
{
name = ogonek;
pos = (310,5);
},
{
name = top;
pos = (421,1346);
},
{
name = topleft;
pos = (140,1346);
}
);
layerId = "2146CDF3-509B-498B-BCC4-8BA41979C9D7";
shapes = (
{
closed = 1;
nodes = (
(447,0,l),
(574,1346,l),
(278,1346,l),
(151,0,l)
);
}
);
width = 601;
},
{
anchors = (
{
name = bottom;
pos = (218,0);
},
{
name = ogonek;
pos = (265,18);
},
{
name = top;
pos = (362,1258);
},
{
name = topleft;
pos = (130,1258);
}
);
layerId = "3D647E92-BB94-42FD-9C12-A678B6C1687F";
shapes = (
{
closed = 1;
nodes = (
(324,0,l),
(442,1258,l),
(300,1258,l),
(182,0,l)
);
}
);
width = 503.91304;
}
);
unicode = 73;
},
{
glyphname = J;
lastChange = "2020-10-22 18:07:07 +0000";
layers = (
{
anchors = (
{
name = bottom;
pos = (259,0);
},
{
name = top;
pos = (430,1215);
}
);
layerId = "AD226DB4-BE97-401A-8A1F-FC26A063DFB1";
shapes = (
{
closed = 1;
nodes = (
(76,23,o),
(139,-15,o),
(233,-15,cs),
(399,-15,o),
(507,90,o),
(533,321,cs),
(615,1215,l),
(553,1215,l),
(469,321,l),
(449,155,o),
(389,52,o),
(239,52,cs),
(153,52,o),
(81,90,o),
(10,157,c),
(7,71,l)
);
}
);
width = 650;
},
{
anchors = (
{
name = bottom;
pos = (373,0);
},
{
name = top;
pos = (563,1346);
}
);
layerId = "2146CDF3-509B-498B-BCC4-8BA41979C9D7";
shapes = (
{
closed = 1;
nodes = (
(136,-4,o),
(244,-35,o),
(358,-35,cs),
(577,-35,o),
(757,90,o),
(790,452,cs),
(878,1346,l),
(573,1346,l),
(489,452,l),
(482,333,o),
(435,288,o),
(357,288,cs),
(284,288,o),
(180,307,o),
(82,367,c),
(46,44,l)
);
}
);
width = 886;
},
{
anchors = (
{
name = bottom;
pos = (297,0);
},
{
name = top;
pos = (474,1258);
}
);
layerId = "3D647E92-BB94-42FD-9C12-A678B6C1687F";
shapes = (
{
closed = 1;
nodes = (
(96,14,o),
(174,-22,o),
(274,-22,cs),
(458,-22,o),
(590,90,o),
(618,364,cs),
(702,1258,l),
(560,1258,l),
(476,364,ls),
(460,214,o),
(404,130,o),
(278,130,cs),
(196,130,o),
(114,162,o),
(34,226,c),
(20,62,l)
);
}
);
width = 727.98261;
}
);
unicode = 74;
},
{
glyphname = K;
lastChange = "2020-02-19 16:24:59 +0000";
layers = (
{
anchors = (
{
name = bottom;
pos = (438,0);
},
{
name = top;
pos = (609,1215);
}
);
layerId = "AD226DB4-BE97-401A-8A1F-FC26A063DFB1";
shapes = (
{
closed = 1;
nodes = (
(197,0,l),
(265,0,l),
(307,471,l),
(453,617,l),
(854,0,l),
(939,0,l),
(500,672,l),
(1027,1215,l),
(935,1215,l),
(321,580,l),
(379,1215,l),
(311,1215,l)
);
}
);
width = 1007;
},
{
anchors = (
{
name = bottom;
pos = (568,0);
},
{
name = top;
pos = (758,1346);
}
);
layerId = "2146CDF3-509B-498B-BCC4-8BA41979C9D7";
shapes = (
{
closed = 1;
nodes = (
(151,0,l),
(449,0,l),
(491,425,l),
(571,512,l),
(914,0,l),
(1300,0,l),
(796,738,l),
(1388,1346,l),
(981,1346,l),
(531,870,l),
(576,1346,l),
(278,1346,l)
);
}
);
width = 1276;
},
{
anchors = (
{
name = bottom;
pos = (481,0);
},
{
name = top;
pos = (658,1258);
}
);
layerId = "3D647E92-BB94-42FD-9C12-A678B6C1687F";
shapes = (
{
closed = 1;
nodes = (
(182,0,l),
(326,0,l),
(368,456,l),
(492,582,l),
(874,0,l),
(1058,0,l),
(598,694,l),
(1146,1258,l),
(950,1258,l),
(390,676,l),
(444,1258,l),
(300,1258,l)
);
}
);
width = 1095.88696;
}
);
unicode = 75;
},
{
glyphname = L;
kernRight = L;
lastChange = "2023-04-19 12:37:41 +0000";
layers = (
{
anchors = (
{
name = bottom;
pos = (489,0);
},
{
name = center;
pos = (414,608);
},
{
name = top;
pos = (500,1215);
},
{
name = topright;
pos = (775,1215);
}
);
layerId = "AD226DB4-BE97-401A-8A1F-FC26A063DFB1";
shapes = (
{
closed = 1;
nodes = (
(793,0,l),
(799,64,l),
(269,64,l),
(377,1215,l),
(311,1215,l),
(197,0,l)
);
}
);
width = 790;
},
{
anchors = (
{
name = bottom;
pos = (404,0);
},
{
name = center;
pos = (499,673);
},
{
name = top;
pos = (594,1346);
},
{
name = topright;
pos = (948,1346);
}
);
layerId = "2146CDF3-509B-498B-BCC4-8BA41979C9D7";
shapes = (
{
closed = 1;
nodes = (
(898,0,l),
(924,288,l),
(472,288,l),
(574,1346,l),
(278,1346,l),
(151,0,l)
);
}
);
width = 948;
},
{
anchors = (
{
name = bottom;
pos = (461,0);
},
{
name = center;
pos = (442,629);
},
{
name = top;
pos = (531,1258);
},
{
name = topright;
pos = (832,1258);
}
);
layerId = "3D647E92-BB94-42FD-9C12-A678B6C1687F";
shapes = (
{
closed = 1;
nodes = (
(828,0,l),
(840,138,l),
(336,138,l),
(442,1258,l),
(300,1258,l),
(182,0,l)
);
}
);
width = 842.2087;
}
);
unicode = 76;
},
{
glyphname = Lslash;
kernRight = L;
lastChange = "2023-04-19 12:33:55 +0000";
layers = (
{
layerId = "AD226DB4-BE97-401A-8A1F-FC26A063DFB1";
shapes = (
{
closed = 1;
nodes = (
(537,710,l),
(537,771,l),
(95,696,l),
(96,635,l)
);
},
{
ref = L;
}
);
width = 790;
},
{
layerId = "2146CDF3-509B-498B-BCC4-8BA41979C9D7";
shapes = (
{
closed = 1;
nodes = (
(707,724,l),
(706,999,l),
(82,899,l),
(83,624,l)
);
},
{
ref = L;
}
);
width = 948;
},
{
layerId = "3D647E92-BB94-42FD-9C12-A678B6C1687F";
shapes = (
{
closed = 1;
nodes = (
(595,715,l),
(594,847,l),
(91,764,l),
(92,631,l)
);
},
{
ref = L;
}
);
width = 842;
}
);
unicode = 321;
},
{
glyphname = M;
lastChange = "2020-02-19 16:24:59 +0000";
layers = (
{
anchors = (
{
name = bottom;
pos = (671,0);
},
{
name = top;
pos = (842,1215);
}
);
layerId = "AD226DB4-BE97-401A-8A1F-FC26A063DFB1";
shapes = (
{
closed = 1;
nodes = (
(263,0,l),
(370,1132,l),
(349,1139,l),
(730,175,l),
(780,175,l),
(1338,1133,l),
(1319,1129,l),
(1213,0,l),
(1277,0,l),
(1395,1215,l),
(1297,1215,l),
(765,276,l),
(406,1215,l),
(311,1215,l),
(197,0,l)
);
}
);
width = 1474;
},
{
anchors = (
{
name = bottom;
pos = (746,0);
},
{
name = top;
pos = (936,1346);
}
);
layerId = "2146CDF3-509B-498B-BCC4-8BA41979C9D7";
shapes = (
{
closed = 1;
nodes = (
(447,0,l),
(540,1020,l),
(526,1016,l),
(736,123,l),
(925,123,l),
(1281,964,l),
(1267,971,l),
(1180,0,l),
(1480,0,l),
(1605,1346,l),
(1198,1346,l),
(883,670,l),
(702,1346,l),
(278,1346,l),
(151,0,l)
);
}
);
width = 1632;
},
{
anchors = (
{
name = bottom;
pos = (696,0);
},
{
name = top;
pos = (873,1258);
}
);
layerId = "3D647E92-BB94-42FD-9C12-A678B6C1687F";
shapes = (
{
closed = 1;
nodes = (
(324,0,l),
(426,1095,l),
(407,1098,l),
(732,158,l),
(828,158,l),
(1319,1077,l),
(1302,1077,l),
(1202,0,l),
(1344,0,l),
(1464,1258,l),
(1264,1258,l),
(804,406,l),
(504,1258,l),
(300,1258,l),
(182,0,l)
);
}
);
width = 1526.2087;
}
);
unicode = 77;
},
{
glyphname = N;
lastChange = "2020-02-19 16:24:59 +0000";
layers = (
{
anchors = (
{
name = bottom;
pos = (589,0);
},
{
name = top;
pos = (690,1215);
}
);
layerId = "AD226DB4-BE97-401A-8A1F-FC26A063DFB1";
shapes = (
{
closed = 1;
nodes = (
(263,0,l),
(370,1151,l),
(350,1155,l),
(882,0,l),
(974,0,l),
(1087,1215,l),
(1021,1215,l),
(909,66,l),
(928,62,l),
(402,1215,l),
(307,1215,l),
(193,0,l)
);
}
);
width = 1169;
},
{
anchors = (
{
name = bottom;
pos = (680,0);
},
{
name = top;
pos = (800,1346);
}
);
guides = (
{
angle = 264.6099;
pos = (1041,1346);
}
);
layerId = "2146CDF3-509B-498B-BCC4-8BA41979C9D7";
shapes = (
{
closed = 1;
nodes = (
(441,0,l),
(528,908,l),
(471,911,l),
(923,0,l),
(1210,0,l),
(1337,1346,l),
(1041,1346,l),
(959,473,l),
(1012,470,l),
(584,1346,l),
(274,1346,l),
(147,0,l)
);
}
);
width = 1360;
},
{
anchors = (
{
name = bottom;
pos = (619,0);
},
{
name = top;
pos = (726,1258);
}
);
layerId = "3D647E92-BB94-42FD-9C12-A678B6C1687F";
shapes = (
{
closed = 1;
nodes = (
(322,0,l),
(422,1071,l),
(390,1074,l),
(896,0,l),
(1052,0,l),
(1170,1258,l),
(1028,1258,l),
(926,200,l),
(956,197,l),
(462,1258,l),
(296,1258,l),
(178,0,l)
);
}
);
width = 1232.11304;
}
);
unicode = 78;
},
{
glyphname = Eng;
lastChange = "2020-10-22 18:00:04 +0000";
layers = (
{
anchors = (
{
name = bottom;
pos = (1428,0);
},
{
name = top;
pos = (1599,1215);
}
);
layerId = "AD226DB4-BE97-401A-8A1F-FC26A063DFB1";
shapes = (
{
closed = 1;
nodes = (
(503,-447,o),
(566,-485,o),
(660,-485,cs),
(826,-485,o),
(939,-380,o),
(960,-149,cs),
(1042,745,l),
(980,745,l),
(896,-149,ls),
(880,-315,o),
(816,-418,o),
(666,-418,cs),
(580,-418,o),
(508,-380,o),
(437,-313,c),
(434,-399,l)
);
},
{
closed = 1;
nodes = (
(263,0,l),
(370,1151,l),
(350,1155,l),
(923,-89,l),
(974,0,l),
(1087,1215,l),
(1021,1215,l),
(909,66,l),
(928,62,l),
(402,1215,l),
(307,1215,l),
(193,0,l)
);
}
);
width = 1144;
},
{
anchors = (
{
name = bottom;
pos = (1733,0);
},
{
name = top;
pos = (1923,1346);
}
);
layerId = "2146CDF3-509B-498B-BCC4-8BA41979C9D7";
shapes = (
{
closed = 1;
nodes = (
(556,-457,o),
(664,-488,o),
(778,-488,cs),
(997,-488,o),
(1176,-362,o),
(1210,0,cs),
(1293,893,l),
(999,893,l),
(915,-1,ls),
(904,-120,o),
(855,-165,o),
(777,-165,cs),
(704,-165,o),
(600,-146,o),
(502,-86,c),
(466,-409,l)
);
},
{
closed = 1;
nodes = (
(441,0,l),
(528,908,l),
(471,911,l),
(923,0,l),
(1210,0,l),
(1337,1346,l),
(1041,1346,l),
(959,473,l),
(1012,470,l),
(584,1346,l),
(274,1346,l),
(147,0,l)
);
}
);
width = 1370;
},
{
anchors = (
{
name = bottom;
pos = (1529,0);
},
{
name = top;
pos = (1706,1258);
}
);
layerId = "3D647E92-BB94-42FD-9C12-A678B6C1687F";
shapes = (
{
closed = 1;
nodes = (
(521,-450,o),
(598,-486,o),
(698.991,-485.991,cs),
(883,-486,o),
(1017,-374,o),
(1043,-100,cs),
(1125,794,l),
(986,794,l),
(902,-100,ls),
(888,-251,o),
(829,-334,o),
(703,-334,cs),
(621,-334,o),
(538,-303,o),
(458,-238,c),
(445,-402,l)
);
},
{
closed = 1;
nodes = (
(322,0,l),
(422,1071,l),
(390,1074,l),
(923,-60,l),
(1052,0,l),
(1170,1258,l),
(1028,1258,l),
(926,200,l),
(956,197,l),
(462,1258,l),
(296,1258,l),
(178,0,l)
);
}
);
width = 1218;
}
);
metricLeft = N;
metricRight = J;
unicode = 330;
},
{
glyphname = O;
kernLeft = O;
kernRight = O;
lastChange = "2023-04-19 12:33:55 +0000";
layers = (
{
anchors = (
{
name = bottom;
pos = (478,0);
},
{
name = center;
pos = (563,608);
},
{
name = ogonek;
pos = (914,10);
},
{
name = top;
pos = (649,1215);
},
{
name = topleft;
pos = (125,1215);
},
{
name = topright;
pos = (1173,1215);
}
);
layerId = "AD226DB4-BE97-401A-8A1F-FC26A063DFB1";
shapes = (
{
closed = 1;
nodes = (
(788,-15,o),
(1008,179,o),
(1052,604,cs),
(1089,1025,o),
(910,1232,o),
(663,1232,cs),
(413,1232,o),
(196,1023,o),
(159,604,cs),
(119,181,o),
(294,-15,o),
(543,-15,cs)
);
},
{
closed = 1;
nodes = (
(317,53,o),
(190,237,o),
(224,604,cs),
(263,967,o),
(417,1166,o),
(655,1166,cs),
(887,1166,o),
(1018,967,o),
(982,602,cs),
(945,237,o),
(782,53,o),
(551,53,cs)
);
}
);
width = 1088;
},
{
anchors = (
{
name = bottom;
pos = (586,0);
},
{
name = center;
pos = (681,673);
},
{
name = ogonek;
pos = (1113,10);
},
{
name = top;
pos = (776,1346);
},
{
name = topleft;
pos = (140,1346);
},
{
name = topright;
pos = (1412,1346);
}
);
layerId = "2146CDF3-509B-498B-BCC4-8BA41979C9D7";
shapes = (
{
closed = 1;
nodes = (
(1005,-35,o),
(1251,206,o),
(1295,676,cs),
(1339,1137,o),
(1134,1377,o),
(781,1377,cs),
(433,1377,o),
(183,1154,o),
(139,676,cs),
(92,214,o),
(300,-35,o),
(648,-35,cs)
);
},
{
closed = 1;
nodes = (
(514,263,o),
(420,415,o),
(448,676,c),
(466,928,o),
(595,1081,o),
(754,1081,cs),
(920,1081,o),
(1012,928,o),
(988,681,cs),
(965,415,o),
(842,263,o),
(676,263,cs)
);
}
);
width = 1312;
},
{
anchors = (
{
name = bottom;
pos = (514,0);
},
{
name = center;
pos = (602,629);
},
{
name = ogonek;
pos = (980,10);
},
{
name = top;
pos = (691,1258);
},
{
name = topleft;
pos = (130,1258);
},
{
name = topright;
pos = (1252,1258);
}
);
layerId = "3D647E92-BB94-42FD-9C12-A678B6C1687F";
shapes = (
{
closed = 1;
nodes = (
(860,-22,o),
(1088,188,o),
(1132,628,cs),
(1172,1062,o),
(984,1280,o),
(702,1280,cs),
(420,1280,o),
(192,1066,o),
(152,628,cs),
(110,192,o),
(296,-22,o),
(578,-22,cs)
);
},
{
closed = 1;
nodes = (
(382,122,o),
(266,296,o),
(298,628,cs),
(330,954,o),
(476,1138,o),
(688,1138,cs),
(898,1138,o),
(1016,954,o),
(984,628,cs),
(952,296,o),
(802,122,o),
(592,122,cs)
);
}
);
width = 1162.01739;
}
);
unicode = 79;
},
{
glyphname = Oslash;
kernLeft = O;
kernRight = O;
lastChange = "2023-04-19 12:33:55 +0000";
layers = (
{
layerId = "AD226DB4-BE97-401A-8A1F-FC26A063DFB1";
shapes = (
{
closed = 1;
nodes = (
(133,0,l),
(1177,1216,l),
(1095,1216,l),
(54,0,l)
);
},
{
pos = (9,0);
ref = O;
}
);
width = 1097;
},
{
layerId = "2146CDF3-509B-498B-BCC4-8BA41979C9D7";
shapes = (
{
closed = 1;
nodes = (
(221,0,l),
(1470,1342,l),
(1206,1342,l),
(-40,0,l)
);
},
{
pos = (12,0);
ref = O;
}
);
width = 1324;
},
{
layerId = "3D647E92-BB94-42FD-9C12-A678B6C1687F";
shapes = (
{
closed = 1;
nodes = (
(156,0,l),
(1276,1258,l),
(1118,1258,l),
(1,0,l)
);
},
{
ref = O;
}
);
width = 1162;
}
);
unicode = 216;
},
{
glyphname = OE;
kernLeft = O;
kernRight = O;
lastChange = "2023-04-19 12:56:27 +0000";
layers = (
{
anchors = (
{
name = above;
pos = (1268,1270);
},
{
name = bottom;
pos = (1285,0);
},
{
name = center;
pos = (563,608);
},
{
name = ogonek;
pos = (1282,30);
},
{
name = top;
pos = (1326,1215);
},
{
name = topleft;
pos = (863,1215);
},
{
name = topright;
pos = (1173,1215);
}
);
layerId = "AD226DB4-BE97-401A-8A1F-FC26A063DFB1";
shapes = (
{
closed = 1;
nodes = (
(788,-15,o),
(1008,179,o),
(1052,604,cs),
(1089,1025,o),
(910,1232,o),
(663,1232,cs),
(413,1232,o),
(196,1023,o),
(159,604,cs),
(119,181,o),
(294,-15,o),
(543,-15,cs)
);
},
{
closed = 1;
nodes = (
(317,53,o),
(190,237,o),
(224,604,cs),
(263,967,o),
(417,1166,o),
(655,1166,cs),
(887,1166,o),
(1018,967,o),
(982,602,cs),
(945,237,o),
(782,53,o),
(551,53,cs)
);
},
{
closed = 1;
nodes = (
(1568,0,l),
(1578,64,l),
(1005,64,l),
(1053,586,l),
(1593,586,l),
(1596,644,l),
(1057,644,l),
(1105,1152,l),
(1675,1152,l),
(1686,1215,l),
(1047,1215,l),
(933,0,l)
);
}
);
width = 1704;
},
{
anchors = (
{
name = above;
pos = (1342,1270);
},
{
name = bottom;
pos = (1394,0);
},
{
name = center;
pos = (681,673);
},
{
name = ogonek;
pos = (1398,10);
},
{
name = top;
pos = (1484,1346);
},
{
name = topleft;
pos = (952,1346);
},
{
name = topright;
pos = (1412,1346);
}
);
layerId = "2146CDF3-509B-498B-BCC4-8BA41979C9D7";
shapes = (
{
closed = 1;
nodes = (
(1005,-35,o),
(1251,206,o),
(1295,676,cs),
(1339,1137,o),
(1134,1377,o),
(781,1377,cs),
(433,1377,o),
(183,1154,o),
(139,676,cs),
(92,214,o),
(300,-35,o),
(648,-35,cs)
);
},
{
closed = 1;
nodes = (
(514,263,o),
(420,415,o),
(448,676,c),
(466,928,o),
(595,1081,o),
(754,1081,cs),
(920,1081,o),
(1012,928,o),
(988,681,cs),
(965,415,o),
(842,263,o),
(676,263,cs)
);
},
{
closed = 1;
nodes = (
(1781,0,l),
(1803,288,l),
(1282,288,l),
(1305,526,l),
(1792,526,l),
(1821,814,l),
(1334,814,l),
(1357,1061,l),
(1880,1061,l),
(1905,1346,l),
(1088,1346,l),
(961,0,l)
);
}
);
width = 1916;
},
{
anchors = (
{
name = above;
pos = (1280,1270);
},
{
name = bottom;
pos = (1309,0);
},
{
name = center;
pos = (602,629);
},
{
name = ogonek;
pos = (1308,23);
},
{
name = top;
pos = (1366,1258);
},
{
name = topleft;
pos = (880,1258);
},
{
name = topright;
pos = (1252,1258);
}
);
layerId = "3D647E92-BB94-42FD-9C12-A678B6C1687F";
shapes = (
{
closed = 1;
nodes = (
(860,-22,o),
(1088,188,o),
(1132,628,cs),
(1172,1062,o),
(984,1280,o),
(702,1280,cs),
(420,1280,o),
(192,1066,o),
(152,628,cs),
(110,192,o),
(296,-22,o),
(578,-22,cs)
);
},
{
closed = 1;
nodes = (
(382,122,o),
(266,296,o),
(298,628,cs),
(330,954,o),
(476,1138,o),
(688,1138,cs),
(898,1138,o),
(1016,954,o),
(984,628,cs),
(952,296,o),
(802,122,o),
(592,122,cs)
);
},
{
closed = 1;
nodes = (
(1626,0,l),
(1640,138,l),
(1084,138,l),
(1124,566,l),
(1646,566,l),
(1658,700,l),
(1136,700,l),
(1176,1122,l),
(1730,1122,l),
(1746,1258,l),
(1048,1258,l),
(930,0,l)
);
}
);
width = 1761;
}
);
metricLeft = O;
metricRight = E;
unicode = 338;
},
{
glyphname = P;
kernRight = P;
lastChange = "2023-04-19 12:33:55 +0000";
layers = (
{
anchors = (
{
name = bottom;
pos = (407,0);
},
{
name = top;
pos = (578,1215);
}
);
layerId = "AD226DB4-BE97-401A-8A1F-FC26A063DFB1";
shapes = (
{
closed = 1;
nodes = (
(259,0,l),
(307,501,l),
(555,501,ls),
(788,501,o),
(914,647,o),
(934,851,cs),
(954,1058,o),
(856,1215,o),
(625,1215,cs),
(309,1215,l),
(195,0,l)
);
},
{
closed = 1;
nodes = (
(365,1152,l),
(618,1152,ls),
(795,1152,o),
(885,1039,o),
(869,851,cs),
(853,668,o),
(743,561,o),
(563,561,cs),
(311,561,l)
);
}
);
width = 946;
},
{
anchors = (
{
name = bottom;
pos = (482,0);
},
{
name = top;
pos = (672,1346);
}
);
layerId = "2146CDF3-509B-498B-BCC4-8BA41979C9D7";
shapes = (
{
closed = 1;
nodes = (
(443,0,l),
(485,455,l),
(654,455,ls),
(933,455,o),
(1131,608,o),
(1158,903,cs),
(1186,1203,o),
(1020,1346,o),
(737,1346,cs),
(270,1346,l),
(143,0,l)
);
},
{
closed = 1;
nodes = (
(543,1061,l),
(709,1061,ls),
(815,1061,o),
(858,987,o),
(849,903,cs),
(844,819,o),
(782,745,o),
(681,745,cs),
(514,745,l)
);
}
);
width = 1104;
},
{
anchors = (
{
name = bottom;
pos = (432,0);
},
{
name = top;
pos = (609,1258);
}
);
layerId = "3D647E92-BB94-42FD-9C12-A678B6C1687F";
shapes = (
{
closed = 1;
nodes = (
(320,0,l),
(366,486,l),
(588,486,ls),
(836,486,o),
(986,634,o),
(1008,868,cs),
(1031,1106,o),
(910,1258,o),
(662,1258,cs),
(296,1258,l),
(178,0,l)
);
},
{
closed = 1;
nodes = (
(424,1122,l),
(648,1122,ls),
(802,1122,o),
(876,1022,o),
(862,868,cs),
(850,718,o),
(756,622,o),
(602,622,cs),
(378,622,l)
);
}
);
width = 998.2087;
}
);
unicode = 80;
},
{
glyphname = Thorn;
lastChange = "2020-02-19 16:24:59 +0000";
layers = (
{
guides = (
{
angle = 84.7428;
pos = (312,576);
}
);
layerId = "AD226DB4-BE97-401A-8A1F-FC26A063DFB1";
shapes = (
{
closed = 1;
nodes = (
(259,0,l),
(289,326,l),
(240,281,l),
(533,281,ls),
(766,281,o),
(892,427,o),
(912,631,cs),
(932,838,o),
(834,995,o),
(603,995,cs),
(305,995,l),
(346,950,l),
(371,1215,l),
(309,1215,l),
(195,0,l)
);
},
{
closed = 1;
nodes = (
(349,977,l),
(300,932,l),
(596,932,ls),
(770,932,o),
(863,819,o),
(847,631,cs),
(831,448,o),
(721,341,o),
(541,341,cs),
(245,341,l),
(286,296,l)
);
}
);
width = 946;
},
{
guides = (
{
angle = 84.6157;
pos = (493,531);
}
);
layerId = "2146CDF3-509B-498B-BCC4-8BA41979C9D7";
shapes = (
{
closed = 1;
nodes = (
(443,0,l),
(472,304,l),
(440,255,l),
(654,255,ls),
(933,255,o),
(1131,408,o),
(1158,703,cs),
(1185,1003,o),
(1020,1146,o),
(737,1146,cs),
(506,1146,l),
(547,1101,l),
(570,1346,l),
(270,1346,l),
(143,0,l)
);
},
{
closed = 1;
nodes = (
(532,946,l),
(468,861,l),
(709,861,ls),
(815,861,o),
(858,787,o),
(849,703,cs),
(840,619,o),
(782,545,o),
(681,545,cs),
(439,545,l),
(487,470,l)
);
}
);
width = 1104;
},
{
layerId = "3D647E92-BB94-42FD-9C12-A678B6C1687F";
shapes = (
{
closed = 1;
nodes = (
(320,0,l),
(349,319,l),
(306,272,l),
(573,272,ls),
(821,272,o),
(971,421,o),
(993,655,cs),
(1016,893,o),
(895,1045,o),
(647,1045,cs),
(371,1045,l),
(412,1000,l),
(437,1258,l),
(296,1258,l),
(178,0,l)
);
},
{
closed = 1;
nodes = (
(409,967,l),
(356,909,l),
(633,909,ls),
(785,909,o),
(861,808,o),
(848,655,cs),
(834,505,o),
(741,408,o),
(587,408,cs),
(309,408,l),
(352,353,l)
);
}
);
width = 998.2087;
}
);
unicode = 222;
},
{
glyphname = Q;
lastChange = "2020-10-22 18:07:07 +0000";
layers = (
{
anchors = (
{
name = bottom;
pos = (489,0);
},
{
name = top;
pos = (660,1215);
}
);
layerId = "AD226DB4-BE97-401A-8A1F-FC26A063DFB1";
shapes = (
{
closed = 1;
nodes = (
(882,-306,o),
(927,-296,o),
(985,-266,c),
(993,-172,l),
(925,-208,o),
(881,-226,o),
(811,-226,cs),
(775,-224,o),
(744,-204,o),
(701,-140,c),
(627,-11,l),
(841,34,o),
(1016,229,o),
(1052,604,cs),
(1089,1025,o),
(910,1232,o),
(663,1232,cs),
(413,1232,o),
(196,1023,o),
(159,604,cs),
(119,183,o),
(292,-16,o),
(544,-15,c),
(625,-154,ls),
(684,-257,o),
(741,-306,o),
(838,-306,cs)
);
},
{
closed = 1;
nodes = (
(317,53,o),
(190,237,o),
(224,604,cs),
(263,967,o),
(417,1166,o),
(655,1166,cs),
(887,1166,o),
(1018,967,o),
(982,602,cs),
(945,237,o),
(782,53,o),
(551,53,cs)
);
}
);
width = 1109;
},
{
anchors = (
{
name = bottom;
pos = (583,0);
},
{
name = top;
pos = (773,1346);
}
);
layerId = "2146CDF3-509B-498B-BCC4-8BA41979C9D7";
shapes = (
{
closed = 1;
nodes = (
(1052,-391,o),
(1105,-381,o),
(1163,-357,c),
(1196,-27,l),
(1135,-50,o),
(1072,-68,o),
(1021,-68,cs),
(966,-66,o),
(914,-46,o),
(892,5,c),
(896,9,l),
(1117,100,o),
(1259,328,o),
(1295,676,cs),
(1339,1137,o),
(1134,1377,o),
(781,1377,cs),
(433,1377,o),
(183,1154,o),
(139,676,cs),
(92,222,o),
(292,-22,o),
(623,-35,c),
(677,-160,ls),
(744,-303,o),
(866,-391,o),
(996,-391,cs)
);
},
{
closed = 1;
nodes = (
(514,263,o),
(420,415,o),
(448,676,c),
(466,928,o),
(595,1081,o),
(754,1081,cs),
(920,1081,o),
(1012,928,o),
(988,681,cs),
(965,415,o),
(842,263,o),
(676,263,cs)
);
}
);
width = 1306;
},
{
anchors = (
{
name = bottom;
pos = (520,0);
},
{
name = top;
pos = (697,1258);
}
);
layerId = "3D647E92-BB94-42FD-9C12-A678B6C1687F";
shapes = (
{
closed = 1;
nodes = (
(938,-334,o),
(986,-324,o),
(1044,-296,c),
(1060,-124,l),
(994,-156,o),
(944,-174,o),
(880,-174,cs),
(838,-172,o),
(800,-152,o),
(764,-92,cs),
(716,-4,l),
(932,56,o),
(1096,262,o),
(1132,628,cs),
(1172,1062,o),
(984,1280,o),
(702,1280,cs),
(420,1280,o),
(192,1066,o),
(152,628,cs),
(110,196,o),
(292,-18,o),
(570,-22,c),
(642,-156,ls),
(704,-272,o),
(782,-334,o),
(890,-334,cs)
);
},
{
closed = 1;
nodes = (
(382,122,o),
(266,296,o),
(298,628,cs),
(330,954,o),
(476,1138,o),
(688,1138,cs),
(898,1138,o),
(1016,954,o),
(984,628,cs),
(952,296,o),
(802,122,o),
(592,122,cs)
);
}
);
width = 1174.09565;
}
);
unicode = 81;
},
{
glyphname = R;
lastChange = "2020-10-22 18:07:00 +0000";
layers = (
{
anchors = (
{
name = bottom;
pos = (456,0);
},
{
name = top;
pos = (627,1215);
}
);
layerId = "AD226DB4-BE97-401A-8A1F-FC26A063DFB1";
shapes = (
{
closed = 1;
nodes = (
(263,0,l),
(313,523,l),
(550,523,l),
(833,0,l),
(913,0,l),
(624,518,l),
(842,532,o),
(962,672,o),
(978,867,cs),
(1000,1069,o),
(904,1215,o),
(664,1215,cs),
(311,1215,l),
(197,0,l)
);
},
{
closed = 1;
nodes = (
(369,1152,l),
(656,1152,ls),
(836,1152,o),
(933,1046,o),
(915,870,cs),
(899,698,o),
(788,581,o),
(602,581,cs),
(319,581,l)
);
}
);
width = 1043;
},
{
anchors = (
{
name = bottom;
pos = (544,0);
},
{
name = top;
pos = (734,1346);
}
);
layerId = "2146CDF3-509B-498B-BCC4-8BA41979C9D7";
shapes = (
{
closed = 1;
nodes = (
(447,0,l),
(491,496,l),
(610,496,l),
(781,0,l),
(1170,0,l),
(920,531,l),
(1078,604,o),
(1179,738,o),
(1202,919,c),
(1224,1181,o),
(1055,1346,o),
(755,1346,cs),
(278,1346,l),
(151,0,l)
);
},
{
closed = 1;
nodes = (
(547,1061,l),
(728,1061,ls),
(849,1061,o),
(894,986,o),
(888,883,cs),
(879,783,o),
(801,712,o),
(662,712,cs),
(510,712,l)
);
}
);
width = 1227;
},
{
anchors = (
{
name = bottom;
pos = (485,0);
},
{
name = top;
pos = (662,1258);
}
);
layerId = "3D647E92-BB94-42FD-9C12-A678B6C1687F";
shapes = (
{
closed = 1;
nodes = (
(324,0,l),
(372,514,l),
(570,514,l),
(816,0,l),
(998,0,l),
(722,522,l),
(920,556,o),
(1034,694,o),
(1052,884,cs),
(1074,1106,o),
(954,1258,o),
(694,1258,cs),
(300,1258,l),
(182,0,l)
);
},
{
closed = 1;
nodes = (
(428,1122,l),
(680,1122,ls),
(840,1122,o),
(920,1026,o),
(906,874,cs),
(892,726,o),
(792,624,o),
(622,624,cs),
(382,624,l)
);
}
);
width = 1103.8;
}
);
unicode = 82;
},
{
glyphname = S;
kernLeft = S;
kernRight = S;
lastChange = "2023-04-19 12:36:39 +0000";
layers = (
{
anchors = (
{
name = bottom;
pos = (586,0);
},
{
name = top;
pos = (617,1215);
}
);
layerId = "AD226DB4-BE97-401A-8A1F-FC26A063DFB1";
shapes = (
{
closed = 1;
nodes = (
(762,-15,o),
(909,149,o),
(922,312,cs),
(938,491,o),
(840,584,o),
(695,633,cs),
(488,701,ls),
(361,743,o),
(312,802,o),
(322,918,cs),
(332,1061,o),
(444,1164,o),
(624,1164,cs),
(779,1164,o),
(875,1096,o),
(878,965,c),
(942,965,l),
(936,1122,o),
(829,1232,o),
(632,1232,cs),
(401,1232,o),
(271,1101,o),
(253,924,cs),
(237,757,o),
(327,683,o),
(514,622,c),
(673,562,l),
(800,520,o),
(865,440,o),
(853,313,cs),
(843,181,o),
(714,48,o),
(513,48,cs),
(346,48,o),
(204,143,o),
(220,348,c),
(162,348,l),
(147,123,o),
(299,-15,o),
(507,-15,cs)
);
}
);
width = 1023;
},
{
anchors = (
{
name = bottom;
pos = (660,0);
},
{
name = top;
pos = (730,1346);
}
);
layerId = "2146CDF3-509B-498B-BCC4-8BA41979C9D7";
shapes = (
{
closed = 1;
nodes = (
(920,-35,o),
(1119,103,o),
(1146,378,cs),
(1162,543,o),
(1083,663,o),
(905,751,cs),
(639,885,ls),
(571,921,o),
(536,947,o),
(539,990,c),
(549,1041,o),
(608,1079,o),
(696,1079,cs),
(818,1079,o),
(855,1011,o),
(865,926,c),
(1159,926,l),
(1166,1213,o),
(1020,1377,o),
(723,1377,cs),
(434,1377,o),
(238,1226,o),
(214,996,cs),
(198,803,o),
(288,703,o),
(454,616,cs),
(712,490,ls),
(794,448,o),
(819,427,o),
(814,365,cs),
(804,286,o),
(720,272,o),
(631,272,cs),
(516,272,o),
(434,321,o),
(450,439,c),
(149,439,l),
(127,103,o),
(345,-35,o),
(606,-35,cs)
);
}
);
width = 1220;
},
{
anchors = (
{
name = bottom;
pos = (610,0);
},
{
name = top;
pos = (654,1258);
}
);
layerId = "3D647E92-BB94-42FD-9C12-A678B6C1687F";
shapes = (
{
closed = 1;
nodes = (
(814,-22,o),
(978,134,o),
(996,334,cs),
(1012,508,o),
(920,610,o),
(764,672,cs),
(538,762,ls),
(430,802,o),
(386,850,o),
(394,942,cs),
(404,1054,o),
(498,1136,o),
(648,1136,cs),
(792,1136,o),
(868,1068,o),
(874,952,c),
(1014,952,l),
(1012,1152,o),
(892,1280,o),
(662,1280,cs),
(412,1280,o),
(260,1142,o),
(240,948,cs),
(224,772,o),
(314,690,o),
(494,620,cs),
(686,538,l),
(798,496,o),
(850,436,o),
(840,330,cs),
(830,216,o),
(716,122,o),
(552,122,cs),
(402,122,o),
(280,202,o),
(296,378,c),
(158,378,l),
(140,116,o),
(314,-22,o),
(540,-22,cs)
);
}
);
width = 1088.09565;
}
);
unicode = 83;
},
{
glyphname = T;
kernLeft = T;
kernRight = T;
lastChange = "2023-04-19 12:33:55 +0000";
layers = (
{
anchors = (
{
name = bottom;
pos = (472,0);
},
{
name = center;
pos = (440,608);
},
{
name = top;
pos = (526,1215);
}
);
layerId = "AD226DB4-BE97-401A-8A1F-FC26A063DFB1";
shapes = (
{
closed = 1;
nodes = (
(455,0,l),
(559,1152,l),
(937,1152,l),
(945,1215,l),
(126,1215,l),
(118,1152,l),
(493,1152,l),
(389,0,l)
);
}
);
width = 841;
},
{
anchors = (
{
name = bottom;
pos = (483,0);
},
{
name = center;
pos = (538,673);
},
{
name = top;
pos = (633,1346);
}
);
layerId = "2146CDF3-509B-498B-BCC4-8BA41979C9D7";
shapes = (
{
closed = 1;
nodes = (
(658,0,l),
(762,1061,l),
(1115,1061,l),
(1142,1346,l),
(139,1346,l),
(112,1061,l),
(466,1061,l),
(362,0,l)
);
}
);
width = 1025;
},
{
anchors = (
{
name = bottom;
pos = (476,0);
},
{
name = center;
pos = (472,629);
},
{
name = top;
pos = (561,1258);
}
);
layerId = "3D647E92-BB94-42FD-9C12-A678B6C1687F";
shapes = (
{
closed = 1;
nodes = (
(522,0,l),
(626,1122,l),
(996,1122,l),
(1010,1258,l),
(130,1258,l),
(116,1122,l),
(484,1122,l),
(380,0,l)
);
}
);
width = 901.8;
}
);
unicode = 84;
},
{
glyphname = Tbar;
kernLeft = T;
kernRight = T;
lastChange = "2023-04-19 12:33:55 +0000";
layers = (
{
anchors = (
{
name = top;
pos = (488,759);
}
);
layerId = "AD226DB4-BE97-401A-8A1F-FC26A063DFB1";
shapes = (
{
ref = T;
},
{
closed = 1;
nodes = (
(208,700,l),
(764,700,l),
(768,759,l),
(212,759,l)
);
}
);
width = 841;
},
{
anchors = (
{
name = top;
pos = (584,815);
}
);
layerId = "2146CDF3-509B-498B-BCC4-8BA41979C9D7";
shapes = (
{
ref = T;
},
{
closed = 1;
nodes = (
(167,556,l),
(929,556,l),
(965,815,l),
(203,815,l)
);
}
);
width = 1025;
},
{
anchors = (
{
name = top;
pos = (520,777);
}
);
layerId = "3D647E92-BB94-42FD-9C12-A678B6C1687F";
shapes = (
{
ref = T;
},
{
closed = 1;
nodes = (
(188,648,l),
(812,648,l),
(833,777,l),
(209,777,l)
);
}
);
width = 902;
}
);
unicode = 358;
},
{
glyphname = U;
kernLeft = U;
kernRight = U;
lastChange = "2023-04-19 12:36:29 +0000";
layers = (
{
anchors = (
{
name = bottom;
pos = (489,0);
},
{
name = ogonek;
pos = (545,10);
},
{
name = top;
pos = (660,1215);
},
{
name = topright;
pos = (1194,1215);
}
);
layerId = "AD226DB4-BE97-401A-8A1F-FC26A063DFB1";
shapes = (
{
closed = 1;
nodes = (
(766,-15,o),
(943,116,o),
(967,415,cs),
(1047,1215,l),
(981,1215,l),
(903,415,ls),
(879,159,o),
(746,48,o),
(555,48,cs),
(357,48,o),
(244,159,o),
(268,415,cs),
(346,1215,l),
(280,1215,l),
(202,415,ls),
(177,116,o),
(318,-15,o),
(545,-15,cs)
);
}
);
width = 1109;
},
{
anchors = (
{
name = bottom;
pos = (590,0);
},
{
name = ogonek;
pos = (709,10);
},
{
name = top;
pos = (780,1346);
},
{
name = topright;
pos = (1419,1346);
}
);
layerId = "2146CDF3-509B-498B-BCC4-8BA41979C9D7";
shapes = (
{
closed = 1;
nodes = (
(1002,-35,o),
(1206,188,o),
(1243,533,cs),
(1316,1346,l),
(1020,1346,l),
(942,533,ls),
(925,343,o),
(818,272,o),
(686,272,cs),
(560,272,o),
(468,343,o),
(485,533,cs),
(563,1346,l),
(267,1346,l),
(189,533,ls),
(157,188,o),
(324,-35,o),
(663,-35,cs)
);
}
);
width = 1319;
},
{
anchors = (
{
name = bottom;
pos = (522,0);
},
{
name = ogonek;
pos = (599,10);
},
{
name = top;
pos = (700,1258);
},
{
name = topright;
pos = (1268,1258);
}
);
layerId = "3D647E92-BB94-42FD-9C12-A678B6C1687F";
shapes = (
{
closed = 1;
nodes = (
(844,-22,o),
(1030,140,o),
(1058,454,cs),
(1136,1258,l),
(994,1258,l),
(916,454,ls),
(894,220,o),
(770,122,o),
(598,122,cs),
(424,122,o),
(318,220,o),
(340,454,cs),
(418,1258,l),
(276,1258,l),
(198,454,ls),
(170,140,o),
(320,-22,o),
(584,-22,cs)
);
}
);
width = 1178.3913;
}
);
unicode = 85;
},
{
glyphname = V;
lastChange = "2020-02-19 16:24:59 +0000";
layers = (
{
anchors = (
{
name = bottom;
pos = (399,0);
},
{
name = top;
pos = (570,1215);
}
);
layerId = "AD226DB4-BE97-401A-8A1F-FC26A063DFB1";
shapes = (
{
closed = 1;
nodes = (
(432,0,l),
(497,0,l),
(1015,1215,l),
(943,1215,l),
(472,87,l),
(209,1215,l),
(145,1215,l)
);
}
);
width = 929;
},
{
anchors = (
{
name = bottom;
pos = (523,0);
},
{
name = top;
pos = (713,1346);
}
);
layerId = "2146CDF3-509B-498B-BCC4-8BA41979C9D7";
shapes = (
{
closed = 1;
nodes = (
(432,0,l),
(747,0,l),
(1272,1346,l),
(963,1346,l),
(630,416,l),
(485,1346,l),
(165,1346,l)
);
}
);
width = 1186;
},
{
anchors = (
{
name = bottom;
pos = (440,0);
},
{
name = top;
pos = (617,1258);
}
);
layerId = "3D647E92-BB94-42FD-9C12-A678B6C1687F";
shapes = (
{
closed = 1;
nodes = (
(432,0,l),
(580,0,l),
(1100,1258,l),
(950,1258,l),
(524,196,l),
(300,1258,l),
(152,1258,l)
);
}
);
width = 1013.92174;
}
);
unicode = 86;
},
{
glyphname = W;
kernLeft = W;
kernRight = W;
lastChange = "2023-04-19 12:33:55 +0000";
layers = (
{
anchors = (
{
name = bottom;
pos = (670,0);
},
{
name = top;
pos = (841,1215);
}
);
layerId = "AD226DB4-BE97-401A-8A1F-FC26A063DFB1";
shapes = (
{
closed = 1;
nodes = (
(347,0,l),
(415,0,l),
(795,882,l),
(986,0,l),
(1056,0,l),
(1567,1215,l),
(1503,1215,l),
(1032,104,l),
(834,1037,l),
(790,1037,l),
(391,108,l),
(200,1215,l),
(129,1215,l)
);
}
);
width = 1471;
},
{
anchors = (
{
name = bottom;
pos = (876,0);
},
{
name = top;
pos = (1066,1346);
}
);
layerId = "2146CDF3-509B-498B-BCC4-8BA41979C9D7";
shapes = (
{
closed = 1;
nodes = (
(459,0,l),
(770,0,l),
(1005,646,l),
(1131,0,l),
(1444,0,l),
(1975,1346,l),
(1634,1346,l),
(1322,425,l),
(1155,1313,l),
(954,1313,l),
(654,429,l),
(509,1346,l),
(175,1346,l)
);
}
);
width = 1892;
},
{
anchors = (
{
name = bottom;
pos = (738,0);
},
{
name = top;
pos = (915,1258);
}
);
layerId = "3D647E92-BB94-42FD-9C12-A678B6C1687F";
shapes = (
{
closed = 1;
nodes = (
(384.009,0,l),
(532,0,l),
(864,804,l),
(1034,0,l),
(1184,0,l),
(1702,1258,l),
(1546,1258,l),
(1128,210,l),
(940,1128,l),
(844,1128,l),
(478,214,l),
(302,1258,l),
(144,1258,l)
);
}
);
width = 1610.11304;
}
);
unicode = 87;
},
{
glyphname = X;
lastChange = "2020-02-19 16:24:59 +0000";
layers = (
{
anchors = (
{
name = bottom;
pos = (471,0);
},
{
name = top;
pos = (642,1215);
}
);
layerId = "AD226DB4-BE97-401A-8A1F-FC26A063DFB1";
shapes = (
{
closed = 1;
nodes = (
(195,0,l),
(580,548,l),
(877,0,l),
(959,0,l),
(629,600,l),
(1079,1215,l),
(1002,1215,l),
(604,651,l),
(300,1215,l),
(228,1215,l),
(557,600,l),
(112,0,l)
);
}
);
width = 1073;
},
{
anchors = (
{
name = bottom;
pos = (592,0);
},
{
name = top;
pos = (782,1346);
}
);
layerId = "2146CDF3-509B-498B-BCC4-8BA41979C9D7";
shapes = (
{
closed = 1;
nodes = (
(392,0,l),
(671,409,l),
(916,0,l),
(1288,0,l),
(892,679,l),
(1348,1346,l),
(989,1346,l),
(743,933,l),
(524,1346,l),
(156,1346,l),
(518,672,l),
(33,0,l)
);
}
);
width = 1323;
},
{
anchors = (
{
name = bottom;
pos = (511,0);
},
{
name = top;
pos = (688,1258);
}
);
layerId = "3D647E92-BB94-42FD-9C12-A678B6C1687F";
shapes = (
{
closed = 1;
nodes = (
(260,0,l),
(610,502,l),
(890,0,l),
(1068,0,l),
(716,626,l),
(1168,1258,l),
(998,1258,l),
(650,744,l),
(374,1258,l),
(204,1258,l),
(544,624,l),
(86,0,l)
);
}
);
width = 1155.6087;
}
);
unicode = 88;
},
{
glyphname = Y;
kernLeft = Y;
kernRight = Y;
lastChange = "2023-04-19 12:33:55 +0000";
layers = (
{
anchors = (
{
name = bottom;
pos = (374,0);
},
{
name = top;
pos = (545,1215);
},
{
name = topleft;
pos = (125,1215);
}
);
layerId = "AD226DB4-BE97-401A-8A1F-FC26A063DFB1";
shapes = (
{
closed = 1;
nodes = (
(479,0,l),
(525,494,l),
(988,1215,l),
(913,1215,l),
(497,571,l),
(200,1215,l),
(119,1215,l),
(455,494,l),
(409,0,l)
);
}
);
width = 879;
},
{
anchors = (
{
name = bottom;
pos = (534,0);
},
{
name = top;
pos = (724,1346);
},
{
name = topleft;
pos = (140,1346);
}
);
layerId = "2146CDF3-509B-498B-BCC4-8BA41979C9D7";
shapes = (
{
closed = 1;
nodes = (
(736,0,l),
(788,560,l),
(1290,1346,l),
(940,1346,l),
(675,900,l),
(521,1346,l),
(171,1346,l),
(494,560,l),
(442,0,l)
);
}
);
width = 1208;
},
{
anchors = (
{
name = bottom;
pos = (427,0);
},
{
name = top;
pos = (604,1258);
},
{
name = topleft;
pos = (130,1258);
}
);
layerId = "3D647E92-BB94-42FD-9C12-A678B6C1687F";
shapes = (
{
closed = 1;
nodes = (
(564,0,l),
(612,516,l),
(1088,1258,l),
(922,1258,l),
(556,680,l),
(306,1258,l),
(136,1258,l),
(468,516,l),
(420,0,l)
);
}
);
width = 987.71304;
}
);
unicode = 89;
},
{
glyphname = Z;
lastChange = "2020-02-19 16:24:59 +0000";
layers = (
{
anchors = (
{
name = bottom;
pos = (431,0);
},
{
name = center;
pos = (516,608);
},
{
name = top;
pos = (602,1215);
}
);
layerId = "AD226DB4-BE97-401A-8A1F-FC26A063DFB1";
shapes = (
{
closed = 1;
nodes = (
(903,0,l),
(913,66,l),
(216,76,l),
(1014,1138,l),
(1021,1215,l),
(246,1215,l),
(240,1149,l),
(933,1138,l),
(137,75,l),
(132,0,l)
);
}
);
width = 994;
},
{
anchors = (
{
name = bottom;
pos = (536,0);
},
{
name = center;
pos = (631,673);
},
{
name = top;
pos = (726,1346);
}
);
layerId = "2146CDF3-509B-498B-BCC4-8BA41979C9D7";
shapes = (
{
closed = 1;
nodes = (
(1081,0,l),
(1104,302,l),
(537,300,l),
(1178,1072,l),
(1205,1346,l),
(259,1346,l),
(227,1044,l),
(802,1047,l),
(157,278,l),
(132,0,l)
);
}
);
width = 1211;
},
{
anchors = (
{
name = bottom;
pos = (466,0);
},
{
name = center;
pos = (554,629);
},
{
name = top;
pos = (643,1258);
}
);
layerId = "3D647E92-BB94-42FD-9C12-A678B6C1687F";
shapes = (
{
closed = 1;
nodes = (
(962,0,l),
(976,144,l),
(322,150,l),
(1068,1116,l),
(1082,1258,l),
(250,1258,l),
(236,1114,l),
(890,1108,l),
(144,142,l),
(132,0,l)
);
}
);
width = 1065.70435;
}
);
unicode = 90;
},
{
glyphname = a;
kernLeft = a;
kernRight = a;
lastChange = "2023-04-19 12:33:55 +0000";
layers = (
{
anchors = (
{
name = bottom;
pos = (414,0);
},
{
name = ogonek;
pos = (775,25);
},
{
name = top;
pos = (546,939);
}
);
layerId = "AD226DB4-BE97-401A-8A1F-FC26A063DFB1";
shapes = (
{
closed = 1;
nodes = (
(549,-15,o),
(686,48,o),
(749,190,c),
(747,126,o),
(743,65,o),
(741,0,c),
(795,0,l),
(853,614,ls),
(877,867,o),
(760,960,o),
(584,960,cs),
(444,960,o),
(276,901,o),
(259,701,c),
(336,701,l),
(346,849,o),
(463,901,o),
(583,901,cs),
(729,901,o),
(813,824,o),
(792,613,cs),
(777,463,l),
(700,508,o),
(601,530,o),
(519,530,cs),
(364,530,o),
(205,452,o),
(182,251,cs),
(169,124,o),
(249,-15,o),
(428,-15,cs)
);
},
{
closed = 1;
nodes = (
(281,44,o),
(239,137,o),
(250,251,cs),
(266,414,o),
(375,466,o),
(511,466,cs),
(592,466,o),
(680,448,o),
(772,418,c),
(783,181,o),
(586,44,o),
(419,44,cs)
);
}
);
width = 960;
},
{
anchors = (
{
name = bottom;
pos = (483,0);
},
{
name = ogonek;
pos = (836,5);
},
{
name = top;
pos = (623,991);
}
);
layerId = "2146CDF3-509B-498B-BCC4-8BA41979C9D7";
shapes = (
{
closed = 1;
nodes = (
(579,-35,o),
(632,14,o),
(703,99,c),
(708,66,o),
(710,32,o),
(714,0,c),
(973,0,l),
(1031,620,ls),
(1055,880,o),
(927,1020,o),
(627,1020,cs),
(366,1020,o),
(182,914,o),
(160,674,c),
(481,674,l),
(491,731,o),
(533,783,o),
(627,783,cs),
(726,783,o),
(742,726,o),
(732,633,cs),
(725,568,l),
(654,577,o),
(591,590,o),
(503,590,cs),
(247,590,o),
(103,480,o),
(91,303,c),
(71,117,o),
(195,-35,o),
(440,-35,cs)
);
},
{
closed = 1;
nodes = (
(473,214,o),
(405,248,o),
(408,303,cs),
(411,354,o),
(474,381,o),
(549,381,cs),
(599,381,o),
(667,369,o),
(706,358,c),
(677,286,o),
(641,214,o),
(541,214,cs)
);
}
);
width = 1105;
},
{
anchors = (
{
name = bottom;
pos = (437,0);
},
{
name = ogonek;
pos = (795,18);
},
{
name = top;
pos = (571,956);
}
);
layerId = "3D647E92-BB94-42FD-9C12-A678B6C1687F";
shapes = (
{
closed = 1;
nodes = (
(559,-22,o),
(668,37,o),
(734,160,c),
(734,106,o),
(732,54,o),
(732,0,c),
(854,0,l),
(912,616,ls),
(936,871,o),
(815,980,o),
(598,980,cs),
(418,980,o),
(245,905,o),
(226,692,c),
(384,692,l),
(394,810,o),
(486,862,o),
(598,862,cs),
(728.009,862.009,o),
(790,792,o),
(772,620,cs),
(760,498,l),
(685,531,o),
(598,550,o),
(514,550,cs),
(325,550,o),
(171,461,o),
(152,268,cs),
(137,122,o),
(231,-22,o),
(432,-22,cs)
);
},
{
closed = 1;
nodes = (
(344,100,o),
(294,174,o),
(302,268,cs),
(314,394,o),
(408,438,o),
(524,438,cs),
(594,438,o),
(676,422,o),
(750,398,c),
(748,216,o),
(604,100,o),
(459,100,cs)
);
}
);
width = 1007.91304;
}
);
unicode = 97;
},
{
glyphname = ae;
kernLeft = a;
lastChange = "2023-04-19 12:33:55 +0000";
layers = (
{
layerId = "AD226DB4-BE97-401A-8A1F-FC26A063DFB1";
shapes = (
{
closed = 1;
nodes = (
(171,87,o),
(283,-15,o),
(419,-15,cs),
(549,-15,o),
(706,78,o),
(791,248,c),
(768,248,l),
(786,119,o),
(903,-15,o),
(1083,-15,cs),
(1229,-15,o),
(1379,73,o),
(1426,269,c),
(1354,269,l),
(1324,126,o),
(1222,45,o),
(1085,45,cs),
(871,45,o),
(804,244,o),
(833,500,c),
(784,462,l),
(1434,462,l),
(1446,518,o),
(1452,583,o),
(1452,630,cs),
(1452,824,o),
(1350,960,o),
(1166,960,cs),
(1013,960,o),
(889,867,o),
(819,703,c),
(837,694,l),
(831,889,o),
(724,960,o),
(580,960,cs),
(454,960,o),
(277,905,o),
(260,701,c),
(337,701,l),
(346,848,o),
(467,901,o),
(579,901,cs),
(711,901,o),
(794,827,o),
(773,613,cs),
(754,418,l),
(785,446,l),
(700,504,o),
(593,530,o),
(513,530,cs),
(361,530,o),
(197,436,o),
(183,251,cs)
);
},
{
closed = 1;
nodes = (
(267,420,o),
(388,466,o),
(505,466,cs),
(587,466,o),
(680,443,o),
(786,407,c),
(750,457,l),
(784,195,o),
(578,44,o),
(414,44,cs),
(285,44,o),
(240,137,o),
(251,251,cs)
);
},
{
closed = 1;
nodes = (
(851,692,o),
(960,902,o),
(1166,902,cs),
(1355,902,o),
(1407,725,o),
(1380,514,c),
(787,514,l),
(828,481,l)
);
}
);
width = 1509;
},
{
layerId = "2146CDF3-509B-498B-BCC4-8BA41979C9D7";
shapes = (
{
closed = 1;
nodes = (
(73,118,o),
(202,-35,o),
(436,-35,cs),
(592,-35,o),
(751,33,o),
(820,191,c),
(790,190,l),
(862,46,o),
(982,-35,o),
(1132,-35,cs),
(1339,-35,o),
(1511,120,o),
(1551,302,c),
(1255,302,l),
(1235,252,o),
(1195,229,o),
(1145,229,cs),
(1046,229,o),
(1002,321,o),
(1025,449,c),
(975,409,l),
(1559,409,l),
(1564,433,o),
(1570,448,o),
(1577,478,cs),
(1639,742,o),
(1516,1020,o),
(1247,1020,cs),
(1124,1020,o),
(995,962,o),
(897,859,c),
(929,857,l),
(894,969,o),
(803,1020,o),
(626,1020,cs),
(368,1020,o),
(184,911,o),
(163,674,c),
(484,674,l),
(494,731,o),
(536,783,o),
(630,783,cs),
(729,783,o),
(745,726,o),
(735,633,cs),
(723,523,l),
(757,565,l),
(673,573,o),
(606,590,o),
(505,590,cs),
(243,590,o),
(106,475,o),
(90,303,cs)
);
},
{
closed = 1;
nodes = (
(414,354,o),
(477,381,o),
(552,381,cs),
(611,381,o),
(696,364,o),
(728,352,c),
(720,385,l),
(689,308,o),
(658,214,o),
(544,214,cs),
(476,214,o),
(408,248,o),
(411,303,cs)
);
},
{
closed = 1;
nodes = (
(1048,686,o),
(1111,757,o),
(1200,757,cs),
(1293,757,o),
(1315,680,o),
(1311,607,c),
(998,607,l),
(1037,569,l)
);
}
);
width = 1604;
},
{
layerId = "3D647E92-BB94-42FD-9C12-A678B6C1687F";
shapes = (
{
closed = 1;
nodes = (
(139,97,o),
(256,-22,o),
(425,-22,cs),
(563,-22,o),
(721,63,o),
(801,229,c),
(775,229,l),
(811,95,o),
(929,-22,o),
(1099,-22,cs),
(1265,-22,o),
(1423,89,o),
(1467,280,c),
(1321,280,l),
(1295,168,o),
(1213,106,o),
(1105,106,cs),
(929,106,o),
(869,269,o),
(896,483,c),
(847,444,l),
(1475,444,l),
(1485,490,o),
(1491,538,o),
(1493,580,c),
(1514,797,o),
(1405,980,o),
(1193,980,cs),
(1050,980,o),
(924,898,o),
(845,755,c),
(867,748,l),
(852,915,o),
(750,980,o),
(595,980,cs),
(426,980,o),
(246,907,o),
(228,692,c),
(386,692,l),
(395,809,o),
(490,862,o),
(596,862,cs),
(717,862,o),
(778,794,o),
(760,620,cs),
(744,453,l),
(776,485,l),
(691,527,o),
(597,550,o),
(510,550,cs),
(322,550,o),
(167,449,o),
(152,268,cs)
);
},
{
closed = 1;
nodes = (
(316,398,o),
(417,438,o),
(521,438,cs),
(595,438,o),
(685,417,o),
(767,389,c),
(740,433,l),
(753,232,o),
(604,100,o),
(457,100,cs),
(348,100,o),
(296,174,o),
(304,268,cs)
);
},
{
closed = 1;
nodes = (
(916,690,o),
(1010,854,o),
(1177,854,cs),
(1335,854,o),
(1377,710,o),
(1357,545,c),
(857,545,l),
(897,510,l)
);
}
);
width = 1540;
}
);
metricLeft = a;
metricRight = e;
unicode = 230;
},
{
glyphname = b;
kernLeft = h;
lastChange = "2023-04-19 12:33:55 +0000";
layers = (
{
anchors = (
{
name = bottom;
pos = (431,0);
},
{
name = top;
pos = (689,1834);
}
);
layerId = "AD226DB4-BE97-401A-8A1F-FC26A063DFB1";
shapes = (
{
closed = 1;
nodes = (
(820,-15,o),
(954,313,o),
(954,549,cs),
(954,799,o),
(803,960,o),
(624,960,cs),
(505,960,o),
(396,888,o),
(331,771,c),
(389,1351,l),
(325,1351,l),
(197,0,l),
(252,0,l),
(280,168,l),
(322,47,o),
(416,-15,o),
(538,-15,cs)
);
},
{
closed = 1;
nodes = (
(352,44,o),
(273,213,o),
(299,434,cs),
(305,499,ls),
(330,754,o),
(463,899,o),
(620,899,cs),
(768,899,o),
(884,769,o),
(884,551,cs),
(884,351,o),
(787,44,o),
(537,44,cs)
);
}
);
width = 993;
},
{
anchors = (
{
name = bottom;
pos = (516,0);
},
{
name = top;
pos = (774,1834);
}
);
layerId = "2146CDF3-509B-498B-BCC4-8BA41979C9D7";
shapes = (
{
closed = 1;
nodes = (
(971,-35,o),
(1124,321,o),
(1124,572,cs),
(1124,847,o),
(987,1020,o),
(780,1020,cs),
(677,1020,o),
(597,978,o),
(534,896,c),
(580,1384,l),
(279,1384,l),
(151,0,l),
(337,0,l),
(425,168,l),
(464,32,o),
(552,-35,o),
(652,-35,cs)
);
},
{
closed = 1;
nodes = (
(573,268,o),
(485,330,o),
(490,428,cs),
(505,611,ls),
(510,680,o),
(608,721,o),
(677,721,cs),
(768,721,o),
(824,643,o),
(824,532,cs),
(824,397,o),
(755,268,o),
(635,268,cs)
);
}
);
width = 1171;
},
{
anchors = (
{
name = bottom;
pos = (459,0);
},
{
name = top;
pos = (717,1834);
}
);
layerId = "3D647E92-BB94-42FD-9C12-A678B6C1687F";
shapes = (
{
closed = 1;
nodes = (
(870,-22,o),
(1010,316,o),
(1010,557,cs),
(1010,815,o),
(864,980,o),
(676,980,cs),
(562,980,o),
(462,918,o),
(398,812,c),
(452,1362,l),
(310,1362,l),
(182,0,l),
(280,0,l),
(328,168,l),
(369,42,o),
(461,-22,o),
(576,-22,cs)
);
},
{
closed = 1;
nodes = (
(425,118,o),
(343,252,o),
(362,432,cs),
(371,536,ls),
(389,730,o),
(511,840,o),
(639,840,cs),
(768,840,o),
(864,727,o),
(864,545,cs),
(864,366,o),
(776,118,o),
(569,118,cs)
);
}
);
width = 1051.81739;
}
);
unicode = 98;
},
{
glyphname = c;
kernLeft = c;
kernRight = c;
lastChange = "2023-04-19 12:33:55 +0000";
layers = (
{
anchors = (
{
name = bottom;
pos = (528,0);
},
{
name = top;
pos = (574,939);
}
);
layerId = "AD226DB4-BE97-401A-8A1F-FC26A063DFB1";
shapes = (
{
closed = 1;
nodes = (
(639,-15,o),
(801,104,o),
(815,296,c),
(742,296,l),
(734,132,o),
(620,44,o),
(483,44,cs),
(284,44,o),
(189,230,o),
(211,473,cs),
(235,737,o),
(385,899,o),
(552,899,cs),
(665,899,o),
(757,825,o),
(785,688,c),
(851,711,l),
(816,862,o),
(710,960,o),
(559,960,cs),
(354,960,o),
(168,778,o),
(139,473,cs),
(110,164,o),
(265,-15,o),
(471,-15,cs)
);
}
);
width = 896;
},
{
anchors = (
{
name = bottom;
pos = (562,0);
},
{
name = top;
pos = (624,991);
}
);
layerId = "2146CDF3-509B-498B-BCC4-8BA41979C9D7";
shapes = (
{
closed = 1;
nodes = (
(784,-35,o),
(923,161,o),
(946,375,c),
(651,375,l),
(640,315,o),
(618,268,o),
(532,268,cs),
(471,268,o),
(405,318,o),
(421,493,cs),
(438,671,o),
(517,721,o),
(581,721,cs),
(647,721,o),
(664,662,o),
(667,609,c),
(969,606,l),
(986,791,o),
(878,1020,o),
(612,1020,cs),
(381,1020,o),
(155,838,o),
(125,493,cs),
(94,178,o),
(283,-35,o),
(510,-35,cs)
);
}
);
width = 988;
},
{
anchors = (
{
name = bottom;
pos = (539,0);
},
{
name = top;
pos = (591,956);
}
);
layerId = "3D647E92-BB94-42FD-9C12-A678B6C1687F";
shapes = (
{
closed = 1;
nodes = (
(687,-22,o),
(841,123,o),
(858,322,c),
(712,322,l),
(703,192,o),
(619,118,o),
(499,118,cs),
(346,118,o),
(260,259,o),
(280,480,cs),
(302,715,o),
(429,840,o),
(562,840,cs),
(659,840,o),
(726,771,o),
(746,662,c),
(890,676,l),
(872,839,o),
(766,980,o),
(577,980,cs),
(363,980,o),
(164,798,o),
(134,480,cs),
(105,169,o),
(271,-22,o),
(484,-22,cs)
);
}
);
width = 926.4;
}
);
unicode = 99;
},
{
glyphname = d;
kernLeft = d;
lastChange = "2023-04-19 12:33:55 +0000";
layers = (
{
anchors = (
{
name = bottom;
pos = (450,0);
},
{
name = center;
pos = (516,470);
},
{
name = top;
pos = (598,1165);
},
{
name = topright;
pos = (1168,1344);
}
);
layerId = "AD226DB4-BE97-401A-8A1F-FC26A063DFB1";
shapes = (
{
closed = 1;
nodes = (
(608,-15,o),
(715,49,o),
(781,167,c),
(777,0,l),
(830,0,l),
(955,1351,l),
(892,1351,l),
(837,777,l),
(790,894,o),
(703,960,o),
(576,960,cs),
(281,960,o),
(165,603,o),
(165,387,cs),
(165,147,o),
(307,-15,o),
(492,-15,cs)
);
},
{
closed = 1;
nodes = (
(353,44,o),
(240,178,o),
(240,394,cs),
(240,580,o),
(324,899,o),
(570,899,cs),
(692,899,o),
(826,821,o),
(826,652,cs),
(826,637,o),
(825,642,o),
(824,629,cs),
(800,351,ls),
(783,149,o),
(627,44,o),
(498,44,cs)
);
}
);
width = 1031;
},
{
anchors = (
{
name = bottom;
pos = (505,0);
},
{
name = center;
pos = (575,496);
},
{
name = top;
pos = (643,1151);
},
{
name = topright;
pos = (1372,1406);
}
);
layerId = "2146CDF3-509B-498B-BCC4-8BA41979C9D7";
shapes = (
{
closed = 1;
nodes = (
(576,-35,o),
(669,22,o),
(735,147,c),
(757,0,l),
(1000,0,l),
(1133,1384,l),
(832,1384,l),
(785,895,l),
(739,979,o),
(665,1020,o),
(562,1020,cs),
(320,1020,o),
(113,785,o),
(113,434,cs),
(113,151,o),
(268,-35,o),
(483,-35,cs)
);
},
{
closed = 1;
nodes = (
(465,268,o),
(410,349,o),
(410,469,cs),
(410,603,o),
(482,721,o),
(613,721,cs),
(698,721,o),
(748,647,o),
(747,532,cs),
(747,524,o),
(747,510,o),
(745,498,cs),
(740,469,l),
(729,352,o),
(637,268,o),
(562,268,cs)
);
}
);
width = 1149;
},
{
anchors = (
{
name = bottom;
pos = (468,0);
},
{
name = center;
pos = (535,479);
},
{
name = top;
pos = (613,1160);
},
{
name = topright;
pos = (1250,1383);
}
);
layerId = "3D647E92-BB94-42FD-9C12-A678B6C1687F";
shapes = (
{
closed = 1;
nodes = (
(597,-22,o),
(700,40,o),
(766,160,c),
(770,0,l),
(886,0,l),
(1014,1362,l),
(872,1362,l),
(820,816,l),
(773,922,o),
(690,980,o),
(571,980,cs),
(294,980,o),
(148,663,o),
(148,403,cs),
(148,148,o),
(294,-22,o),
(489,-22,cs)
);
},
{
closed = 1;
nodes = (
(390,118,o),
(296,235,o),
(296,419,cs),
(296,588,o),
(376,840,o),
(584,840,cs),
(694,840,o),
(800,764,o),
(800,612,cs),
(800,600,o),
(799,598,o),
(798,586,cs),
(780,390,ls),
(764,216,o),
(630,118,o),
(519,118,cs)
);
}
);
width = 1069.9913;
}
);
unicode = 100;
},
{
glyphname = dcaron;
kernLeft = d;
kernRight = dcaron;
lastChange = "2023-04-19 12:55:59 +0000";
layers = (
{
anchors = (
{
name = bottom;
pos = (1124,1076);
},
{
name = center;
pos = (516,470);
},
{
name = top;
pos = (598,1165);
},
{
name = topright;
pos = (1077,939);
}
);
background = {
anchors = (
{
name = bottom;
pos = (450,0);
},
{
name = center;
pos = (516,470);
},
{
name = top;
pos = (598,1165);
},
{
name = topright;
pos = (1077,939);
}
);
shapes = (
{
closed = 1;
nodes = (
(608,-15,o),
(715,49,o),
(781,167,c),
(777,0,l),
(830,0,l),
(955,1351,l),
(892,1351,l),
(837,777,l),
(790,894,o),
(703,960,o),
(576,960,cs),
(281,960,o),
(165,603,o),
(165,387,cs),
(165,147,o),
(307,-15,o),
(492,-15,cs)
);
},
{
closed = 1;
nodes = (
(353,44,o),
(240,178,o),
(240,394,cs),
(240,580,o),
(324,899,o),
(570,899,cs),
(692,899,o),
(826,821,o),
(826,652,cs),
(826,637,o),
(825,642,o),
(824,629,cs),
(800,351,ls),
(782,149,o),
(627,44,o),
(498,44,cs)
);
},
{
closed = 1;
nodes = (
(1197,1124,o),
(1227,1200,o),
(1230,1251,cs),
(1233,1307,o),
(1207,1344,o),
(1167,1344,cs),
(1133,1344,o),
(1111,1319,o),
(1106,1288,cs),
(1099,1247,o),
(1127,1222,o),
(1172,1225,c),
(1155,1168,o),
(1116,1128,o),
(1055,1101,c),
(1103,1076,l)
);
}
);
};
layerId = "AD226DB4-BE97-401A-8A1F-FC26A063DFB1";
shapes = (
{
ref = d;
},
{
pos = (830,0);
ref = caroncomb.alt;
}
);
width = 1031;
},
{
anchors = (
{
name = bottom;
pos = (1304,930);
},
{
name = center;
pos = (575,496);
},
{
name = top;
pos = (643,1151);
},
{
name = topright;
pos = (1199,991);
}
);
background = {
anchors = (
{
name = bottom;
pos = (505,0);
},
{
name = center;
pos = (575,496);
},
{
name = top;
pos = (643,1151);
},
{
name = topright;
pos = (1199,991);
}
);
shapes = (
{
closed = 1;
nodes = (
(576,-35,o),
(669,22,o),
(735,147,c),
(757,0,l),
(1000,0,l),
(1133,1384,l),
(832,1384,l),
(785,895,l),
(739,979,o),
(665,1020,o),
(562,1020,cs),
(320,1020,o),
(113,785,o),
(113,434,cs),
(113,151,o),
(268,-35,o),
(483,-35,cs)
);
},
{
closed = 1;
nodes = (
(465,268,o),
(410,349,o),
(410,469,cs),
(410,603,o),
(482,721,o),
(613,721,cs),
(698,721,o),
(748,647,o),
(747,532,cs),
(747,524,o),
(748,510,o),
(745,498,cs),
(740,469,l),
(729,352,o),
(637,268,o),
(562,268,cs)
);
},
{
closed = 1;
nodes = (
(1412,987,o),
(1495,1101,o),
(1507,1214,cs),
(1518,1313,o),
(1471,1406,o),
(1372,1406,cs),
(1293,1406,o),
(1229,1347,o),
(1223,1274,cs),
(1218,1209,o),
(1261,1167,o),
(1312,1151,c),
(1291,1094,o),
(1230,1050,o),
(1166,1014,c),
(1305,930,l)
);
}
);
};
layerId = "2146CDF3-509B-498B-BCC4-8BA41979C9D7";
shapes = (
{
ref = d;
},
{
pos = (969,0);
ref = caroncomb.alt;
}
);
width = 1149;
},
{
anchors = (
{
name = bottom;
pos = (1187,1028);
},
{
name = center;
pos = (535,479);
},
{
name = top;
pos = (613,1160);
},
{
name = topright;
pos = (1117,956);
}
);
background = {
anchors = (
{
name = bottom;
pos = (468,0);
},
{
name = center;
pos = (535,479);
},
{
name = top;
pos = (613,1160);
},
{
name = topright;
pos = (1117,956);
}
);
shapes = (
{
closed = 1;
nodes = (
(597,-22,o),
(700,40,o),
(766,160,c),
(770,0,l),
(886,0,l),
(1014,1362,l),
(872,1362,l),
(820,816,l),
(773,922,o),
(690,980,o),
(571,980,cs),
(294,980,o),
(148,663,o),
(148,403,cs),
(148,148,o),
(294,-22,o),
(489,-22,cs)
);
},
{
closed = 1;
nodes = (
(390,118,o),
(296,235,o),
(296,419,cs),
(296,588,o),
(376,840,o),
(584,840,cs),
(694,840,o),
(800,764,o),
(800,612,cs),
(800,600,o),
(800,598,o),
(798,586,cs),
(780,390,ls),
(764,216,o),
(630,118,o),
(519,118,cs)
);
},
{
closed = 1;
nodes = (
(1284,1069,o),
(1338,1164,o),
(1346,1244,cs),
(1352,1321,o),
(1316,1383,o),
(1249,1383,cs),
(1194,1383,o),
(1153,1342,o),
(1147,1292,cs),
(1141,1239,o),
(1177,1206,o),
(1226,1201,c),
(1206,1142,o),
(1156,1099,o),
(1092,1067,c),
(1181,1015,l)
);
}
);
};
layerId = "3D647E92-BB94-42FD-9C12-A678B6C1687F";
shapes = (
{
ref = d;
},
{
pos = (877,0);
ref = caroncomb.alt;
}
);
width = 1070;
}
);
unicode = 271;
},
{
color = 4;
glyphname = dcroat;
kernLeft = d;
lastChange = "2023-04-19 12:33:55 +0000";
layers = (
{
background = {
shapes = (
{
ref = d;
},
{
pos = (464,593);
ref = hyphen;
}
);
};
layerId = "AD226DB4-BE97-401A-8A1F-FC26A063DFB1";
shapes = (
{
closed = 1;
nodes = (
(608,-15,o),
(715,49,o),
(781,167,c),
(777,0,l),
(830,0,l),
(955,1351,l),
(892,1351,l),
(837,777,l),
(811,872,o),
(715,960,o),
(576,960,cs),
(281,960,o),
(165,603,o),
(165,387,cs),
(165,147,o),
(307,-15,o),
(492,-15,cs)
);
},
{
closed = 1;
nodes = (
(353,44,o),
(240,178,o),
(240,394,cs),
(240,580,o),
(324,899,o),
(570,899,cs),
(692,899,o),
(826,821,o),
(826,652,cs),
(826,637,o),
(823,624,o),
(822,608,cs),
(800,351,ls),
(783,149,o),
(627,44,o),
(498,44,cs)
);
},
{
closed = 1;
nodes = (
(1037,1122,l),
(1045,1182,l),
(572,1182,l),
(565,1122,l)
);
}
);
width = 1001;
},
{
background = {
shapes = (
{
ref = d;
},
{
pos = (490,698);
ref = hyphen;
scale = (1,0.8);
}
);
};
layerId = "3D647E92-BB94-42FD-9C12-A678B6C1687F";
shapes = (
{
closed = 1;
nodes = (
(597,-22,o),
(700,40,o),
(766,160,c),
(770,0,l),
(886,0,l),
(1014,1362,l),
(872,1362,l),
(820,816,l),
(788,922,o),
(690,980,o),
(571,980,cs),
(294,980,o),
(148,663,o),
(148,403,cs),
(148,148,o),
(294,-22,o),
(489,-22,cs)
);
},
{
closed = 1;
nodes = (
(390,118,o),
(296,235,o),
(296,419,cs),
(296,588,o),
(376,840,o),
(584,840,cs),
(694,840,o),
(800,764,o),
(800,612,cs),
(800,595,o),
(798,583,o),
(796,565,cs),
(780,390,ls),
(764,216,o),
(630,118,o),
(519,118,cs)
);
},
{
closed = 1;
nodes = (
(1096,1110,l),
(1110,1219,l),
(620,1219,l),
(606,1110,l)
);
}
);
width = 1035;
},
{
background = {
shapes = (
{
ref = d;
},
{
pos = (478,744);
ref = hyphen;
scale = (1.0595,0.6806);
}
);
};
layerId = "2146CDF3-509B-498B-BCC4-8BA41979C9D7";
shapes = (
{
closed = 1;
nodes = (
(576,-35,o),
(669,22,o),
(735,147,c),
(757,0,l),
(1000,0,l),
(1133,1384,l),
(832,1384,l),
(785,895,l),
(753,967,o),
(677,1020,o),
(562,1020,cs),
(320,1020,o),
(113,785,o),
(113,434,cs),
(113,151,o),
(268,-35,o),
(483,-35,cs)
);
},
{
closed = 1;
nodes = (
(465,268,o),
(410,349,o),
(410,469,cs),
(410,603,o),
(482,721,o),
(613,721,cs),
(698,721,o),
(748,647,o),
(747,532,cs),
(747,524,o),
(747,510,o),
(743,484,cs),
(736,443,ls),
(720,353,o),
(637,268,o),
(562,268,cs)
);
},
{
closed = 1;
nodes = (
(1190,1074,l),
(1219,1271,l),
(662,1271,l),
(634,1074,l)
);
}
);
width = 1200;
}
);
unicode = 273;
},
{
glyphname = eth;
kernLeft = d;
lastChange = "2023-04-19 12:33:55 +0000";
layers = (
{
layerId = "AD226DB4-BE97-401A-8A1F-FC26A063DFB1";
shapes = (
{
closed = 1;
nodes = (
(648,-19,o),
(916,184,o),
(916,735,cs),
(916,1061,o),
(822,1327,o),
(572,1580,c),
(523,1548,l),
(785,1291,o),
(916,956,o),
(841,452,c),
(851,454,l),
(851,734,o),
(701,801,o),
(580,801,cs),
(377,801,o),
(155,611,o),
(155,322,cs),
(155,94,o),
(293,-19,o),
(445,-19,cs)
);
},
{
closed = 1;
nodes = (
(309,42,o),
(224,164,o),
(224,322,cs),
(224,528,o),
(370,743,o),
(569,743,cs),
(704,743,o),
(800,645,o),
(800,467,cs),
(800,256,o),
(665,42,o),
(462,42,cs)
);
},
{
closed = 1;
nodes = (
(1085,1353,l),
(1061,1402,l),
(492,1072,l),
(514,1023,l)
);
}
);
width = 1015;
},
{
layerId = "2146CDF3-509B-498B-BCC4-8BA41979C9D7";
shapes = (
{
closed = 1;
nodes = (
(843,-28,o),
(1131,226,o),
(1131,767,cs),
(1131,1051,o),
(1052,1374,o),
(765,1680,c),
(487,1538,l),
(727,1298,o),
(911,1066,o),
(917,636,c),
(930,631,l),
(930,926,o),
(741,998,o),
(609,998,cs),
(381,998,o),
(109,783,o),
(109,420,cs),
(109,107,o),
(312,-28,o),
(536,-28,cs)
);
},
{
closed = 1;
nodes = (
(459,216,o),
(417,284,o),
(417,422,cs),
(417,625,o),
(507,744,o),
(614,744,cs),
(687,744,o),
(755,688,o),
(755,533,cs),
(755,380,o),
(689,216,o),
(549,216,cs)
);
},
{
closed = 1;
nodes = (
(1181,1436,l),
(1079,1618,l),
(463,1278,l),
(563,1096,l)
);
}
);
width = 1148;
},
{
layerId = "3D647E92-BB94-42FD-9C12-A678B6C1687F";
shapes = (
{
closed = 1;
nodes = (
(711,-22,o),
(986,198,o),
(986,746,cs),
(986,1058,o),
(897,1343,o),
(635,1613,c),
(510,1545,l),
(765,1293,o),
(913,992,o),
(865,513,c),
(876,512,l),
(876,797,o),
(713,866,o),
(589,866,cs),
(377,866,o),
(139,668,o),
(139,354,cs),
(139,98,o),
(298,-22,o),
(474,-22,cs)
);
},
{
closed = 1;
nodes = (
(358,99,o),
(287,204,o),
(287,355,cs),
(287,560,o),
(414,743,o),
(583,743,cs),
(697,743,o),
(784,659,o),
(784,489,cs),
(784,297,o),
(672,99,o),
(490,99,cs)
);
},
{
closed = 1;
nodes = (
(1116,1380,l),
(1066,1473,l),
(481,1140,l),
(529,1047,l)
);
}
);
width = 1039;
}
);
metricLeft = d;
metricRight = O;
unicode = 240;
},
{
glyphname = e;
kernLeft = e;
kernRight = e;
lastChange = "2023-04-19 12:33:55 +0000";
layers = (
{
anchors = (
{
name = bottom;
pos = (502,0);
},
{
name = ogonek;
pos = (465,11);
},
{
name = top;
pos = (514,939);
}
);
layerId = "AD226DB4-BE97-401A-8A1F-FC26A063DFB1";
shapes = (
{
closed = 1;
nodes = (
(622,-15,o),
(764,72,o),
(813,269,c),
(741,269,l),
(710,124,o),
(609,45,o),
(470,45,cs),
(250,45,o),
(183,244,o),
(209,490,c),
(160,462,l),
(821,462,l),
(833,518,o),
(839,583,o),
(839,630,cs),
(839,824,o),
(738,960,o),
(550,960,cs),
(329,960,o),
(168,773,o),
(138,465,cs),
(108,155,o),
(236,-15,o),
(461,-15,cs)
);
},
{
closed = 1;
nodes = (
(236,709,o),
(347,902,o),
(550,902,cs),
(749,902,o),
(794,717,o),
(766,509,c),
(815,514,l),
(172,514,l),
(207,502,l)
);
}
);
width = 896;
},
{
anchors = (
{
name = bottom;
pos = (563,0);
},
{
name = ogonek;
pos = (526,10);
},
{
name = top;
pos = (564,991);
}
);
layerId = "2146CDF3-509B-498B-BCC4-8BA41979C9D7";
shapes = (
{
closed = 1;
nodes = (
(730,-35,o),
(896,118,o),
(938,302,c),
(642,302,l),
(622,251,o),
(579,229,o),
(535,229,cs),
(433,229,o),
(388,318,o),
(412,451,c),
(363,409,l),
(946,409,l),
(951,433,o),
(957,450,o),
(964,478,c),
(1000,745,o),
(902,1020,o),
(610,1020,cs),
(381,1020,o),
(155,825,o),
(125,498,cs),
(95,188,o),
(283,-35,o),
(511,-35,cs)
);
},
{
closed = 1;
nodes = (
(433,684,o),
(498,757,o),
(586,757,cs),
(696,757,o),
(708,653,o),
(694,564,c),
(743,607,l),
(382,607,l),
(424,564,l)
);
}
);
width = 988;
},
{
anchors = (
{
name = bottom;
pos = (522,0);
},
{
name = ogonek;
pos = (485,11);
},
{
name = top;
pos = (531,956);
}
);
layerId = "3D647E92-BB94-42FD-9C12-A678B6C1687F";
shapes = (
{
closed = 1;
nodes = (
(658,-22,o),
(808,87,o),
(854,280,c),
(708,280,l),
(681,166,o),
(599,106,o),
(491,106,cs),
(310,106,o),
(251,268,o),
(276,477,c),
(227,444,l),
(862,444,l),
(872,490,o),
(878,539,o),
(880,580,cs),
(892,798,o),
(792,980,o),
(570,980,cs),
(346,980,o),
(164,790,o),
(134,476,cs),
(104,166,o),
(252,-22,o),
(478,-22,cs)
);
},
{
closed = 1;
nodes = (
(301,701,o),
(397,854,o),
(562,854,cs),
(731,854,o),
(766,696,o),
(742,527,c),
(791,545,l),
(241,545,l),
(279,522,l)
);
}
);
width = 926.4;
}
);
unicode = 101;
},
{
glyphname = f;
lastChange = "2020-10-22 18:07:00 +0000";
layers = (
{
anchors = (
{
name = bottom;
pos = (222,0);
},
{
name = top;
pos = (480,1834);
}
);
layerId = "AD226DB4-BE97-401A-8A1F-FC26A063DFB1";
shapes = (
{
closed = 1;
nodes = (
(341,885,l),
(260,0,l),
(320,0,l),
(407,885,l),
(602,885,l),
(605,939,l),
(410,939,l),
(428,1117,ls),
(444,1276,o),
(521,1310,o),
(587,1310,cs),
(626,1310,o),
(669,1298,o),
(707,1278,c),
(724,1339,l),
(682,1361,o),
(646,1367,o),
(610,1367,cs),
(482,1367,o),
(378,1291,o),
(362,1119,cs),
(346,939,l),
(193,939,l),
(190,885,l)
);
}
);
width = 575;
},
{
anchors = (
{
name = bottom;
pos = (283,0);
},
{
name = top;
pos = (541,1834);
}
);
layerId = "2146CDF3-509B-498B-BCC4-8BA41979C9D7";
shapes = (
{
closed = 1;
nodes = (
(242,773,l),
(169,0,l),
(471,0,l),
(538,773,l),
(681,773,l),
(704,991,l),
(561,991,l),
(567,1065,ls),
(574,1115,o),
(610,1140,o),
(651,1140,cs),
(677,1140,o),
(702,1134,o),
(727,1127,c),
(809,1378,l),
(742,1388,o),
(661,1400,o),
(592,1400,cs),
(443,1400,o),
(293,1304,o),
(271,1067,c),
(261,991,l),
(147,991,l),
(124,773,l)
);
}
);
width = 706;
},
{
anchors = (
{
name = bottom;
pos = (242,0);
},
{
name = top;
pos = (500,1834);
}
);
layerId = "3D647E92-BB94-42FD-9C12-A678B6C1687F";
shapes = (
{
closed = 1;
nodes = (
(308,848,l),
(230,0,l),
(370,0,l),
(450,848,l),
(628,848,l),
(638,956,l),
(460,956,l),
(474,1100,ls),
(487,1223,o),
(550,1254,o),
(608,1254,cs),
(643,1254,o),
(680,1244,o),
(714,1228,c),
(752,1352,l),
(702,1370,o),
(651,1378,o),
(604,1378,cs),
(469,1378,o),
(350,1295,o),
(332,1102,cs),
(318,956,l),
(178,956,l),
(168,848,l)
);
}
);
width = 618.28696;
}
);
unicode = 102;
},
{
glyphname = g;
kernLeft = g;
kernRight = g;
lastChange = "2023-04-19 12:36:01 +0000";
layers = (
{
anchors = (
{
name = bottom;
pos = (354,-504);
},
{
name = top;
pos = (637,939);
}
);
layerId = "AD226DB4-BE97-401A-8A1F-FC26A063DFB1";
shapes = (
{
closed = 1;
nodes = (
(728,-481,o),
(940,-311,o),
(952,-138,cs),
(960,-25,o),
(881,61,o),
(747,61,cs),
(369,61,ls),
(224,61,o),
(190,113,o),
(200,184,cs),
(211,264,o),
(267,314,o),
(328,322,c),
(378,281,o),
(447,258,o),
(521,258,cs),
(711,258,o),
(861,408,o),
(881,615,cs),
(889,699,o),
(873,769,o),
(841,825,c),
(860,953,o),
(924,1006,o),
(1028,1006,c),
(1056,1086,l),
(912,1086,o),
(842,998,o),
(812,873,c),
(762,930,o),
(685,960,o),
(596,960,cs),
(405,960,o),
(264,820,o),
(244,615,cs),
(234,511,o),
(258,422,o),
(305,360,c),
(221,343,o),
(145,281,o),
(137,185,cs),
(131,117,o),
(161,55,o),
(231,23,c),
(126,-16,o),
(62,-95,o),
(56,-199,cs),
(46,-359,o),
(180,-481,o),
(431,-481,cs)
);
},
{
closed = 1;
nodes = (
(206,-422,o),
(116,-318,o),
(122,-200,cs),
(128,-89,o),
(219,3,o),
(348,3,cs),
(743,3,ls),
(847,3,o),
(890,-66,o),
(884,-142,cs),
(872,-292,o),
(672,-422,o),
(426,-422,cs)
);
},
{
closed = 1;
nodes = (
(382,316,o),
(290,445,o),
(307,615,cs),
(324,785,o),
(438,901,o),
(590,901,cs),
(744,901,o),
(837,782,o),
(821,615,cs),
(805,444,o),
(684,316,o),
(533,316,cs)
);
}
);
width = 981;
},
{
anchors = (
{
name = bottom;
pos = (403,-504);
},
{
name = top;
pos = (613,991);
}
);
layerId = "2146CDF3-509B-498B-BCC4-8BA41979C9D7";
shapes = (
{
closed = 1;
nodes = (
(796,-514,o),
(1010,-289,o),
(1031,-59,cs),
(1048,127,o),
(926,192,o),
(714,192,cs),
(468,192,ls),
(394,192,o),
(360,218,o),
(364,263,cs),
(367,298,o),
(392,320,o),
(419,335,c),
(463,327,o),
(509,324,o),
(543,324,cs),
(771,324,o),
(975,457,o),
(993,667,cs),
(1000,746,o),
(978,815,o),
(940,871,c),
(945,920,o),
(1003,946,o),
(1100,946,c),
(1135,1256,l),
(1003,1256,o),
(848,1149,o),
(818,978,c),
(756,1002,o),
(688,1020,o),
(611,1020,cs),
(402,1020,o),
(193,886,o),
(172,667,cs),
(162,563,o),
(198,482,o),
(266,420,c),
(174,389,o),
(117,317,o),
(110,231,cs),
(104,157,o),
(137,98,o),
(198,43,c),
(89,39,o),
(-5,-42,o),
(-20,-160,cs),
(-45,-357,o),
(165,-514,o),
(452,-514,cs)
);
},
{
closed = 1;
nodes = (
(373,-252,o),
(273,-223,o),
(277,-140,cs),
(280,-80,o),
(338,-36,o),
(433,-36,cs),
(691,-36,ls),
(716,-36,o),
(738,-40,o),
(735,-82,cs),
(730,-159,o),
(649,-252,o),
(472,-252,cs)
);
},
{
closed = 1;
nodes = (
(485,552,o),
(462,603,o),
(466,667,cs),
(470,740,o),
(508,796,o),
(596,796,cs),
(675,796,o),
(703,750,o),
(696,667,cs),
(691,606,o),
(669,552,o),
(576,552,cs)
);
}
);
width = 1086;
},
{
anchors = (
{
name = bottom;
pos = (370,-504);
},
{
name = top;
pos = (629,956);
}
);
layerId = "3D647E92-BB94-42FD-9C12-A678B6C1687F";
shapes = (
{
closed = 1;
nodes = (
(750,-492,o),
(963,-304,o),
(978,-112,cs),
(989,25,o),
(896,104,o),
(736,104,cs),
(402,104,ls),
(280,104,o),
(246,148,o),
(254,210,cs),
(263,275,o),
(308,316,o),
(358,326,c),
(406,296,o),
(467,280,o),
(528,280,cs),
(731,280,o),
(899,424,o),
(918,632,cs),
(926,715,o),
(908,784,o),
(874,840,c),
(888,942,o),
(950,986,o),
(1052,986,c),
(1082,1142,l),
(942,1142,o),
(844,1048,o),
(814,908,c),
(760,954,o),
(686,980,o),
(601,980,cs),
(404,980,o),
(241,842,o),
(220,632,cs),
(210,528,o),
(238,442,o),
(292,380,c),
(205,358,o),
(136,293,o),
(128,200,cs),
(122,130,o),
(153,69,o),
(220,30,c),
(114,2,o),
(40,-77,o),
(31,-186,cs),
(16,-358,o),
(175,-492,o),
(438,-492,cs)
);
},
{
closed = 1;
nodes = (
(261,-366,o),
(168,-287,o),
(173,-180,cs),
(178,-86,o),
(258,-10,o),
(376,-10,cs),
(726,-10,ls),
(804,-10,o),
(840,-57,o),
(835,-122,cs),
(825,-248,o),
(664,-366,o),
(441,-366,cs)
);
},
{
closed = 1;
nodes = (
(416,394,o),
(347,497,o),
(360,632,cs),
(372,770,o),
(461,866,o),
(592,866,cs),
(721,866,o),
(793,771,o),
(780,632,cs),
(767,498,o),
(679,394,o),
(547,394,cs)
);
}
);
width = 1016;
}
);
unicode = 103;
},
{
glyphname = h;
kernLeft = h;
lastChange = "2023-04-19 12:33:55 +0000";
layers = (
{
anchors = (
{
name = bottom;
pos = (460,0);
},
{
name = center;
pos = (589,917);
},
{
name = top;
pos = (718,1834);
}
);
layerId = "AD226DB4-BE97-401A-8A1F-FC26A063DFB1";
shapes = (
{
closed = 1;
nodes = (
(263,0,l),
(301,419,l),
(316,702,o),
(432,899,o),
(640,899,cs),
(802,899,o),
(897,779,o),
(876,555,cs),
(824,0,l),
(884,0,l),
(938,555,ls),
(963,817,o),
(841,960,o),
(651,960,cs),
(504,960,o),
(394,874,o),
(331,741,c),
(389,1351,l),
(325,1351,l),
(197,0,l)
);
}
);
width = 1051;
},
{
anchors = (
{
name = bottom;
pos = (512,0);
},
{
name = center;
pos = (641,917);
},
{
name = top;
pos = (770,1834);
}
);
layerId = "2146CDF3-509B-498B-BCC4-8BA41979C9D7";
shapes = (
{
closed = 1;
nodes = (
(447,0,l),
(498,518,l),
(537,677,o),
(623,721,o),
(692,721,cs),
(754,721,o),
(798,674,o),
(785,575,c),
(733,0,l),
(1035,0,l),
(1087,575,ls),
(1109,832,o),
(1030,1020,o),
(800,1020,cs),
(700,1020,o),
(605,974,o),
(528,859,c),
(580,1384,l),
(279,1384,l),
(151,0,l)
);
}
);
width = 1163;
},
{
anchors = (
{
name = bottom;
pos = (477,0);
},
{
name = center;
pos = (606,917);
},
{
name = top;
pos = (735,1834);
}
);
layerId = "3D647E92-BB94-42FD-9C12-A678B6C1687F";
shapes = (
{
closed = 1;
nodes = (
(324,0,l),
(366,452,ls),
(389,694,o),
(495,840,o),
(657,840,cs),
(786,840,o),
(864,744,o),
(846,562,cs),
(794,0,l),
(934,0,l),
(987,562,ls),
(1011,822,o),
(903,980,o),
(700,980,cs),
(569,980,o),
(464,907,o),
(396,780,c),
(452,1362,l),
(310,1362,l),
(182,0,l)
);
}
);
width = 1088.0087;
}
);
unicode = 104;
},
{
glyphname = hbar;
kernLeft = h;
lastChange = "2023-04-19 12:33:55 +0000";
layers = (
{
anchors = (
{
name = top;
pos = (383.516,1150.72);
}
);
layerId = "AD226DB4-BE97-401A-8A1F-FC26A063DFB1";
shapes = (
{
ref = h;
},
{
closed = 1;
nodes = (
(141,1092,l),
(621,1092,l),
(625,1151,l),
(145,1151,l)
);
}
);
width = 1051;
},
{
anchors = (
{
name = top;
pos = (458.085,1269.881);
}
);
layerId = "2146CDF3-509B-498B-BCC4-8BA41979C9D7";
shapes = (
{
ref = h;
},
{
closed = 1;
nodes = (
(146,1067,l),
(743,1067,l),
(757,1270,l),
(160,1270,l)
);
}
);
width = 1163;
},
{
anchors = (
{
name = top;
pos = (413.534,1192.278);
}
);
layerId = "3D647E92-BB94-42FD-9C12-A678B6C1687F";
shapes = (
{
ref = h;
},
{
closed = 1;
nodes = (
(138,1086,l),
(660,1086,l),
(676,1192,l),
(153,1192,l)
);
}
);
width = 1088;
}
);
unicode = 295;
},
{
glyphname = i;
kernLeft = i;
kernRight = i;
lastChange = "2023-04-19 12:36:20 +0000";
layers = (
{
anchors = (
{
name = bottom;
pos = (175,0);
}
);
layerId = "AD226DB4-BE97-401A-8A1F-FC26A063DFB1";
shapes = (
{
closed = 1;
nodes = (
(374,1219,o),
(399,1240,o),
(403,1273,cs),
(406,1304,o),
(389,1332,o),
(356,1332,cs),
(319,1332,o),
(302,1297,o),
(300,1273,cs),
(297,1244,o),
(313,1219,o),
(345,1219,cs)
);
},
{
ref = idotless;
}
);
width = 482;
},
{
anchors = (
{
name = bottom;
pos = (256,0);
}
);
layerId = "2146CDF3-509B-498B-BCC4-8BA41979C9D7";
shapes = (
{
closed = 1;
nodes = (
(540,1107,o),
(614,1175,o),
(625,1293,cs),
(632,1407,o),
(574,1477,o),
(463,1477,cs),
(355,1477,o),
(279,1409,o),
(268,1293,cs),
(261,1174,o),
(318,1107,o),
(431,1107,cs)
);
},
{
ref = idotless;
}
);
width = 652;
},
{
anchors = (
{
name = bottom;
pos = (202,0);
}
);
layerId = "3D647E92-BB94-42FD-9C12-A678B6C1687F";
shapes = (
{
closed = 1;
nodes = (
(429,1182,o),
(470,1219,o),
(476,1280,cs),
(481,1338,o),
(450,1380,o),
(391,1380,cs),
(331,1380,o),
(294,1334,o),
(289,1280,cs),
(285,1221,o),
(315,1182,o),
(373,1182,cs)
);
},
{
alignment = -1;
ref = idotless;
}
);
width = 538.17391;
}
);
unicode = 105;
},
{
glyphname = idotless;
kernLeft = i;
kernRight = i;
lastChange = "2023-04-19 12:36:20 +0000";
layers = (
{
anchors = (
{
name = bottom;
pos = (175,0);
},
{
name = ogonek;
pos = (240,25);
},
{
name = top;
pos = (307,939);
}
);
layerId = "AD226DB4-BE97-401A-8A1F-FC26A063DFB1";
shapes = (
{
closed = 1;
nodes = (
(260,0,l),
(348,941,l),
(282,941,l),
(194,0,l)
);
}
);
width = 482;
},
{
anchors = (
{
name = bottom;
pos = (256,0);
},
{
name = ogonek;
pos = (340,5);
},
{
name = top;
pos = (396,991);
}
);
layerId = "2146CDF3-509B-498B-BCC4-8BA41979C9D7";
shapes = (
{
closed = 1;
nodes = (
(477,0,l),
(572,993,l),
(276,993,l),
(181,0,l)
);
}
);
width = 652;
},
{
anchors = (
{
name = bottom;
pos = (202,0);
},
{
name = ogonek;
pos = (273,18);
},
{
name = top;
pos = (336,956);
}
);
layerId = "3D647E92-BB94-42FD-9C12-A678B6C1687F";
shapes = (
{
closed = 1;
nodes = (
(332,0,l),
(422,958,l),
(280,958,l),
(190,0,l)
);
}
);
width = 538.17391;
}
);
unicode = 305;
},
{
glyphname = j;
lastChange = "2020-02-19 16:24:59 +0000";
layers = (
{
layerId = "AD226DB4-BE97-401A-8A1F-FC26A063DFB1";
shapes = (
{
closed = 1;
nodes = (
(420,1219,o),
(446,1246,o),
(450,1273,cs),
(455,1307,o),
(432,1332,o),
(401,1332,cs),
(370,1332,o),
(346,1308,o),
(342,1273,cs),
(338,1238,o),
(362,1219,o),
(388,1219,cs)
);
},
{
ref = jdotless;
}
);
width = 527;
},
{
layerId = "2146CDF3-509B-498B-BCC4-8BA41979C9D7";
shapes = (
{
closed = 1;
nodes = (
(537,1107,o),
(607,1174,o),
(614,1293,cs),
(624,1406,o),
(568,1477,o),
(457,1477,cs),
(346,1477,o),
(270,1406,o),
(263,1293,cs),
(252,1176,o),
(314,1107,o),
(422,1107,cs)
);
},
{
ref = jdotless;
}
);
width = 645;
},
{
layerId = "3D647E92-BB94-42FD-9C12-A678B6C1687F";
shapes = (
{
closed = 1;
nodes = (
(459,1182,o),
(499,1222,o),
(504,1280,cs),
(511,1340,o),
(477,1380,o),
(420,1380,cs),
(362,1380,o),
(321,1340,o),
(316,1280,cs),
(310,1218,o),
(346,1182,o),
(399,1182,cs)
);
},
{
alignment = -1;
ref = jdotless;
}
);
width = 565.9913;
}
);
unicode = 106;
},
{
glyphname = jdotless;
lastChange = "2020-10-22 18:07:07 +0000";
layers = (
{
anchors = (
{
name = bottom;
pos = (127,-504);
},
{
name = top;
pos = (330,939);
}
);
layerId = "AD226DB4-BE97-401A-8A1F-FC26A063DFB1";
shapes = (
{
closed = 1;
nodes = (
(143,-481,o),
(267,-392,o),
(290,-154,cs),
(394,943,l),
(328,943,l),
(221,-158,ls),
(201,-340,o),
(131,-417,o),
(12,-417,cs),
(-62,-417,o),
(-120,-387,o),
(-192,-328,c),
(-207,-394,l),
(-133,-453,o),
(-60,-481,o),
(13,-481,cs)
);
}
);
width = 527;
},
{
anchors = (
{
name = bottom;
pos = (183,-504);
},
{
name = top;
pos = (393,991);
}
);
layerId = "2146CDF3-509B-498B-BCC4-8BA41979C9D7";
shapes = (
{
closed = 1;
nodes = (
(313,-514,o),
(432,-397,o),
(460,-94,cs),
(564,995,l),
(268,995,l),
(169,-86,ls),
(158,-195,o),
(116,-226,o),
(45,-226,cs),
(-7,-226,o),
(-86,-203,o),
(-132,-183,c),
(-161,-466,l),
(-81,-492,o),
(-7,-514,o),
(97,-514,cs)
);
}
);
width = 645;
},
{
anchors = (
{
name = bottom;
pos = (146,-504);
},
{
name = top;
pos = (351,956);
}
);
layerId = "3D647E92-BB94-42FD-9C12-A678B6C1687F";
shapes = (
{
closed = 1;
nodes = (
(199,-492,o),
(322,-394,o),
(346,-134,cs),
(450,960,l),
(308,960,l),
(204,-134,ls),
(187,-292,o),
(126,-354,o),
(23,-354,cs),
(-44,-354,o),
(-109,-326,o),
(-172,-280,c),
(-192,-418,l),
(-116,-466,o),
(-42,-492,o),
(41,-492,cs)
);
}
);
width = 565.9913;
}
);
unicode = 567;
},
{
glyphname = k;
kernLeft = h;
lastChange = "2023-04-19 12:33:55 +0000";
layers = (
{
anchors = (
{
name = bottom;
pos = (432,0);
},
{
name = top;
pos = (690,1834);
}
);
layerId = "AD226DB4-BE97-401A-8A1F-FC26A063DFB1";
shapes = (
{
closed = 1;
nodes = (
(875,0,l),
(505,583,l),
(943,939,l),
(843,939,l),
(311,507,l),
(389,1351,l),
(325,1351,l),
(197,0,l),
(263,0,l),
(303,419,l),
(449,541,l),
(789,0,l)
);
}
);
width = 996;
},
{
anchors = (
{
name = bottom;
pos = (458,0);
},
{
name = top;
pos = (716,1834);
}
);
layerId = "2146CDF3-509B-498B-BCC4-8BA41979C9D7";
shapes = (
{
closed = 1;
nodes = (
(1125,0,l),
(787,629,l),
(1200,991,l),
(804,991,l),
(514,704,l),
(580,1384,l),
(279,1384,l),
(151,0,l),
(447,0,l),
(481,367,l),
(561,436,l),
(769,0,l)
);
}
);
width = 1056;
},
{
anchors = (
{
name = bottom;
pos = (441,0);
},
{
name = top;
pos = (699,1834);
}
);
layerId = "3D647E92-BB94-42FD-9C12-A678B6C1687F";
shapes = (
{
closed = 1;
nodes = (
(958,0,l),
(598,598,l),
(1028,956,l),
(830,956,l),
(378,572,l),
(452,1362,l),
(310,1362,l),
(182,0,l),
(324,0,l),
(362,402,l),
(486,506,l),
(782,0,l)
);
}
);
width = 1015.82609;
}
);
unicode = 107;
},
{
glyphname = l;
kernLeft = h;
lastChange = "2023-04-19 12:38:03 +0000";
layers = (
{
anchors = (
{
name = bottom;
pos = (162,0);
},
{
name = center;
pos = (291,917);
},
{
name = top;
pos = (371,1417);
},
{
name = topright;
pos = (589,1351);
}
);
layerId = "AD226DB4-BE97-401A-8A1F-FC26A063DFB1";
shapes = (
{
closed = 1;
nodes = (
(263,0,l),
(389,1351,l),
(325,1351,l),
(197,0,l)
);
}
);
width = 456;
},
{
anchors = (
{
name = bottom;
pos = (231,0);
},
{
name = center;
pos = (360,917);
},
{
name = top;
pos = (430,1364);
},
{
name = topright;
pos = (796,1384);
}
);
layerId = "2146CDF3-509B-498B-BCC4-8BA41979C9D7";
shapes = (
{
closed = 1;
nodes = (
(447,0,l),
(580,1384,l),
(279,1384,l),
(151,0,l)
);
}
);
width = 601;
},
{
anchors = (
{
name = bottom;
pos = (185,0);
},
{
name = center;
pos = (314,917);
},
{
name = top;
pos = (390,1399);
},
{
name = topright;
pos = (681,1362);
}
);
layerId = "3D647E92-BB94-42FD-9C12-A678B6C1687F";
shapes = (
{
closed = 1;
nodes = (
(324,0,l),
(452,1362,l),
(310,1362,l),
(182,0,l)
);
}
);
width = 503.91304;
}
);
unicode = 108;
},
{
glyphname = m;
kernLeft = n;
kernRight = n;
lastChange = "2023-04-19 12:36:08 +0000";
layers = (
{
anchors = (
{
name = bottom;
pos = (761,0);
},
{
name = top;
pos = (893,939);
}
);
layerId = "AD226DB4-BE97-401A-8A1F-FC26A063DFB1";
shapes = (
{
closed = 1;
nodes = (
(259,0,l),
(303,472,ls),
(326,721,o),
(439,899,o),
(635,899,cs),
(794,899,o),
(893,783,o),
(872,555,cs),
(820,0,l),
(880,0,l),
(924,490,l),
(958,728,o),
(1049,899,o),
(1245,899,cs),
(1413,899,o),
(1504,773,o),
(1483,555,cs),
(1429,0,l),
(1489,0,l),
(1541,555,ls),
(1569,819,o),
(1445,960,o),
(1255,960,cs),
(1107,960,o),
(994,875,o),
(930,709,c),
(902,871,o),
(799,960,o),
(647,960,cs),
(500,960,o),
(389,876,o),
(325,731,c),
(327,799,o),
(333,870,o),
(336,939,c),
(281,939,l),
(193,0,l)
);
}
);
width = 1654;
},
{
anchors = (
{
name = bottom;
pos = (800,0);
},
{
name = top;
pos = (940,991);
}
);
layerId = "2146CDF3-509B-498B-BCC4-8BA41979C9D7";
shapes = (
{
closed = 1;
nodes = (
(450,0,l),
(487,412,ls),
(509,637,o),
(603,721,o),
(695,721,cs),
(757,721,o),
(800,672,o),
(787,575,c),
(735,0,l),
(1038,0,l),
(1075,411,l),
(1088,640,o),
(1176,721,o),
(1267,721,cs),
(1327,721,o),
(1368,675,o),
(1362,575,cs),
(1311,0,l),
(1614,0,l),
(1666,575,ls),
(1687,832,o),
(1613,1020,o),
(1382,1020,cs),
(1262,1020,o),
(1149,973,o),
(1069,834,c),
(1028,946,o),
(945,1020,o),
(802,1020,cs),
(696,1020,o),
(599,967,o),
(522,849,c),
(518,898,o),
(511,942,o),
(506,991,c),
(248,991,l),
(154,0,l)
);
}
);
width = 1739;
},
{
anchors = (
{
name = bottom;
pos = (774,0);
},
{
name = top;
pos = (909,956);
}
);
layerId = "3D647E92-BB94-42FD-9C12-A678B6C1687F";
shapes = (
{
closed = 1;
nodes = (
(322,0,l),
(364,452,ls),
(386,693,o),
(493,840,o),
(655,840,cs),
(782,840,o),
(862,746,o),
(844,562,cs),
(792,0,l),
(932,0,l),
(974,464,ls),
(1001,699,o),
(1091,840,o),
(1252,840,cs),
(1385,840,o),
(1459,741,o),
(1443,562,cs),
(1390.009,0,l),
(1530,0,l),
(1582,562,ls),
(1608,823,o),
(1501,980,o),
(1297,980,cs),
(1158,980,o),
(1045,907,o),
(976,750,c),
(944,896,o),
(847,980,o),
(698,980,cs),
(565,980,o),
(458,906,o),
(390,770,c),
(390,832,o),
(392,894,o),
(392,956,c),
(270,956,l),
(180,0,l)
);
}
);
width = 1682.08696;
}
);
unicode = 109;
},
{
glyphname = n;
kernLeft = n;
kernRight = n;
lastChange = "2023-04-19 12:36:05 +0000";
layers = (
{
anchors = (
{
name = bottom;
pos = (458,0);
},
{
name = top;
pos = (590,939);
}
);
layerId = "AD226DB4-BE97-401A-8A1F-FC26A063DFB1";
shapes = (
{
closed = 1;
nodes = (
(259,0,l),
(303,472,ls),
(326,721,o),
(439,899,o),
(635,899,cs),
(794,899,o),
(893,783,o),
(872,555,cs),
(820,0,l),
(880,0,l),
(932,555,ls),
(960,819,o),
(838,960,o),
(647,960,cs),
(500,960,o),
(389,876,o),
(325,731,c),
(336,939,l),
(281,939,l),
(193,0,l)
);
}
);
width = 1047;
},
{
anchors = (
{
name = bottom;
pos = (513,0);
},
{
name = top;
pos = (653,991);
}
);
layerId = "2146CDF3-509B-498B-BCC4-8BA41979C9D7";
shapes = (
{
closed = 1;
nodes = (
(450,0,l),
(487,412,ls),
(509,637,o),
(603,721,o),
(695,721,cs),
(757,721,o),
(800,672,o),
(787,575,c),
(735,0,l),
(1038,0,l),
(1090,575,ls),
(1111,832,o),
(1032,1020,o),
(802,1020,cs),
(696,1020,o),
(599,967,o),
(522,849,c),
(506,991,l),
(248,991,l),
(154,0,l)
);
}
);
width = 1165;
},
{
anchors = (
{
name = bottom;
pos = (476,0);
},
{
name = top;
pos = (611,956);
}
);
layerId = "3D647E92-BB94-42FD-9C12-A678B6C1687F";
shapes = (
{
closed = 1;
nodes = (
(322,0,l),
(364,452,ls),
(386,693,o),
(493,840,o),
(655,840,cs),
(782,840,o),
(862,746,o),
(844,562,cs),
(792,0,l),
(932,0,l),
(984,562,ls),
(1010,823,o),
(902,980,o),
(698,980,cs),
(565,980,o),
(458,906,o),
(390,770,c),
(392,956,l),
(270,956,l),
(180,0,l)
);
}
);
width = 1085.9913;
}
);
unicode = 110;
},
{
glyphname = eng;
kernLeft = n;
kernRight = n;
lastChange = "2023-04-19 12:36:05 +0000";
layers = (
{
anchors = (
{
name = bottom;
pos = (1174,-504);
},
{
name = top;
pos = (1377,939);
}
);
layerId = "AD226DB4-BE97-401A-8A1F-FC26A063DFB1";
shapes = (
{
closed = 1;
nodes = (
(720,-481,o),
(845,-393,o),
(867,-154,cs),
(934,555,ls),
(958,812,o),
(842,960,o),
(647,960,cs),
(500,960,o),
(389,876,o),
(325,731,c),
(336,939,l),
(281,939,l),
(193,0,l),
(259,0,l),
(303,472,ls),
(326,721,o),
(439,899,o),
(635,899,cs),
(798,899,o),
(893,777,o),
(872,555,cs),
(805,-158,ls),
(788,-341,o),
(708,-417,o),
(589,-417,cs),
(515,-417,o),
(457,-387,o),
(385,-328,c),
(370,-394,l),
(444,-453,o),
(517,-481,o),
(590,-481,cs)
);
}
);
width = 1104;
},
{
anchors = (
{
name = bottom;
pos = (1347,-504);
},
{
name = top;
pos = (1557,991);
}
);
layerId = "2146CDF3-509B-498B-BCC4-8BA41979C9D7";
shapes = (
{
closed = 1;
nodes = (
(880,-514,o),
(998,-397,o),
(1027,-94,cs),
(1090,575,ls),
(1114,832,o),
(1029,1020,o),
(808,1020,cs),
(701,1020,o),
(606,976,o),
(522,849,c),
(506,991,l),
(248,991,l),
(154,0,l),
(450,0,l),
(487,412,ls),
(508,643,o),
(608,721,o),
(692,721,cs),
(761,721,o),
(795,669,o),
(787,575,cs),
(730,-86,ls),
(721,-195,o),
(680,-226,o),
(613,-226,cs),
(556,-226,o),
(479,-203,o),
(433,-183,c),
(404,-466,l),
(484,-492,o),
(560,-514,o),
(657,-514,cs)
);
}
);
width = 1212;
},
{
anchors = (
{
name = bottom;
pos = (1231,-504);
},
{
name = top;
pos = (1436,956);
}
);
layerId = "3D647E92-BB94-42FD-9C12-A678B6C1687F";
shapes = (
{
closed = 1;
nodes = (
(773,-492,o),
(896,-394,o),
(920,-134,cs),
(986,562,ls),
(1010,819,o),
(904,980,o),
(700,980,cs),
(566,980,o),
(461,909,o),
(390,770,c),
(392,956,l),
(270,956,l),
(180,0,l),
(322,0,l),
(364,452,ls),
(386,695,o),
(495,840,o),
(654,840,cs),
(786,840,o),
(861,741,o),
(844,562,cs),
(780,-134,ls),
(766,-293,o),
(699,-354,o),
(597,-354,cs),
(529,-354,o),
(464,-326,o),
(401,-280,c),
(381,-418,l),
(457,-466,o),
(531,-492,o),
(612,-492,cs)
);
}
);
width = 1139.68696;
}
);
metricLeft = n;
metricRight = j;
unicode = 331;
},
{
glyphname = o;
kernLeft = o;
kernRight = o;
lastChange = "2023-04-19 12:33:55 +0000";
layers = (
{
anchors = (
{
name = bottom;
pos = (406,0);
},
{
name = center;
pos = (472,470);
},
{
name = ogonek;
pos = (784,10);
},
{
name = top;
pos = (538,939);
},
{
name = topright;
pos = (989,939);
}
);
layerId = "AD226DB4-BE97-401A-8A1F-FC26A063DFB1";
shapes = (
{
closed = 1;
nodes = (
(697,-15,o),
(863,163,o),
(892,471,cs),
(921,774,o),
(794,960,o),
(562,960,cs),
(334,960,o),
(169,781,o),
(138,471,cs),
(107,160,o),
(240,-15,o),
(468,-15,cs)
);
},
{
closed = 1;
nodes = (
(259,45,o),
(189,224,o),
(212,471,cs),
(236,729,o),
(345,898,o),
(553,898,cs),
(764,898,o),
(849,724,o),
(824,471,cs),
(799,219,o),
(680,45,o),
(471,45,cs)
);
}
);
width = 943;
},
{
anchors = (
{
name = bottom;
pos = (461,0);
},
{
name = center;
pos = (531,496);
},
{
name = ogonek;
pos = (577,10);
},
{
name = top;
pos = (671,991);
},
{
name = topright;
pos = (1111,991);
}
);
layerId = "2146CDF3-509B-498B-BCC4-8BA41979C9D7";
shapes = (
{
closed = 1;
nodes = (
(772,-35,o),
(994,131,o),
(1031,491,cs),
(1065,863,o),
(868,1020,o),
(628,1020,cs),
(385,1020,o),
(158,861,o),
(125,491,cs),
(93,132,o),
(283,-35,o),
(532,-35,cs)
);
},
{
closed = 1;
nodes = (
(471,255,o),
(401,317,o),
(420,491,cs),
(438,669,o),
(533,734,o),
(614,734,cs),
(692,734,o),
(750,671,o),
(733,491,cs),
(715,318,o),
(627,255,o),
(548,255,cs)
);
}
);
width = 1061;
},
{
anchors = (
{
name = bottom;
pos = (424,0);
},
{
name = center;
pos = (491,479);
},
{
name = ogonek;
pos = (716,10);
},
{
name = top;
pos = (582,956);
},
{
name = topright;
pos = (1029,956);
}
);
layerId = "3D647E92-BB94-42FD-9C12-A678B6C1687F";
shapes = (
{
closed = 1;
nodes = (
(722,-22,o),
(906,152,o),
(938,478,cs),
(969,803,o),
(818,980,o),
(584,980,cs),
(351,980,o),
(165,807,o),
(134,478,cs),
(102,151,o),
(254,-22,o),
(489,-22,cs)
);
},
{
closed = 1;
nodes = (
(329,114,o),
(259,255,o),
(281,478,cs),
(303,709,o),
(407,844,o),
(573,844,cs),
(740,844,o),
(816,706,o),
(794,478,cs),
(771,252,o),
(662,114,o),
(496,114,cs)
);
}
);
width = 981.9913;
}
);
unicode = 111;
},
{
glyphname = oslash;
kernLeft = o;
kernRight = o;
lastChange = "2023-04-19 12:33:55 +0000";
layers = (
{
layerId = "AD226DB4-BE97-401A-8A1F-FC26A063DFB1";
shapes = (
{
closed = 1;
nodes = (
(120,0,l),
(962,940,l),
(882,940,l),
(44,0,l)
);
},
{
ref = o;
}
);
width = 943;
},
{
layerId = "2146CDF3-509B-498B-BCC4-8BA41979C9D7";
shapes = (
{
closed = 1;
nodes = (
(204,0,l),
(1163,989,l),
(955,989,l),
(-1,0,l)
);
},
{
ref = o;
}
);
width = 1061;
},
{
layerId = "3D647E92-BB94-42FD-9C12-A678B6C1687F";
shapes = (
{
closed = 1;
nodes = (
(156,0,l),
(1009,957,l),
(863,957,l),
(14,0,l)
);
},
{
ref = o;
}
);
width = 982;
}
);
unicode = 248;
},
{
glyphname = oe;
kernLeft = o;
kernRight = o;
lastChange = "2023-04-19 12:56:47 +0000";
layers = (
{
anchors = (
{
name = bottom;
pos = (1135.9,0);
},
{
name = center;
pos = (455.4,470);
},
{
name = ogonek;
pos = (1100.75,11);
},
{
name = top;
pos = (1147.3,939);
},
{
name = topright;
pos = (946.55,939);
}
);
layerId = "AD226DB4-BE97-401A-8A1F-FC26A063DFB1";
shapes = (
{
closed = 1;
nodes = (
(669,-15,o),
(827,163,o),
(854,471,cs),
(882,774,o),
(761,960,o),
(541,960,cs),
(324,960,o),
(168,781,o),
(138,471,cs),
(109,160,o),
(235,-15,o),
(452,-15,cs)
);
},
{
closed = 1;
nodes = (
(253,45,o),
(187,224,o),
(208,471,cs),
(231,729,o),
(335,898,o),
(532,898,cs),
(733,898,o),
(814,724,o),
(790,471,cs),
(766,219,o),
(653,45,o),
(454,45,cs)
);
},
{
closed = 1;
nodes = (
(1250,-15,o),
(1385,72,o),
(1431,269,c),
(1363,269,l),
(1334,124,o),
(1238,45,o),
(1106,45,cs),
(897,45,o),
(833,244,o),
(858,490,c),
(811,462,l),
(1439,462,l),
(1450,518,o),
(1456,583,o),
(1456,630,cs),
(1456,824,o),
(1360,960,o),
(1182,960,cs),
(972,960,o),
(819,773,o),
(790,465,cs),
(762,155,o),
(883,-15,o),
(1097,-15,cs)
);
},
{
closed = 1;
nodes = (
(883,709,o),
(989,902,o),
(1182,902,cs),
(1371,902,o),
(1413,717,o),
(1387,509,c),
(1433,514,l),
(822,514,l),
(856,502,l)
);
}
);
width = 1514;
},
{
anchors = (
{
name = bottom;
pos = (1172,0);
},
{
name = center;
pos = (531,496);
},
{
name = ogonek;
pos = (1135,10);
},
{
name = top;
pos = (1173,991);
},
{
name = topright;
pos = (1111,991);
}
);
layerId = "2146CDF3-509B-498B-BCC4-8BA41979C9D7";
shapes = (
{
closed = 1;
nodes = (
(772,-35,o),
(994,131,o),
(1031,491,cs),
(1065,863,o),
(868,1020,o),
(628,1020,cs),
(385,1020,o),
(158,861,o),
(125,491,cs),
(93,132,o),
(283,-35,o),
(532,-35,cs)
);
},
{
closed = 1;
nodes = (
(471,255,o),
(401,317,o),
(420,491,cs),
(438,669,o),
(533,734,o),
(614,734,cs),
(692,734,o),
(750,671,o),
(733,491,cs),
(715,318,o),
(627,255,o),
(548,255,cs)
);
},
{
closed = 1;
nodes = (
(1339,-35,o),
(1505,118,o),
(1547,302,c),
(1251,302,l),
(1231,251,o),
(1188,229,o),
(1144,229,cs),
(1042,229,o),
(997,318,o),
(1021,451,c),
(972,409,l),
(1555,409,l),
(1560,433,o),
(1566,450,o),
(1573,478,c),
(1609,745,o),
(1511,1020,o),
(1219,1020,cs),
(990,1020,o),
(764,825,o),
(734,498,cs),
(704,188,o),
(892,-35,o),
(1120,-35,cs)
);
},
{
closed = 1;
nodes = (
(1042,684,o),
(1107,757,o),
(1195,757,cs),
(1305,757,o),
(1317,653,o),
(1303,564,c),
(1352,607,l),
(991,607,l),
(1033,564,l)
);
}
);
width = 1597;
},
{
anchors = (
{
name = bottom;
pos = (1146,0);
},
{
name = center;
pos = (479,479);
},
{
name = ogonek;
pos = (1110,11);
},
{
name = top;
pos = (1154,956);
},
{
name = topright;
pos = (999,956);
}
);
layerId = "3D647E92-BB94-42FD-9C12-A678B6C1687F";
shapes = (
{
closed = 1;
nodes = (
(702,-22,o),
(880,152,o),
(911,478,cs),
(941,803,o),
(795,980,o),
(568,980,cs),
(343,980,o),
(163,807,o),
(134,478,cs),
(103,151,o),
(249,-22,o),
(477,-22,cs)
);
},
{
closed = 1;
nodes = (
(322,114,o),
(254,255,o),
(276,478,cs),
(297,709,o),
(397,844,o),
(558,844,cs),
(719,844,o),
(793,706,o),
(771,478,cs),
(749,252,o),
(644,114,o),
(483,114,cs)
);
},
{
closed = 1;
nodes = (
(1277,-22,o),
(1422,87,o),
(1466,280,c),
(1325,280,l),
(1299,166,o),
(1220,106,o),
(1116,106,cs),
(941,106,o),
(884,268,o),
(908,477,c),
(860,444,l),
(1474,444,l),
(1484,490,o),
(1490,539,o),
(1492,580,cs),
(1503,798,o),
(1406,980,o),
(1192,980,cs),
(975,980,o),
(800,790,o),
(771,476,cs),
(742,166,o),
(885,-22,o),
(1103,-22,cs)
);
},
{
closed = 1;
nodes = (
(932,701,o),
(1025,854,o),
(1184,854,cs),
(1348,854,o),
(1381,696,o),
(1358,527,c),
(1406,545,l),
(874,545,l),
(911,522,l)
);
}
);
width = 1539;
}
);
metricLeft = o;
metricRight = e;
unicode = 339;
},
{
glyphname = p;
lastChange = "2020-02-19 16:24:59 +0000";
layers = (
{
anchors = (
{
name = bottom;
pos = (454,0);
},
{
name = top;
pos = (586,939);
}
);
layerId = "AD226DB4-BE97-401A-8A1F-FC26A063DFB1";
shapes = (
{
closed = 1;
nodes = (
(217,-466,l),
(278,157,l),
(322,48,o),
(414,-15,o),
(530,-15,cs),
(729,-15,o),
(921,170,o),
(949,473,cs),
(977,777,o),
(821,960,o),
(626,960,cs),
(509,960,o),
(404,894,o),
(334,777,c),
(336,830,o),
(336,886,o),
(338,939,c),
(285,939,l),
(151,-466,l)
);
},
{
closed = 1;
nodes = (
(416,44,o),
(277,160,o),
(296,384,cs),
(313,556,ls),
(335,783,o),
(479,899,o),
(620,899,cs),
(780,899,o),
(903,748,o),
(877,473,cs),
(850,193,o),
(693,44,o),
(546,44,cs)
);
}
);
width = 1040;
},
{
anchors = (
{
name = bottom;
pos = (496,0);
},
{
name = top;
pos = (636,991);
}
);
layerId = "2146CDF3-509B-498B-BCC4-8BA41979C9D7";
shapes = (
{
closed = 1;
nodes = (
(401,-479,l),
(448,32,l),
(492,-18,o),
(553,-35,o),
(643,-35,cs),
(866,-35,o),
(1090,157,o),
(1121,493,cs),
(1152,827,o),
(967,1020,o),
(754,1020,cs),
(659,1020,o),
(568,979,o),
(504,876,c),
(500,915,o),
(494,952,o),
(489,991,c),
(246,991,l),
(105,-479,l)
);
},
{
closed = 1;
nodes = (
(504,268,o),
(477,324,o),
(485,397,cs),
(501,556,ls),
(509,655,o),
(578,721,o),
(670,721,cs),
(780,721,o),
(838,630,o),
(825,493,cs),
(809,335,o),
(696,268,o),
(617,268,cs)
);
}
);
width = 1132;
},
{
anchors = (
{
name = bottom;
pos = (468,0);
},
{
name = top;
pos = (603,956);
}
);
layerId = "3D647E92-BB94-42FD-9C12-A678B6C1687F";
shapes = (
{
closed = 1;
nodes = (
(278,-470,l),
(334,116,l),
(378,26,o),
(460,-22,o),
(567,-22,cs),
(774,-22,o),
(977,166,o),
(1006,480,cs),
(1035,794,o),
(869,980,o),
(668,980,cs),
(559,980,o),
(458,922,o),
(390,810,c),
(390,858,o),
(388,908,o),
(388,956,c),
(272,956,l),
(136,-470,l)
);
},
{
closed = 1;
nodes = (
(445,118,o),
(343,214,o),
(358,388,cs),
(375,556,ls),
(392,741,o),
(512,840,o),
(637,840,cs),
(780,840,o),
(882,709,o),
(860,480,cs),
(836,240,o),
(694,118,o),
(569,118,cs)
);
}
);
width = 1070.4;
}
);
unicode = 112;
},
{
glyphname = thorn;
lastChange = "2020-02-19 16:24:59 +0000";
layers = (
{
guides = (
{
pos = (357,1236);
},
{
angle = 264.552;
pos = (278,157);
}
);
layerId = "AD226DB4-BE97-401A-8A1F-FC26A063DFB1";
shapes = (
{
closed = 1;
nodes = (
(217,-466,l),
(278,157,l),
(322,48,o),
(414,-15,o),
(530,-15,cs),
(729,-15,o),
(921,170,o),
(949,473,cs),
(977,776,o),
(822,960,o),
(626,960,cs),
(499,960,o),
(387,883,o),
(317,747,c),
(334,747,l),
(381,1236,l),
(313,1236,l),
(151,-466,l)
);
},
{
closed = 1;
nodes = (
(415,44,o),
(276,161,o),
(297,384,cs),
(313,556,ls),
(335,786,o),
(482,899,o),
(620,899,cs),
(780,899,o),
(903,748,o),
(877,473,cs),
(850,193,o),
(693,44,o),
(546,44,cs)
);
}
);
width = 1040;
},
{
guides = (
{
pos = (432,1298);
},
{
angle = 84.5353;
pos = (401,-479);
}
);
layerId = "2146CDF3-509B-498B-BCC4-8BA41979C9D7";
shapes = (
{
closed = 1;
nodes = (
(401,-479,l),
(448,32,l),
(492,-18,o),
(553,-35,o),
(643,-35,cs),
(866,-35,o),
(1090,157,o),
(1121,493,cs),
(1152,827,o),
(967,1020,o),
(754,1020,cs),
(650,1020,o),
(550,970,o),
(486,843,c),
(527,843,l),
(575,1346,l),
(279,1346,l),
(105,-479,l)
);
},
{
closed = 1;
nodes = (
(504,268,o),
(477,324,o),
(485,397,cs),
(501,556,ls),
(509,655,o),
(578,721,o),
(670,721,cs),
(780,721,o),
(838,630,o),
(825,493,cs),
(809,335,o),
(696,268,o),
(617,268,cs)
);
}
);
width = 1132;
},
{
layerId = "3D647E92-BB94-42FD-9C12-A678B6C1687F";
shapes = (
{
closed = 1;
nodes = (
(278,-470,l),
(334,116,l),
(378,26,o),
(460,-22,o),
(567,-22,cs),
(774,-22,o),
(977,166,o),
(1006,480,cs),
(1035,793,o),
(870,980,o),
(668,980,cs),
(549,980,o),
(441,912,o),
(373,779,c),
(398,779,l),
(445,1272,l),
(302,1272,l),
(136,-470,l)
);
},
{
closed = 1;
nodes = (
(444,118,o),
(342,215,o),
(359,388,cs),
(375,556,ls),
(392,743,o),
(514,840,o),
(637,840,cs),
(780,840,o),
(882,709,o),
(860,480,cs),
(836,240,o),
(694,118,o),
(569,118,cs)
);
}
);
width = 1070.4;
}
);
unicode = 254;
},
{
glyphname = q;
lastChange = "2020-10-22 18:07:07 +0000";
layers = (
{
anchors = (
{
name = bottom;
pos = (435,0);
},
{
name = top;
pos = (567,939);
}
);
layerId = "AD226DB4-BE97-401A-8A1F-FC26A063DFB1";
shapes = (
{
closed = 1;
nodes = (
(908,-413,l),
(796,-368,o),
(772,-329,o),
(787,-175,cs),
(893,939,l),
(838,939,l),
(809,772,l),
(773,891,o),
(678,960,o),
(559,960,cs),
(366,960,o),
(173,777,o),
(143,473,cs),
(114,173,o),
(267,-15,o),
(462,-15,cs),
(584,-15,o),
(695,59,o),
(757,182,c),
(725,-174,ls),
(705,-355,o),
(740,-435,o),
(873,-481,c)
);
},
{
closed = 1;
nodes = (
(319,44,o),
(189,189,o),
(216,473,cs),
(243,751,o),
(397,899,o),
(548,899,cs),
(669,899,o),
(790,806,o),
(801,619,c),
(778,384,ls),
(757,164,o),
(612,44,o),
(472,44,cs)
);
}
);
width = 1002;
},
{
anchors = (
{
name = bottom;
pos = (507,0);
},
{
name = top;
pos = (647,991);
}
);
layerId = "2146CDF3-509B-498B-BCC4-8BA41979C9D7";
shapes = (
{
closed = 1;
nodes = (
(1078,-282,l),
(1003,-257,o),
(981,-232,o),
(990,-136,cs),
(1096,991,l),
(910,991,l),
(829,851,l),
(778,971,o),
(687,1020,o),
(587,1020,cs),
(372,1020,o),
(153,827,o),
(123,493,cs),
(93,156,o),
(281,-35,o),
(506,-35,cs),
(612,-35,o),
(668,13,o),
(711,97,c),
(692,-108,ls),
(672,-328,o),
(753,-455,o),
(978,-514,c)
);
},
{
closed = 1;
nodes = (
(498,268,o),
(401,337,o),
(418,493,cs),
(433,629,o),
(506,721,o),
(620,721,cs),
(721,721,o),
(761,645,o),
(749,520,cs),
(737,397,ls),
(729,320,o),
(654,268,o),
(580,268,cs)
);
}
);
width = 1153;
},
{
anchors = (
{
name = bottom;
pos = (459,0);
},
{
name = top;
pos = (593,956);
}
);
layerId = "3D647E92-BB94-42FD-9C12-A678B6C1687F";
shapes = (
{
closed = 1;
nodes = (
(964,-370,l),
(864,-331,o),
(841,-297,o),
(854,-162,cs),
(960,956,l),
(862,956,l),
(816,798,l),
(775,917,o),
(681,980,o),
(568,980,cs),
(368,980,o),
(166,794,o),
(136,480,cs),
(107,167,o),
(272,-22,o),
(477,-22,cs),
(593,-22,o),
(686,44,o),
(742,154,c),
(714,-152,ls),
(694,-346,o),
(744,-442,o),
(908,-492,c)
);
},
{
closed = 1;
nodes = (
(378,118,o),
(259,238,o),
(283,480,cs),
(306,711,o),
(433,840,o),
(572,840,cs),
(686,840,o),
(780,753,o),
(784,586,c),
(764,388,ls),
(748,216,o),
(626,118,o),
(508,118,cs)
);
}
);
width = 1051.89565;
}
);
unicode = 113;
},
{
glyphname = r;
kernLeft = r;
kernRight = r;
lastChange = "2023-04-19 12:33:55 +0000";
layers = (
{
anchors = (
{
name = bottom;
pos = (244,0);
},
{
name = top;
pos = (376,939);
}
);
layerId = "AD226DB4-BE97-401A-8A1F-FC26A063DFB1";
shapes = (
{
closed = 1;
nodes = (
(259,0,l),
(296,439,ls),
(318,698,o),
(381,898,o),
(549,898,cs),
(590,898,o),
(632,886,o),
(672,869,c),
(690,934,l),
(651,953,o),
(605,957,o),
(574,957,cs),
(457,957,o),
(384,900,o),
(329,769,c),
(347,941,l),
(281,941,l),
(193,0,l)
);
}
);
width = 619;
},
{
anchors = (
{
name = bottom;
pos = (341,0);
},
{
name = top;
pos = (481,991);
}
);
layerId = "2146CDF3-509B-498B-BCC4-8BA41979C9D7";
shapes = (
{
closed = 1;
nodes = (
(450,0,l),
(492,419,ls),
(510,605,o),
(606,668,o),
(726,668,cs),
(751,668,o),
(783,669,o),
(811,666,c),
(841,1000,l),
(825,1003,o),
(811,1009,o),
(790,1009,cs),
(698,1009,o),
(596,937,o),
(526,789,c),
(544,993,l),
(248,993,l),
(154,0,l)
);
}
);
width = 822;
},
{
anchors = (
{
name = bottom;
pos = (276,0);
},
{
name = top;
pos = (411,956);
}
);
layerId = "3D647E92-BB94-42FD-9C12-A678B6C1687F";
shapes = (
{
closed = 1;
nodes = (
(322,0,l),
(361,432,ls),
(381,667,o),
(455,822,o),
(607,822,cs),
(643,822,o),
(682,814,o),
(718,802,c),
(740,956,l),
(708,970,o),
(673,974,o),
(645,974,cs),
(537,974,o),
(454,912,o),
(394,776,c),
(412,958,l),
(270,958,l),
(180,0,l)
);
}
);
width = 686.07826;
}
);
unicode = 114;
},
{
glyphname = s;
kernLeft = s;
kernRight = s;
lastChange = "2023-04-19 12:33:55 +0000";
layers = (
{
anchors = (
{
name = bottom;
pos = (536,0);
},
{
name = top;
pos = (568,939);
}
);
layerId = "AD226DB4-BE97-401A-8A1F-FC26A063DFB1";
shapes = (
{
closed = 1;
nodes = (
(691,-15,o),
(816,102,o),
(832,239,cs),
(847,366,o),
(763,443,o),
(613,489,cs),
(483,529,ls),
(360,567,o),
(288,628,o),
(301,725,cs),
(312,809,o),
(385,902,o),
(556,902,cs),
(684,902,o),
(772,849,o),
(777,743,c),
(848,743,l),
(853,868,o),
(741,960,o),
(557,960,cs),
(365,960,o),
(248,860,o),
(233,720,cs),
(219,593,o),
(299,519,o),
(447,469,cs),
(586,422,ls),
(709,380,o),
(777,336,o),
(766,239,cs),
(752,119,o),
(631,41,o),
(484,41,cs),
(330,41,o),
(216,127,o),
(222,267,c),
(154,267,l),
(150,121,o),
(245,-15,o),
(476,-15,cs)
);
}
);
width = 944;
},
{
anchors = (
{
name = bottom;
pos = (505,10);
},
{
name = top;
pos = (545,991);
}
);
layerId = "2146CDF3-509B-498B-BCC4-8BA41979C9D7";
shapes = (
{
closed = 1;
nodes = (
(740,-35,o),
(904,133,o),
(917,291,cs),
(927,414,o),
(846,493,o),
(744,541,cs),
(503,654,ls),
(484,663,o),
(456,677,o),
(459,705,cs),
(462,740,o),
(505,763,o),
(562,763,cs),
(627,763,o),
(655,733,o),
(652,691,c),
(927,691,l),
(941,879,o),
(836,1020,o),
(574,1020,cs),
(344,1020,o),
(166,911,o),
(147,726,cs),
(134,601,o),
(200,500,o),
(316,449,cs),
(526,356,ls),
(553,344,o),
(589,328,o),
(584,291,cs),
(580,260,o),
(550,225,o),
(465,225,cs),
(391,225,o),
(356,252,o),
(367,313,c),
(94,313,l),
(63,70,o),
(262,-35,o),
(473,-35,cs)
);
}
);
width = 950;
},
{
anchors = (
{
name = bottom;
pos = (526,3);
},
{
name = top;
pos = (560,956);
}
);
layerId = "3D647E92-BB94-42FD-9C12-A678B6C1687F";
shapes = (
{
closed = 1;
nodes = (
(707,-22,o),
(845,112,o),
(860,256,cs),
(873,382,o),
(790,460,o),
(656,506,cs),
(490,570,l),
(401,599,o),
(344,644,o),
(353,718,cs),
(362,786,o),
(425,856,o),
(558,856,cs),
(665,856,o),
(733,811,o),
(736,726,c),
(874,726,l),
(882,872,o),
(772,980,o),
(563,980,cs),
(358,980,o),
(221,877,o),
(205,722,cs),
(191,596,o),
(266,513,o),
(404,462,cs),
(566,400,ls),
(657,368,o),
(715,333,o),
(706,256,cs),
(695,166,o),
(604,102,o),
(478,102,cs),
(350,102,o),
(262,168,o),
(270,282,c),
(134,282,l),
(121,104,o),
(251,-22,o),
(475,-22,cs)
);
}
);
width = 945.98261;
}
);
unicode = 115;
},
{
glyphname = germandbls;
lastChange = "2020-02-19 16:24:59 +0000";
layers = (
{
layerId = "AD226DB4-BE97-401A-8A1F-FC26A063DFB1";
shapes = (
{
closed = 1;
nodes = (
(791,-19,o),
(926,105,o),
(926,268,cs),
(926,489,o),
(677,581,o),
(677,701,cs),
(677,801,o),
(848,896,o),
(848,1073,cs),
(848,1197,o),
(764,1320,o),
(592,1320,cs),
(408,1320,o),
(289,1179,o),
(266,925,cs),
(182,0,l),
(242,0,l),
(327,924,ls),
(350,1174,o),
(467,1260,o),
(591,1260,cs),
(710,1260,o),
(788,1180,o),
(788,1070,cs),
(788,906,o),
(617,816,o),
(617,691,cs),
(617,541,o),
(863,473,o),
(863,264,cs),
(863,121,o),
(747,38,o),
(657,38,cs),
(614,38,o),
(547,57,o),
(491,87,c),
(466,36,l),
(530,1,o),
(603,-19,o),
(657,-19,cs)
);
}
);
width = 1037;
},
{
guides = (
{
angle = 84.1019;
pos = (417,0);
}
);
layerId = "2146CDF3-509B-498B-BCC4-8BA41979C9D7";
shapes = (
{
closed = 1;
nodes = (
(1091,-28,o),
(1249,122,o),
(1249,325,cs),
(1249,586,o),
(990,593,o),
(990,697,cs),
(990,791,o),
(1199,848,o),
(1199,1057,cs),
(1199,1206,o),
(1094,1400,o),
(754,1400,cs),
(475,1400,o),
(249,1237,o),
(221,968,cs),
(121,0,l),
(417,0,l),
(509,894,ls),
(525,1049,o),
(584,1106,o),
(728,1106,cs),
(856,1106,o),
(903,1052,o),
(903,988,cs),
(903,852,o),
(693,809,o),
(693,671,cs),
(693,516,o),
(955,498,o),
(955,363,cs),
(955,292,o),
(882,258,o),
(779,258,cs),
(695,258,o),
(638,280,o),
(575,312,c),
(555,26,l),
(638,-15,o),
(723,-28,o),
(807,-28,cs)
);
}
);
width = 1281;
},
{
layerId = "3D647E92-BB94-42FD-9C12-A678B6C1687F";
shapes = (
{
closed = 1;
nodes = (
(890,-22,o),
(1033,111,o),
(1033,287,cs),
(1033,521,o),
(780,585,o),
(780,700,cs),
(780,798,o),
(964,880,o),
(964,1068,cs),
(964,1200,o),
(873,1346,o),
(646,1346,cs),
(430,1346,o),
(276,1198,o),
(251,939,cs),
(162,0,l),
(300,0,l),
(387,914,ls),
(408,1133,o),
(506,1209,o),
(636,1209,cs),
(758,1209,o),
(826,1138,o),
(826,1043,cs),
(826,888,o),
(642,814,o),
(642,684,cs),
(642,533,o),
(893,481,o),
(893,297,cs),
(893,178,o),
(792,111,o),
(697,111,cs),
(641,111,o),
(577,131,o),
(519,161,c),
(495,33,l),
(566,-4,o),
(643,-22,o),
(707,-22,cs)
);
}
);
width = 1117.62609;
}
);
metricLeft = l;
metricRight = s;
unicode = 223;
},
{
glyphname = t;
kernLeft = t;
kernRight = t;
lastChange = "2023-04-19 12:35:49 +0000";
layers = (
{
anchors = (
{
name = bottom;
pos = (457,0);
},
{
name = center;
pos = (320,470);
},
{
name = top;
pos = (456,1059);
},
{
name = topright;
pos = (604,1351);
}
);
layerId = "AD226DB4-BE97-401A-8A1F-FC26A063DFB1";
shapes = (
{
closed = 1;
nodes = (
(484,-15,o),
(542,-2,o),
(604,32,c),
(600,86,l),
(540,60,o),
(487,45,o),
(431,45,cs),
(339,45,o),
(291,105,o),
(302,220,cs),
(368,905,l),
(319,885,l),
(668,885,l),
(676,939,l),
(326,939,l),
(366,894,l),
(400,1215,l),
(334,1215,l),
(300,894,l),
(350,939,l),
(154,939,l),
(142,885,l),
(347,885,l),
(306,905,l),
(244,224,ls),
(229,62,o),
(300,-15,o),
(429,-15,cs)
);
}
);
width = 639;
},
{
anchors = (
{
name = bottom;
pos = (516,0);
},
{
name = center;
pos = (376,496);
},
{
name = top;
pos = (506,1111);
},
{
name = topright;
pos = (801,1543);
}
);
layerId = "2146CDF3-509B-498B-BCC4-8BA41979C9D7";
shapes = (
{
closed = 1;
nodes = (
(558,-35,o),
(621,-8,o),
(695,19,c),
(672,250,l),
(619,230,o),
(584,223,o),
(561,223,cs),
(501,223,o),
(479,248,o),
(485,311,cs),
(532,833,l),
(483,780,l),
(728,780,l),
(748,991,l),
(504,991,l),
(545,946,l),
(570,1235,l),
(274,1235,l),
(249,946,l),
(298,991,l),
(148,991,l),
(129,780,l),
(275,780,l),
(234,833,l),
(184,296,ls),
(163,68,o),
(304,-35,o),
(473,-35,cs)
);
}
);
width = 751;
},
{
anchors = (
{
name = bottom;
pos = (476,0);
},
{
name = center;
pos = (339,479);
},
{
name = top;
pos = (473,1076);
},
{
name = topright;
pos = (665,1405);
}
);
layerId = "3D647E92-BB94-42FD-9C12-A678B6C1687F";
shapes = (
{
closed = 1;
nodes = (
(508,-22,o),
(568,-4,o),
(634,28,c),
(624,140,l),
(566,116,o),
(519,104,o),
(474,104,cs),
(393,104,o),
(353,152,o),
(362,250,cs),
(422,881,l),
(373,850,l),
(688,850,l),
(700,956,l),
(385,956,l),
(425,911,l),
(456,1222,l),
(314,1222,l),
(283,911,l),
(333,956,l),
(152,956,l),
(138,850,l),
(323,850,l),
(282,881,l),
(224,248,ls),
(207,64,o),
(301,-22,o),
(444,-22,cs)
);
}
);
width = 676.0087;
}
);
unicode = 116;
},
{
glyphname = tbar;
kernLeft = t;
kernRight = t;
lastChange = "2023-04-19 12:35:49 +0000";
layers = (
{
anchors = (
{
name = top;
pos = (391.067,724.04);
}
);
layerId = "AD226DB4-BE97-401A-8A1F-FC26A063DFB1";
shapes = (
{
closed = 1;
nodes = (
(644,666,l),
(653,724,l),
(133,724,l),
(123,666,l)
);
},
{
ref = t;
}
);
width = 639;
},
{
anchors = (
{
name = top;
pos = (422.174,681.816);
}
);
layerId = "2146CDF3-509B-498B-BCC4-8BA41979C9D7";
shapes = (
{
closed = 1;
nodes = (
(699,469,l),
(728,682,l),
(117,682,l),
(88,469,l)
);
},
{
ref = t;
}
);
width = 751;
},
{
anchors = (
{
name = top;
pos = (401.572,711.808);
}
);
layerId = "3D647E92-BB94-42FD-9C12-A678B6C1687F";
shapes = (
{
closed = 1;
nodes = (
(667,601,l),
(681,712,l),
(124,712,l),
(111,601,l)
);
},
{
ref = t;
}
);
width = 676;
}
);
unicode = 359;
},
{
glyphname = u;
kernLeft = u;
kernRight = u;
lastChange = "2023-04-19 12:33:55 +0000";
layers = (
{
anchors = (
{
name = bottom;
pos = (459,0);
},
{
name = ogonek;
pos = (829,25);
},
{
name = top;
pos = (591,939);
},
{
name = topright;
pos = (1095,939);
}
);
layerId = "AD226DB4-BE97-401A-8A1F-FC26A063DFB1";
shapes = (
{
closed = 1;
nodes = (
(617,-18,o),
(734,69,o),
(806,207,c),
(786,0,l),
(849,0,l),
(939,941,l),
(873,941,l),
(829,472,ls),
(809,252,o),
(683,46,o),
(486,46,cs),
(317,46,o),
(240,148,o),
(263,345,c),
(316,941,l),
(250,941,l),
(195,346,ls),
(177,115,o),
(273,-18,o),
(476,-18,cs)
);
}
);
width = 1049;
},
{
anchors = (
{
name = bottom;
pos = (517,0);
},
{
name = ogonek;
pos = (889,10);
},
{
name = top;
pos = (657,991);
},
{
name = topright;
pos = (1224,991);
}
);
layerId = "2146CDF3-509B-498B-BCC4-8BA41979C9D7";
shapes = (
{
closed = 1;
nodes = (
(584,-18,o),
(674,30,o),
(740,155,c),
(726,0,l),
(1027,0,l),
(1117,993,l),
(821,993,l),
(777,532,ls),
(757,324,o),
(650,270,o),
(565,270,cs),
(508,270,o),
(470,312,o),
(473,397,c),
(533,993,l),
(237,993,l),
(175,359,ls),
(144,69,o),
(306,-18,o),
(482,-18,cs)
);
}
);
width = 1174;
},
{
anchors = (
{
name = bottom;
pos = (478,0);
},
{
name = ogonek;
pos = (849,20);
},
{
name = top;
pos = (613,956);
},
{
name = topright;
pos = (1138,956);
}
);
layerId = "3D647E92-BB94-42FD-9C12-A678B6C1687F";
shapes = (
{
closed = 1;
nodes = (
(606,-18,o),
(714,56,o),
(784,190,c),
(766,0,l),
(908,0,l),
(998,958,l),
(856,958,l),
(812,492,ls),
(792,276,o),
(672,120,o),
(512,120,cs),
(380,120,o),
(316,202,o),
(332,362,cs),
(388,958,l),
(246,958,l),
(188,350,ls),
(166,100,o),
(284,-18,o),
(478,-18,cs)
);
}
);
width = 1090.30435;
}
);
unicode = 117;
},
{
glyphname = v;
lastChange = "2020-02-19 16:24:59 +0000";
layers = (
{
anchors = (
{
name = bottom;
pos = (372,0);
},
{
name = top;
pos = (504,939);
}
);
layerId = "AD226DB4-BE97-401A-8A1F-FC26A063DFB1";
shapes = (
{
closed = 1;
nodes = (
(402,0,l),
(469,0,l),
(916,939,l),
(848,939,l),
(446,90,l),
(199,939,l),
(131,939,l)
);
}
);
width = 876;
},
{
anchors = (
{
name = bottom;
pos = (414,0);
},
{
name = top;
pos = (554,991);
}
);
layerId = "2146CDF3-509B-498B-BCC4-8BA41979C9D7";
shapes = (
{
closed = 1;
nodes = (
(317,0,l),
(653,0,l),
(1055,991,l),
(709,991,l),
(512,320,l),
(449,991,l),
(104,991,l)
);
}
);
width = 968;
},
{
anchors = (
{
name = bottom;
pos = (386,0);
},
{
name = top;
pos = (521,956);
}
);
layerId = "3D647E92-BB94-42FD-9C12-A678B6C1687F";
shapes = (
{
closed = 1;
nodes = (
(374,0,l),
(530,0,l),
(962,956,l),
(802,956,l),
(468,166,l),
(282,956,l),
(122,956,l)
);
}
);
width = 906.4;
}
);
unicode = 118;
},
{
glyphname = w;
kernLeft = w;
kernRight = w;
lastChange = "2023-04-19 12:33:55 +0000";
layers = (
{
anchors = (
{
name = bottom;
pos = (554,0);
},
{
name = top;
pos = (686,939);
}
);
layerId = "AD226DB4-BE97-401A-8A1F-FC26A063DFB1";
shapes = (
{
closed = 1;
nodes = (
(325,0,l),
(384,0,l),
(688,766,l),
(855,0,l),
(914,0,l),
(1280,939,l),
(1214,939,l),
(891,93,l),
(722,901,l),
(682,901,l),
(367,107,l),
(198,939,l),
(131,939,l)
);
}
);
width = 1239;
},
{
anchors = (
{
name = bottom;
pos = (648,0);
},
{
name = top;
pos = (788,991);
}
);
layerId = "2146CDF3-509B-498B-BCC4-8BA41979C9D7";
shapes = (
{
closed = 1;
nodes = (
(305,0,l),
(601,0,l),
(760,476,l),
(835,0,l),
(1131,0,l),
(1516,991,l),
(1220,991,l),
(1022,375,l),
(952,928,l),
(669,928,l),
(492,376,l),
(415,991,l),
(104,991,l)
);
}
);
width = 1436;
},
{
anchors = (
{
name = bottom;
pos = (585,0);
},
{
name = top;
pos = (720,956);
}
);
layerId = "3D647E92-BB94-42FD-9C12-A678B6C1687F";
shapes = (
{
closed = 1;
nodes = (
(318,0,l),
(456,0,l),
(712,670,l),
(848,0,l),
(986,0,l),
(1358,956,l),
(1216,956,l),
(934,186,l),
(798,910,l),
(678,910,l),
(408,196,l),
(270,956,l),
(122,956,l)
);
}
);
width = 1304.09565;
}
);
unicode = 119;
},
{
glyphname = x;
lastChange = "2020-02-19 16:24:59 +0000";
layers = (
{
anchors = (
{
name = bottom;
pos = (354,0);
},
{
name = top;
pos = (486,939);
}
);
layerId = "AD226DB4-BE97-401A-8A1F-FC26A063DFB1";
shapes = (
{
closed = 1;
nodes = (
(144,0,l),
(453,416,l),
(691,0,l),
(770,0,l),
(499,471,l),
(862,941,l),
(783,941,l),
(474,529,l),
(232,941,l),
(153,941,l),
(422,471,l),
(66,0,l)
);
}
);
width = 839;
},
{
anchors = (
{
name = bottom;
pos = (475,0);
},
{
name = top;
pos = (615,991);
}
);
layerId = "2146CDF3-509B-498B-BCC4-8BA41979C9D7";
shapes = (
{
closed = 1;
nodes = (
(374,0,l),
(558,252,l),
(718,0,l),
(1079,0,l),
(775,491,l),
(1171,993,l),
(810,993,l),
(619,739,l),
(468,993,l),
(101,993,l),
(409,491,l),
(6,0,l)
);
}
);
width = 1089;
},
{
anchors = (
{
name = bottom;
pos = (394,0);
},
{
name = top;
pos = (529,956);
}
);
layerId = "3D647E92-BB94-42FD-9C12-A678B6C1687F";
shapes = (
{
closed = 1;
nodes = (
(220,0,l),
(488,362,l),
(700,0,l),
(872,0,l),
(590,478,l),
(964,958,l),
(792,958,l),
(522,598,l),
(310,958,l),
(136,958,l),
(418,478,l),
(46,0,l)
);
}
);
width = 921.6087;
}
);
unicode = 120;
},
{
glyphname = y;
kernLeft = y;
kernRight = y;
lastChange = "2023-04-19 12:35:33 +0000";
layers = (
{
anchors = (
{
name = bottom;
pos = (351,0);
},
{
name = top;
pos = (483,939);
}
);
layerId = "AD226DB4-BE97-401A-8A1F-FC26A063DFB1";
shapes = (
{
closed = 1;
nodes = (
(290,-481,o),
(379,-360,o),
(436,-205,cs),
(849,939,l),
(783,939,l),
(479,113,l),
(243,939,l),
(176,939,l),
(440,0,l),
(404,-102,ls),
(362,-239,o),
(294,-417,o),
(160,-417,cs),
(94,-417,o),
(42,-393,o),
(-9,-330,c),
(-17,-405,l),
(38,-453,o),
(89,-481,o),
(154,-481,cs)
);
}
);
width = 833;
},
{
anchors = (
{
name = bottom;
pos = (406,0);
},
{
name = top;
pos = (546,991);
}
);
layerId = "2146CDF3-509B-498B-BCC4-8BA41979C9D7";
shapes = (
{
closed = 1;
nodes = (
(362,-514,o),
(478,-432,o),
(587,-159,cs),
(1052,991,l),
(750,991,l),
(531,363,l),
(440,991,l),
(97,991,l),
(355,0,l),
(319,-89,ls),
(271,-200,o),
(215,-226,o),
(160,-226,cs),
(100,-226,o),
(36,-209,o),
(-29,-172,c),
(-56,-457,l),
(32,-499,o),
(122,-514,o),
(214,-514,cs)
);
}
);
width = 951;
},
{
anchors = (
{
name = bottom;
pos = (369,0);
},
{
name = top;
pos = (504,956);
}
);
layerId = "3D647E92-BB94-42FD-9C12-A678B6C1687F";
shapes = (
{
closed = 1;
nodes = (
(314,-492,o),
(412,-384,o),
(486,-190,cs),
(916,956,l),
(772,956,l),
(496,196,l),
(308,956,l),
(150,956,l),
(412,0,l),
(376,-98,ls),
(332,-226,o),
(268,-354,o),
(160,-354,cs),
(96,-354,o),
(40,-332,o),
(-16,-278,c),
(-30,-422,l),
(36,-468,o),
(100,-492,o),
(174,-492,cs)
);
}
);
width = 871.9913;
}
);
unicode = 121;
},
{
glyphname = z;
kernLeft = z;
kernRight = z;
lastChange = "2023-04-19 12:35:39 +0000";
layers = (
{
anchors = (
{
name = bottom;
pos = (342,0);
},
{
name = center;
pos = (408,470);
},
{
name = top;
pos = (474,939);
}
);
layerId = "AD226DB4-BE97-401A-8A1F-FC26A063DFB1";
shapes = (
{
closed = 1;
nodes = (
(732,0,l),
(733,59,l),
(172,59,l),
(812,880,l),
(819,939,l),
(177,939,l),
(170,880,l),
(732,880,l),
(91,59,l),
(89,0,l)
);
}
);
width = 815;
},
{
anchors = (
{
name = bottom;
pos = (397,0);
},
{
name = center;
pos = (467,496);
},
{
name = top;
pos = (537,991);
}
);
layerId = "2146CDF3-509B-498B-BCC4-8BA41979C9D7";
shapes = (
{
closed = 1;
nodes = (
(823,0,l),
(851,269,l),
(481,269,l),
(891,722,l),
(918,991,l),
(204,991,l),
(176,722,l),
(568,722,l),
(137,269,l),
(109,0,l)
);
}
);
width = 933;
},
{
anchors = (
{
name = bottom;
pos = (360,0);
},
{
name = center;
pos = (427,479);
},
{
name = top;
pos = (495,956);
}
);
layerId = "3D647E92-BB94-42FD-9C12-A678B6C1687F";
shapes = (
{
closed = 1;
nodes = (
(762,0,l),
(772,128,l),
(274,128,l),
(838,828,l),
(852,956,l),
(186,956,l),
(172,828,l),
(678,828,l),
(106,128,l),
(96,0,l)
);
}
);
width = 853.9913;
}
);
unicode = 122;
},
{
glyphname = Delta;
lastChange = "2020-02-19 16:24:59 +0000";
layers = (
{
layerId = "AD226DB4-BE97-401A-8A1F-FC26A063DFB1";
shapes = (
{
closed = 1;
nodes = (
(129,0,l),
(592,1117,l),
(898,0,l),
(976,0,l),
(640,1213,l),
(559,1213,l),
(53,0,l)
);
},
{
closed = 1;
nodes = (
(935,0,l),
(939,61,l),
(119,61,l),
(115,0,l)
);
}
);
width = 1031;
},
{
layerId = "2146CDF3-509B-498B-BCC4-8BA41979C9D7";
shapes = (
{
closed = 1;
nodes = (
(373,0,l),
(751,964,l),
(982,0,l),
(1319,0,l),
(986,1342,l),
(579,1342,l),
(33,0,l)
);
},
{
closed = 1;
nodes = (
(1098,0,l),
(1118,282,l),
(221,282,l),
(201,0,l)
);
}
);
width = 1347;
},
{
layerId = "3D647E92-BB94-42FD-9C12-A678B6C1687F";
shapes = (
{
closed = 1;
nodes = (
(210,0,l),
(645,1066,l),
(926,0,l),
(1089,0,l),
(754,1256,l),
(566,1256,l),
(46,0,l)
);
},
{
closed = 1;
nodes = (
(989,0,l),
(998,134,l),
(153,134,l),
(143,0,l)
);
}
);
width = 1135.41739;
}
);
metricLeft = A;
metricRight = A;
unicode = 916;
},
{
glyphname = Omega;
lastChange = "2020-02-19 16:24:59 +0000";
layers = (
{
layerId = "AD226DB4-BE97-401A-8A1F-FC26A063DFB1";
shapes = (
{
closed = 1;
nodes = (
(523,65,l),
(361,65,o),
(217,251,o),
(238,601,cs),
(259,952,o),
(432,1165,o),
(698,1165,cs),
(953,1165,o),
(1106,970,o),
(1078,603,cs),
(1052,259,o),
(886,65,o),
(719,65,c),
(715,11,l),
(896,11,o),
(1124,199,o),
(1156,601,cs),
(1190,1027,o),
(972,1231,o),
(703,1231,cs),
(426,1231,o),
(185,1017,o),
(160,601,cs),
(136,194,o),
(342,11,o),
(519,11,c)
);
},
{
closed = 1;
nodes = (
(518,-1,l),
(523,65,l),
(123,65,l),
(118,-1,l)
);
},
{
closed = 1;
nodes = (
(1114,-1,l),
(1119,65,l),
(719,65,l),
(714,-1,l)
);
}
);
width = 1234;
},
{
layerId = "2146CDF3-509B-498B-BCC4-8BA41979C9D7";
shapes = (
{
closed = 1;
nodes = (
(642,201,l),
(562,201,o),
(449,400,o),
(472,675,cs),
(493,931,o),
(620,1085,o),
(807,1085,cs),
(987,1085,o),
(1098,943,o),
(1084,677,cs),
(1069,401,o),
(930,201,o),
(844,201,c),
(835,64,l),
(1116,64,o),
(1376,248,o),
(1414,675,cs),
(1453,1112,o),
(1218,1372,o),
(824,1372,cs),
(441,1372,o),
(161,1126,o),
(142,675,cs),
(124,242,o),
(364,64,o),
(633,64,c)
);
},
{
closed = 1;
nodes = (
(628,0,l),
(642,201,l),
(109,201,l),
(95,0,l)
);
},
{
closed = 1;
nodes = (
(1363,0,l),
(1377,201,l),
(844,201,l),
(830,0,l)
);
}
);
width = 1474;
},
{
layerId = "3D647E92-BB94-42FD-9C12-A678B6C1687F";
shapes = (
{
closed = 1;
nodes = (
(562,110,l),
(427,110,o),
(294,300,o),
(315,625,cs),
(336,945,o),
(494,1139,o),
(734,1139,cs),
(964,1139,o),
(1103,961,o),
(1080,627,cs),
(1058,306,o),
(901,110,o),
(760,110,c),
(755,29,l),
(969,29,o),
(1207,215,o),
(1241,625,cs),
(1277,1055,o),
(1053,1278,o),
(743,1278,cs),
(431,1278,o),
(177,1053,o),
(154,625,cs),
(132,210,o),
(349,29,o),
(557,29,c)
);
},
{
closed = 1;
nodes = (
(554,-1,l),
(562,110,l),
(118,110,l),
(110,-1,l)
);
},
{
closed = 1;
nodes = (
(1196,-1,l),
(1204,110,l),
(760,110,l),
(752,-1,l)
);
}
);
width = 1313.30435;
}
);
metricLeft = O;
metricRight = O;
unicode = 937;
},
{
glyphname = pi;
lastChange = "2020-10-22 18:00:05 +0000";
layers = (
{
layerId = "AD226DB4-BE97-401A-8A1F-FC26A063DFB1";
shapes = (
{
closed = 1;
nodes = (
(1111,43,l),
(962,43,o),
(855,125,o),
(870,346,cs),
(912,942,l),
(842,942,l),
(800,346,ls),
(782,88,o),
(921,-20,o),
(1092,-20,c)
);
},
{
closed = 1;
nodes = (
(436,0,l),
(502,942,l),
(428,942,l),
(362,0,l)
);
},
{
closed = 1;
nodes = (
(1229,881,l),
(1234,942,l),
(150,942,l),
(145,881,l)
);
}
);
width = 1145;
},
{
layerId = "2146CDF3-509B-498B-BCC4-8BA41979C9D7";
shapes = (
{
closed = 1;
nodes = (
(1261,290,l),
(1189,290,o),
(1134,339,o),
(1141,443,cs),
(1179,987,l),
(857,987,l),
(819,443,ls),
(801,185,o),
(898,0,o),
(1152,0,c)
);
},
{
closed = 1;
nodes = (
(596,0,l),
(665,985,l),
(345,985,l),
(276,0,l)
);
},
{
closed = 1;
nodes = (
(1362,707,l),
(1382,989,l),
(147,989,l),
(127,707,l)
);
}
);
width = 1321;
},
{
layerId = "3D647E92-BB94-42FD-9C12-A678B6C1687F";
shapes = (
{
closed = 1;
nodes = (
(1164,125,l),
(1040,125,o),
(950,196,o),
(963,378,cs),
(1003,957,l),
(850,957,l),
(809,378,ls),
(791,120,o),
(916,-13,o),
(1115,-13,c)
);
},
{
closed = 1;
nodes = (
(492,0,l),
(559,956,l),
(404,956,l),
(337,0,l)
);
},
{
closed = 1;
nodes = (
(1276,824,l),
(1286,958,l),
(152,958,l),
(142,824,l)
);
}
);
width = 1206;
}
);
metricLeft = t;
metricRight = t;
unicode = 960;
},
{
glyphname = zero;
lastChange = "2020-10-22 18:07:07 +0000";
layers = (
{
layerId = "AD226DB4-BE97-401A-8A1F-FC26A063DFB1";
shapes = (
{
closed = 1;
nodes = (
(739,-15,o),
(918,196,o),
(953,610,cs),
(989,1018,o),
(859,1232,o),
(615,1232,cs),
(368,1232,o),
(192,1018,o),
(159,610,cs),
(119,196,o),
(249,-15,o),
(491,-15,cs)
);
},
{
closed = 1;
nodes = (
(285,48,o),
(190,252,o),
(224,610,cs),
(263,963,o),
(389,1164,o),
(603,1164,cs),
(829,1164,o),
(920,963,o),
(883,610,cs),
(847,252,o),
(725,48,o),
(503,48,cs)
);
}
);
width = 994;
},
{
layerId = "2146CDF3-509B-498B-BCC4-8BA41979C9D7";
shapes = (
{
closed = 1;
nodes = (
(917,-35,o),
(1161,190,o),
(1210,670,cs),
(1258,1157,o),
(1050,1377,o),
(740,1377,cs),
(428,1377,o),
(186,1157,o),
(139,670,cs),
(92,190,o),
(295,-35,o),
(609,-35,cs)
);
},
{
closed = 1;
nodes = (
(495,272,o),
(420,410,o),
(448,670,c),
(466,936,o),
(573,1079,o),
(715,1079,cs),
(849,1079,o),
(926,936,o),
(903,670,cs),
(880,410,o),
(771,272,o),
(634,272,cs)
);
}
);
width = 1224;
},
{
layerId = "3D647E92-BB94-42FD-9C12-A678B6C1687F";
shapes = (
{
closed = 1;
nodes = (
(798,-22,o),
(998,194,o),
(1038,630,cs),
(1078,1064,o),
(922,1280,o),
(656,1280,cs),
(388,1280,o),
(190,1064,o),
(152,630,cs),
(110,194,o),
(264,-22,o),
(530,-22,cs)
);
},
{
closed = 1;
nodes = (
(354,122,o),
(266,304,o),
(298,630,cs),
(330,954,o),
(450,1136,o),
(640,1136,cs),
(836,1136,o),
(922,954,o),
(890,630,cs),
(858,304,o),
(740,122,o),
(546,122,cs)
);
}
);
width = 1070;
}
);
unicode = 48;
},
{
glyphname = one;
lastChange = "2020-02-19 16:24:59 +0000";
layers = (
{
layerId = "AD226DB4-BE97-401A-8A1F-FC26A063DFB1";
shapes = (
{
closed = 1;
nodes = (
(346,1157,o),
(274,1124,o),
(205,1117,c),
(197,1037,l),
(257,1045,o),
(334,1078,o),
(394,1128,c),
(289,0,l),
(349,0,l),
(463,1214,l),
(398,1214,l)
);
}
);
width = 546;
},
{
layerId = "2146CDF3-509B-498B-BCC4-8BA41979C9D7";
shapes = (
{
closed = 1;
nodes = (
(352,1288,o),
(268,1263,o),
(178,1248,c),
(151,938,l),
(211,933,o),
(268,939,o),
(334,964,c),
(243,0,l),
(546,0,l),
(673,1359,l),
(458,1359,l)
);
}
);
width = 697;
},
{
layerId = "3D647E92-BB94-42FD-9C12-A678B6C1687F";
shapes = (
{
closed = 1;
nodes = (
(348,1200,o),
(272,1170,o),
(196,1160,c),
(182,1004,l),
(242,1008,o),
(312,1032,o),
(374,1074,c),
(274,0,l),
(414,0,l),
(532,1262,l),
(418,1262,l)
);
}
);
width = 595.89565;
}
);
unicode = 49;
},
{
glyphname = two;
lastChange = "2020-10-22 18:07:07 +0000";
layers = (
{
layerId = "AD226DB4-BE97-401A-8A1F-FC26A063DFB1";
shapes = (
{
closed = 1;
nodes = (
(217,294,o),
(298,380,o),
(442,445,cs),
(663,545,ls),
(795,600,o),
(910,705,o),
(932,897,cs),
(947,1083,o),
(826,1232,o),
(623,1232,cs),
(398,1232,o),
(269,1119,o),
(235,953,c),
(304,953,l),
(330,1094,o),
(449,1164,o),
(615,1164,cs),
(779,1164,o),
(877,1061,o),
(858,902,cs),
(846,757,o),
(765,666,o),
(636,611,cs),
(424,513,ls),
(279,450,o),
(154,365,o),
(136,147,cs),
(125,0,l),
(834,0,l),
(837,70,l),
(194,70,l),
(202,154,ls)
);
}
);
width = 996;
},
{
layerId = "2146CDF3-509B-498B-BCC4-8BA41979C9D7";
shapes = (
{
closed = 1;
nodes = (
(427,354,o),
(449,374,o),
(521,399,c),
(794,506,l),
(1045,613,o),
(1153,744,o),
(1168,949,c),
(1197,1214,o),
(996,1377,o),
(741,1377,cs),
(477,1377,o),
(230,1237,o),
(202,914,c),
(534,914,l),
(560,1028,o),
(633,1092,o),
(720,1092,cs),
(818,1092,o),
(857,1028,o),
(852,962,cs),
(846,888,o),
(804,836,o),
(708,795,c),
(437,691,ls),
(227,608,o),
(148,483,o),
(123,265,cs),
(98,0,l),
(1077,0,l),
(1106,300,l),
(424,300,l),
(426,312,l)
);
}
);
width = 1141;
},
{
layerId = "3D647E92-BB94-42FD-9C12-A678B6C1687F";
shapes = (
{
closed = 1;
nodes = (
(286,314,o),
(348,378,o),
(468,430,cs),
(706,532,ls),
(878,604,o),
(990,718,o),
(1010,914,cs),
(1030,1126,o),
(882,1280,o),
(662,1280,cs),
(424,1280,o),
(256,1158,o),
(224,940,c),
(380,940,l),
(406,1072,o),
(510,1140,o),
(650,1140,cs),
(792,1140,o),
(870,1050,o),
(856,922,cs),
(846,800,o),
(778,722,o),
(660,672,cs),
(428,572,ls),
(262,502,o),
(152,404,o),
(132,186,cs),
(116,0,l),
(914,0,l),
(926,146,l),
(270,146,l),
(276,206,ls)
);
}
);
width = 1043.91304;
}
);
unicode = 50;
},
{
glyphname = three;
lastChange = "2020-10-22 18:07:07 +0000";
layers = (
{
layerId = "AD226DB4-BE97-401A-8A1F-FC26A063DFB1";
shapes = (
{
closed = 1;
nodes = (
(738,-15,o),
(877,121,o),
(899,326,cs),
(913,495,o),
(821,597,o),
(681,634,c),
(817,686,o),
(897,776,o),
(913,908,cs),
(929,1090,o),
(793,1232,o),
(601,1232,cs),
(440,1232,o),
(292,1160,o),
(242,961,c),
(308,961,l),
(356,1120,o),
(467,1164,o),
(589,1164,cs),
(758,1164,o),
(854,1051,o),
(838,905,cs),
(823,751,o),
(679,656,o),
(468,656,cs),
(430,656,l),
(420,595,l),
(522,595,ls),
(763,595,o),
(844,473,o),
(830,328,cs),
(814,172,o),
(697,48,o),
(513,48,cs),
(330,48,o),
(184,151,o),
(206,362,c),
(145,362,l),
(119,114,o),
(293,-15,o),
(502,-15,cs)
);
}
);
width = 1003;
},
{
layerId = "2146CDF3-509B-498B-BCC4-8BA41979C9D7";
shapes = (
{
closed = 1;
nodes = (
(896,-35,o),
(1134,141,o),
(1156,386,cs),
(1170,534,o),
(1090,643,o),
(957,706,c),
(1086,752,o),
(1160,861,o),
(1170,993,cs),
(1192,1229,o),
(1003,1377,o),
(713,1377,cs),
(427,1377,o),
(213,1239,o),
(163,934,c),
(478,934,l),
(507,1035,o),
(598,1079,o),
(701,1079,cs),
(818,1079,o),
(854,1024,o),
(851,951,cs),
(843,863,o),
(784,807,o),
(692,807,cs),
(502,807,l),
(480,549,l),
(667,549,ls),
(783,549,o),
(844,512,o),
(836,419,cs),
(827,330,o),
(743,272,o),
(618,272,cs),
(488,272,o),
(427,342,o),
(423,434,c),
(99,434,l),
(73,127,o),
(326,-35,o),
(593,-35,cs)
);
}
);
width = 1187;
},
{
layerId = "3D647E92-BB94-42FD-9C12-A678B6C1687F";
shapes = (
{
closed = 1;
nodes = (
(790,-22,o),
(962,128,o),
(984,346,cs),
(998,508,o),
(910,612,o),
(772,658,c),
(906,708,o),
(984,804,o),
(998,936,cs),
(1016,1136,o),
(862,1280,o),
(638,1280,cs),
(436,1280,o),
(266,1186,o),
(216,952,c),
(364,952,l),
(406,1092,o),
(510,1136,o),
(626,1136,cs),
(778,1136,o),
(854,1042,o),
(842,920,cs),
(830,788,o),
(714,706,o),
(542,706,cs),
(454,706,l),
(440,580,l),
(570,580,ls),
(770,580,o),
(844,486,o),
(832,358,cs),
(818,224,o),
(712,122,o),
(548,122,cs),
(382,122,o),
(264,214,o),
(278,386,c),
(130,386,l),
(104,118,o),
(304,-22,o),
(532,-22,cs)
);
}
);
width = 1063.8;
}
);
unicode = 51;
},
{
glyphname = four;
lastChange = "2020-02-19 16:24:59 +0000";
layers = (
{
layerId = "AD226DB4-BE97-401A-8A1F-FC26A063DFB1";
shapes = (
{
closed = 1;
nodes = (
(692,0,l),
(720,321,l),
(909,321,l),
(919,386,l),
(729,386,l),
(810,1237,l),
(760,1237,l),
(90,383,l),
(83,321,l),
(658,321,l),
(632,0,l)
);
},
{
closed = 1;
nodes = (
(728,1095,l),
(661,383,l),
(171,383,l)
);
}
);
width = 937;
},
{
layerId = "2146CDF3-509B-498B-BCC4-8BA41979C9D7";
shapes = (
{
closed = 1;
nodes = (
(928,0,l),
(956,269,l),
(1166,269,l),
(1188,550,l),
(979,550,l),
(1053,1355,l),
(760,1355,l),
(77,514,l),
(56,269,l),
(658,269,l),
(632,0,l)
);
},
{
closed = 1;
nodes = (
(734,885,l),
(700,514,l),
(428,514,l)
);
}
);
width = 1147;
},
{
layerId = "3D647E92-BB94-42FD-9C12-A678B6C1687F";
shapes = (
{
closed = 1;
nodes = (
(770,0,l),
(798,304,l),
(994,304,l),
(1008,440,l),
(812,440,l),
(890,1276,l),
(760,1275.991,l),
(86,426,l),
(74,304,l),
(658,304,l),
(632,0,l)
);
},
{
closed = 1;
nodes = (
(730,1026,l),
(674,426,l),
(256,426,l)
);
}
);
width = 1006.3913;
}
);
unicode = 52;
},
{
glyphname = five;
lastChange = "2020-10-22 18:07:00 +0000";
layers = (
{
layerId = "AD226DB4-BE97-401A-8A1F-FC26A063DFB1";
shapes = (
{
closed = 1;
nodes = (
(710,-15,o),
(861,149,o),
(887,382,cs),
(907,616,o),
(771,729,o),
(518,729,cs),
(466,729,o),
(403,721,o),
(347,711,c),
(426,1149,l),
(912,1149,l),
(919,1215,l),
(369,1215,l),
(270,663,l),
(518,663,ls),
(723,663,o),
(831,566,o),
(815,382,cs),
(797,190,o),
(678,48,o),
(487,48,cs),
(328,48,o),
(206,141,o),
(223,309,c),
(163,309,l),
(139,93,o),
(307,-15,o),
(480,-15,cs)
);
}
);
width = 981;
},
{
layerId = "2146CDF3-509B-498B-BCC4-8BA41979C9D7";
shapes = (
{
closed = 1;
nodes = (
(849,-35,o),
(1071,188,o),
(1090,461,c),
(1117,707,o),
(968,854,o),
(735,854,cs),
(683,854,o),
(600,846,o),
(538,836,c),
(577,1044,l),
(1076,1044,l),
(1103,1346,l),
(317,1346,l),
(191,611,l),
(609,611,ls),
(743,611,o),
(798,560,o),
(788,461,cs),
(777,354,o),
(684,272,o),
(586,272,cs),
(486,272,o),
(423,319,o),
(433,434,c),
(124,434,l),
(106,139,o),
(261,-35,o),
(559,-35,cs)
);
}
);
width = 1086;
},
{
layerId = "3D647E92-BB94-42FD-9C12-A678B6C1687F";
shapes = (
{
closed = 1;
nodes = (
(756,-22,o),
(930,162,o),
(954,408,cs),
(976,646,o),
(836,770,o),
(590,770,cs),
(538,770,o),
(468,762,o),
(410,752,c),
(476,1114,l),
(966,1114,l),
(980,1258,l),
(352,1258,l),
(244,646,l),
(548,646,ls),
(730,646,o),
(820,564,o),
(806,408,cs),
(790,244,o),
(680,122,o),
(520,122,cs),
(380,122,o),
(278,200,o),
(292,350,c),
(150,350,l),
(128,108,o),
(292,-22,o),
(506,-22,cs)
);
}
);
width = 1015.69565;
}
);
unicode = 53;
},
{
glyphname = six;
lastChange = "2020-02-19 16:24:59 +0000";
layers = (
{
layerId = "AD226DB4-BE97-401A-8A1F-FC26A063DFB1";
shapes = (
{
closed = 1;
nodes = (
(703,-20,o),
(853,125,o),
(877,342,cs),
(895,561,o),
(751,717,o),
(564,717,cs),
(402,717,o),
(241,620,o),
(208,334,c),
(175,835,o),
(384,1164,o),
(639,1164,cs),
(781,1164,o),
(842,1075,o),
(854,938,c),
(926,938,l),
(917,1109,o),
(821,1232,o),
(647,1232,cs),
(370,1232,o),
(192,978,o),
(155,584,cs),
(127,248,o),
(246,-20,o),
(495,-20,cs)
);
},
{
closed = 1;
nodes = (
(351,48,o),
(243,157,o),
(260,344,cs),
(274,501,o),
(403,635,o),
(561,635,cs),
(721,635,o),
(824,524,o),
(807,344,cs),
(791,157,o),
(666,48,o),
(502,48,cs)
);
}
);
width = 967;
},
{
layerId = "2146CDF3-509B-498B-BCC4-8BA41979C9D7";
shapes = (
{
closed = 1;
nodes = (
(900,-33,o),
(1110,145,o),
(1134,408,cs),
(1158,660,o),
(1027,842,o),
(788,842,cs),
(638,842,o),
(491,778,o),
(432,558,c),
(451,874,o),
(554,1079,o),
(738,1079,cs),
(814,1079,o),
(855,1029,o),
(854,944,c),
(1169,944,l),
(1193,1208,o),
(1018,1377,o),
(752,1377,cs),
(436,1377,o),
(179,1129,o),
(135,650,cs),
(94,248,o),
(306,-33,o),
(626,-33,cs)
);
},
{
closed = 1;
nodes = (
(561,272,o),
(493,335,o),
(503,423,cs),
(510,528,o),
(594,583,o),
(679,583,cs),
(767,583,o),
(837,524,o),
(827,423,cs),
(818,335,o),
(738,272,o),
(653,272,cs)
);
}
);
width = 1164;
},
{
layerId = "3D647E92-BB94-42FD-9C12-A678B6C1687F";
shapes = (
{
closed = 1;
nodes = (
(768,-24,o),
(938,132,o),
(962,364,cs),
(982,594,o),
(842,758,o),
(638,758,cs),
(480,758,o),
(324,672,o),
(282,408,c),
(266,848,o),
(440,1136,o),
(672,1136,cs),
(792,1136,o),
(846,1060,o),
(854,940,c),
(1006,940,l),
(1008,1142,o),
(886,1280,o),
(682,1280,cs),
(392,1280,o),
(188,1028,o),
(148,606,cs),
(116,248,o),
(266,-24,o),
(538,-24,cs)
);
},
{
closed = 1;
nodes = (
(420,122,o),
(326,216,o),
(340,370,cs),
(352,510,o),
(466,618,o),
(600,618,cs),
(736,618,o),
(828,524,o),
(814,370,cs),
(800,216,o),
(690,122,o),
(552,122,cs)
);
}
);
width = 1032.09565;
}
);
unicode = 54;
},
{
glyphname = seven;
lastChange = "2020-02-19 16:24:59 +0000";
layers = (
{
layerId = "AD226DB4-BE97-401A-8A1F-FC26A063DFB1";
shapes = (
{
closed = 1;
nodes = (
(220,0,l),
(868,1155,l),
(873,1215,l),
(158,1215,l),
(152,1145,l),
(793,1145,l),
(130,0,l)
);
}
);
width = 792;
},
{
layerId = "2146CDF3-509B-498B-BCC4-8BA41979C9D7";
shapes = (
{
closed = 1;
nodes = (
(450,0,l),
(1019,1024,l),
(1051,1346,l),
(171,1346,l),
(139,1027,l),
(668,1027,l),
(51,0,l)
);
}
);
width = 956;
},
{
layerId = "3D647E92-BB94-42FD-9C12-A678B6C1687F";
shapes = (
{
closed = 1;
nodes = (
(296,0,l),
(918,1112,l),
(932,1258,l),
(162,1258,l),
(148,1106,l),
(752,1106,l),
(104,0,l)
);
}
);
width = 846.1913;
}
);
unicode = 55;
},
{
glyphname = eight;
lastChange = "2020-10-22 18:07:07 +0000";
layers = (
{
layerId = "AD226DB4-BE97-401A-8A1F-FC26A063DFB1";
shapes = (
{
closed = 1;
nodes = (
(775,-15,o),
(942,99,o),
(962,281,cs),
(978,433,o),
(898,517,o),
(747,582,cs),
(693,603,l),
(866,629,o),
(962,764,o),
(974,906,cs),
(994,1089,o),
(858,1232,o),
(639,1232,cs),
(401,1232,o),
(244,1088,o),
(231,920,c),
(212,769,o),
(327,679,o),
(420,634,c),
(264,603,o),
(153,487,o),
(141,321,cs),
(121,126,o),
(286,-15,o),
(515,-15,cs)
);
},
{
closed = 1;
nodes = (
(329,48,o),
(190,145,o),
(209,324,cs),
(221,451,o),
(333,573,o),
(498,602,c),
(711,511,ls),
(827,465,o),
(905,394,o),
(892,286,cs),
(880,144,o),
(730,48,o),
(527,48,cs)
);
},
{
closed = 1;
nodes = (
(477,697,ls),
(364,748,o),
(297,802,o),
(305,918,c),
(323,1050,o),
(454,1164,o),
(628,1164,cs),
(811,1164,o),
(925,1055,o),
(908,907,cs),
(892,755,o),
(767,649,o),
(601,643,c)
);
}
);
width = 1043;
},
{
layerId = "2146CDF3-509B-498B-BCC4-8BA41979C9D7";
shapes = (
{
closed = 1;
nodes = (
(959,-35,o),
(1172,145,o),
(1192,380,cs),
(1208,564,o),
(1115,648,o),
(944,727,c),
(962,721,l),
(1102,754,o),
(1198,855,o),
(1210,978,cs),
(1230,1214,o),
(1022,1377,o),
(744,1377,cs),
(428,1377,o),
(238,1246,o),
(211,999,c),
(199,821,o),
(307,706,o),
(420,640,c),
(258,623,o),
(126,526,o),
(108,367,cs),
(88,139,o),
(273,-35,o),
(614,-35,cs)
);
},
{
closed = 1;
nodes = (
(513,272,o),
(414,323,o),
(419,403,cs),
(424,478,o),
(530,534,o),
(656,530,c),
(816,459,l),
(866,432,o),
(885,400,o),
(886,358,c),
(880,308,o),
(815,272,o),
(639,272,cs)
);
},
{
closed = 1;
nodes = (
(582,894,ls),
(528,918,o),
(507,947,o),
(515,984,c),
(514,1044,o),
(612,1079,o),
(719,1079,cs),
(831,1079,o),
(905,1035,o),
(902,953,c),
(892,880,o),
(800,833,o),
(713,834,c)
);
}
);
width = 1234;
},
{
layerId = "3D647E92-BB94-42FD-9C12-A678B6C1687F";
shapes = (
{
closed = 1;
nodes = (
(836,-22,o),
(1018,114,o),
(1038,314,cs),
(1054,476,o),
(970,560,o),
(812,630,cs),
(782,642,l),
(944,670,o),
(1040,794,o),
(1052,930,cs),
(1072,1130,o),
(912,1280,o),
(674,1280,cs),
(410,1280,o),
(242,1140,o),
(224,946,cs),
(208,786,o),
(320,688,o),
(420,636,c),
(262,610,o),
(144,500,o),
(130,336,cs),
(110,130,o),
(282,-22,o),
(548,-22,cs)
);
},
{
closed = 1;
nodes = (
(390,122,o),
(264,204,o),
(278,350,cs),
(288,460,o),
(398,560,o),
(550,578,c),
(746,494,ls),
(840,454,o),
(898,396,o),
(890,310,cs),
(880,198,o),
(758,122,o),
(564,122,cs)
);
},
{
closed = 1;
nodes = (
(512,762,ls),
(418,804,o),
(366,850,o),
(374,940,cs),
(386,1048,o),
(506,1136,o),
(658,1136,cs),
(818,1136,o),
(918,1048,o),
(906,922,cs),
(892,796,o),
(778,710,o),
(638,706,c)
);
}
);
width = 1106.11304;
}
);
unicode = 56;
},
{
glyphname = nine;
lastChange = "2020-10-22 18:07:04 +0000";
layers = (
{
layerId = "AD226DB4-BE97-401A-8A1F-FC26A063DFB1";
shapes = (
{
closed = 1;
nodes = (
(764,-15,o),
(911,227,o),
(949,632,cs),
(985,1004,o),
(841,1232,o),
(602,1232,cs),
(400,1232,o),
(246,1089,o),
(226,874,cs),
(204,655,o),
(346,498,o),
(537,498,cs),
(718,498,o),
(852,626,o),
(883,837,c),
(885,770,o),
(883,722,o),
(879,657,c),
(840,284,o),
(719,48,o),
(490,48,cs),
(315,48,o),
(229,172,o),
(245,359,c),
(173,359,l),
(153,148,o),
(273,-15,o),
(484,-15,cs)
);
},
{
closed = 1;
nodes = (
(378,575,o),
(278,689,o),
(296,869,cs),
(312,1053,o),
(435,1162,o),
(595,1162,cs),
(757,1162,o),
(856,1053,o),
(839,869,cs),
(827,709,o),
(700,575,o),
(542,575,cs)
);
}
);
width = 990;
},
{
layerId = "2146CDF3-509B-498B-BCC4-8BA41979C9D7";
shapes = (
{
closed = 1;
nodes = (
(903,-35,o),
(1108,254,o),
(1152,692,cs),
(1188,1095,o),
(966,1377,o),
(662,1377,cs),
(387,1377,o),
(180,1201,o),
(154,934,cs),
(132,682,o),
(267,504,o),
(498,504,cs),
(646,504,o),
(792,566,o),
(863,791,c),
(865,764,o),
(863,735,o),
(859,709,c),
(834,448,o),
(752,272,o),
(575,272,cs),
(499,272,o),
(432,317,o),
(436,398,c),
(127,398,l),
(101,135,o),
(300,-35,o),
(556,-35,cs)
);
},
{
closed = 1;
nodes = (
(523,766,o),
(448,820,o),
(460,921,cs),
(470,1014,o),
(553,1077,o),
(634,1077,cs),
(718,1077,o),
(796,1014,o),
(787,921,cs),
(775,821,o),
(687,766,o),
(608,766,cs)
);
}
);
width = 1160;
},
{
layerId = "3D647E92-BB94-42FD-9C12-A678B6C1687F";
shapes = (
{
closed = 1;
nodes = (
(810,-22,o),
(976,236,o),
(1016,652,cs),
(1052,1034,o),
(882,1280,o),
(622,1280,cs),
(396,1280,o),
(224,1126,o),
(202,894,cs),
(180,664,o),
(320,500,o),
(524,500,cs),
(694,500,o),
(832,606,o),
(876,822,c),
(878,768,o),
(876,726,o),
(872,674,cs),
(838,338,o),
(730,122,o),
(518,122,cs),
(376,122,o),
(296,220,o),
(308,372,c),
(158,372,l),
(136,144,o),
(282,-22,o),
(508,-22,cs)
);
},
{
closed = 1;
nodes = (
(426,638,o),
(334,732,o),
(350,886,cs),
(364,1040,o),
(474,1134,o),
(608,1134,cs),
(744,1134,o),
(836,1040,o),
(822,886,cs),
(810,746,o),
(696,638,o),
(564,638,cs)
);
}
);
width = 1046.17391;
}
);
unicode = 57;
},
{
glyphname = zero.osf;
lastChange = "2023-04-19 13:05:52 +0000";
layers = (
{
layerId = "AD226DB4-BE97-401A-8A1F-FC26A063DFB1";
shapes = (
{
closed = 1;
nodes = (
(639,-15,o),
(797,146,o),
(833,507,cs),
(867,868,o),
(739,1033,o),
(539,1033,cs),
(328,1033,o),
(182,868,o),
(149,507,cs),
(113,146,o),
(231,-15,o),
(439,-15,cs)
);
},
{
closed = 1;
nodes = (
(257,44,o),
(186,212,o),
(221,507,c),
(247,801,o),
(343,975,o),
(531,975,cs),
(721,975,o),
(785,801,o),
(757,507,cs),
(729,212,o),
(636,44,o),
(447,44,cs)
);
}
);
width = 880;
},
{
layerId = "2146CDF3-509B-498B-BCC4-8BA41979C9D7";
shapes = (
{
closed = 1;
nodes = (
(830,-35,o),
(1047,206,o),
(1083,606,cs),
(1124,1007,o),
(949,1243,o),
(670,1243,cs),
(400,1243,o),
(169,1007,o),
(129,606,cs),
(93,206,o),
(277,-35,o),
(551,-35,cs)
);
},
{
closed = 1;
nodes = (
(460,268,o),
(410,370,o),
(424,606,c),
(450,847,o),
(527,942,o),
(643,942,cs),
(760,942,o),
(818,847,o),
(796,606,cs),
(775,370,o),
(696,268,o),
(578,268,cs)
);
}
);
width = 1110;
},
{
layerId = "3D647E92-BB94-42FD-9C12-A678B6C1687F";
shapes = (
{
closed = 1;
nodes = (
(702,-22,o),
(880,166,o),
(916,540,cs),
(952,914,o),
(808,1102,o),
(582,1102,cs),
(352,1102,o),
(178,914,o),
(142,540,cs),
(106,166,o),
(246,-22,o),
(476,-22,cs)
);
},
{
closed = 1;
nodes = (
(324,118,o),
(260,264,o),
(288,540,cs),
(314,816,o),
(404,964,o),
(568,964,cs),
(734,964,o),
(796,816,o),
(770,540,cs),
(744,264,o),
(656,118,o),
(490,118,cs)
);
}
);
width = 956;
}
);
},
{
glyphname = one.osf;
lastChange = "2023-04-19 13:05:52 +0000";
layers = (
{
layerId = "AD226DB4-BE97-401A-8A1F-FC26A063DFB1";
shapes = (
{
closed = 1;
nodes = (
(349,0,l),
(440,1017,l),
(376,1017,l),
(328,961,o),
(258,929,o),
(189,915,c),
(181,841,l),
(241,843,o),
(314,876,o),
(371,927,c),
(289,0,l)
);
}
);
width = 546;
},
{
layerId = "2146CDF3-509B-498B-BCC4-8BA41979C9D7";
shapes = (
{
closed = 1;
nodes = (
(546,0,l),
(664,1214,l),
(448,1214,l),
(334,1139,o),
(252,1113,o),
(162,1106,c),
(135,789,l),
(195,791,o),
(254,797,o),
(325,822,c),
(243,0,l)
);
}
);
width = 697;
},
{
layerId = "3D647E92-BB94-42FD-9C12-A678B6C1687F";
shapes = (
{
closed = 1;
nodes = (
(414,0,l),
(514,1082,l),
(400,1082,l),
(330,1020,o),
(256,990,o),
(180,978,c),
(166,824,l),
(226,826,o),
(294,850,o),
(356,892,c),
(274,0,l)
);
}
);
width = 595.89565;
}
);
},
{
glyphname = two.osf;
lastChange = "2023-04-19 13:05:52 +0000";
layers = (
{
layerId = "AD226DB4-BE97-401A-8A1F-FC26A063DFB1";
shapes = (
{
closed = 1;
nodes = (
(835,0,l),
(838,70,l),
(194,70,l),
(206,151,l),
(212,274,o),
(279,372,o),
(437,408,cs),
(652,464,ls),
(806,501,o),
(902,582,o),
(915,733,cs),
(927,881,o),
(800,1033,o),
(604,1033,cs),
(378,1033,o),
(251,917,o),
(208,750,c),
(281,750,l),
(314,889,o),
(434,964,o),
(596,964,cs),
(768,964,o),
(860,863,o),
(845,747,c),
(835,624,o),
(756,558,o),
(631,530,c),
(425,476,ls),
(250,436,o),
(156,339,o),
(134,138,c),
(125,0,l)
);
}
);
width = 995;
},
{
layerId = "2146CDF3-509B-498B-BCC4-8BA41979C9D7";
shapes = (
{
closed = 1;
nodes = (
(1032,0,l),
(1062,300,l),
(424,300,l),
(423,329,l),
(429,365,o),
(463,385,o),
(536,408,cs),
(718,458,ls),
(970,528,o),
(1072,642,o),
(1093,851,cs),
(1118,1084,o),
(964,1243,o),
(695,1243,cs),
(438,1243,o),
(218,1120,o),
(202,829,c),
(531,829,l),
(544,922,o),
(604,958,o),
(687,958,cs),
(762,958,o),
(800,909,o),
(799,846,c),
(789,769,o),
(750,716,o),
(611,675,cs),
(452,634,ls),
(244,575,o),
(143,470,o),
(121,229,cs),
(98,0,l)
);
}
);
width = 1113;
},
{
layerId = "3D647E92-BB94-42FD-9C12-A678B6C1687F";
shapes = (
{
closed = 1;
nodes = (
(900,0,l),
(912,146,l),
(270,146,l),
(278,210,l),
(284,304,o),
(340,376,o),
(470,408,cs),
(674,462,ls),
(860,510,o),
(958,602,o),
(974,772,cs),
(990,948,o),
(854,1102,o),
(634,1102,cs),
(398,1102,o),
(240,984,o),
(206,776,c),
(364,776,l),
(390,900,o),
(490,962,o),
(626,962,cs),
(766,962,o),
(840,878,o),
(830,780,cs),
(820,672,o),
(754,610,o),
(624,578,cs),
(434,528,ls),
(248,482,o),
(152,382,o),
(130,168,cs),
(116,0,l)
);
}
);
width = 1033.9913;
}
);
},
{
glyphname = three.osf;
lastChange = "2023-04-19 13:05:52 +0000";
layers = (
{
layerId = "AD226DB4-BE97-401A-8A1F-FC26A063DFB1";
shapes = (
{
closed = 1;
nodes = (
(650,-217,o),
(821,-77,o),
(839,126,cs),
(855,292,o),
(764,432,o),
(620,474,c),
(750,519,o),
(835,588,o),
(845,718,cs),
(860,906,o),
(729,1033,o),
(533,1033,cs),
(377,1033,o),
(228,960,o),
(176,763,c),
(243,763,l),
(294,917,o),
(403,964,o),
(530,964,cs),
(700,964,o),
(793,863,o),
(772,721,c),
(760,562,o),
(622,492,o),
(411,492,cs),
(368,492,l),
(367,431,l),
(466,431,ls),
(712,431,o),
(781,278,o),
(769,125,cs),
(753,-34,o),
(609,-151,o),
(421,-151,cs),
(239,-151,o),
(124,-49,o),
(147,161,c),
(81,161,l),
(55,-87,o),
(207,-217,o),
(414,-217,cs)
);
}
);
width = 962;
},
{
layerId = "2146CDF3-509B-498B-BCC4-8BA41979C9D7";
shapes = (
{
closed = 1;
nodes = (
(789,-250,o),
(999,-57,o),
(1023,192,cs),
(1039,358,o),
(981,492,o),
(844,565,c),
(967,624,o),
(1038,727,o),
(1055,869,cs),
(1077,1076,o),
(926,1243,o),
(638,1243,cs),
(350,1243,o),
(162,1124,o),
(110,815,c),
(427,815,l),
(439,897,o),
(515,970,o),
(615,970,cs),
(706,970,o),
(760,909,o),
(759,826,c),
(747,732,o),
(682,662,o),
(589,662,cs),
(440,662,l),
(413,404,l),
(545,404,ls),
(652,404,o),
(742,338,o),
(730,224,cs),
(720,111,o),
(636,27,o),
(526,27,cs),
(423,27,o),
(341,76,o),
(338,207,c),
(35,207,l),
(9,-114,o),
(240,-250,o),
(499,-250,cs)
);
}
);
width = 1113;
},
{
layerId = "3D647E92-BB94-42FD-9C12-A678B6C1687F";
shapes = (
{
closed = 1;
nodes = (
(696,-228,o),
(880,-70,o),
(900,148,cs),
(916,314,o),
(836,452,o),
(694,504,c),
(822,554,o),
(902,634,o),
(914,768,cs),
(932,962,o),
(794,1102,o),
(568,1102,cs),
(368,1102,o),
(206,1014,o),
(154,780,c),
(304,780,l),
(342,910,o),
(440,966,o),
(558,966,cs),
(702,966,o),
(782,878,o),
(768,756,cs),
(756,618,o),
(642,548,o),
(470,548,cs),
(392,548,l),
(382,422,l),
(492,422,ls),
(692,422,o),
(768,298,o),
(756,158,cs),
(742,14,o),
(618,-92,o),
(456,-92,cs),
(300,-92,o),
(196,-8,o),
(210,176,c),
(66,176,l),
(40,-96,o),
(218,-228,o),
(442,-228,cs)
);
}
);
width = 1011.89565;
}
);
},
{
glyphname = four.osf;
lastChange = "2023-04-19 13:05:52 +0000";
layers = (
{
layerId = "AD226DB4-BE97-401A-8A1F-FC26A063DFB1";
shapes = (
{
closed = 1;
nodes = (
(668,-203,l),
(702,119,l),
(891,119,l),
(897,177,l),
(707,177,l),
(792,1031,l),
(738,1031,l),
(71,180,l),
(63,119,l),
(642,119,l),
(610,-203,l)
);
},
{
closed = 1;
nodes = (
(710,890,l),
(647,180,l),
(150,180,l)
);
}
);
width = 939;
},
{
layerId = "2146CDF3-509B-498B-BCC4-8BA41979C9D7";
shapes = (
{
closed = 1;
nodes = (
(904,-223,l),
(932,86,l),
(1141,86,l),
(1166,374,l),
(957,374,l),
(1035,1215,l),
(738,1215,l),
(51,331,l),
(30,86,l),
(629,86,l),
(597,-223,l)
);
},
{
closed = 1;
nodes = (
(710,751,l),
(667,331,l),
(374,331,l)
);
}
);
width = 1149;
},
{
layerId = "3D647E92-BB94-42FD-9C12-A678B6C1687F";
shapes = (
{
closed = 1;
nodes = (
(746,-210,l),
(778,108,l),
(974,108,l),
(986,242,l),
(790,242,l),
(872,1092,l),
(738,1092,l),
(64,230,l),
(52,108,l),
(638,108,l),
(606,-210,l)
);
},
{
closed = 1;
nodes = (
(710,844,l),
(654,230,l),
(224,230,l)
);
}
);
width = 1008.3913;
}
);
},
{
glyphname = five.osf;
lastChange = "2023-04-19 13:05:52 +0000";
layers = (
{
layerId = "AD226DB4-BE97-401A-8A1F-FC26A063DFB1";
shapes = (
{
closed = 1;
nodes = (
(671,-217,o),
(845,-42,o),
(867,192,cs),
(891,430,o),
(755,562,o),
(505,562,cs),
(458,562,o),
(394,560,o),
(336,549,c),
(410,950,l),
(894,950,l),
(903,1012,l),
(351,1012,l),
(260,499,l),
(509,499,ls),
(712,499,o),
(813,378,o),
(797,192,cs),
(779,1,o),
(631,-151,o),
(437,-151,cs),
(282,-151,o),
(187,-56,o),
(201,113,c),
(143,113,l),
(119,-103,o),
(257,-217,o),
(434,-217,cs)
);
}
);
width = 985;
},
{
layerId = "2146CDF3-509B-498B-BCC4-8BA41979C9D7";
shapes = (
{
closed = 1;
nodes = (
(789,-250,o),
(1029,-42,o),
(1058,252,cs),
(1082,521,o),
(933,713,o),
(683,713,cs),
(609,713,o),
(564,699,o),
(506,680,c),
(555,944,l),
(1052,944,l),
(1081,1248,l),
(318,1248,l),
(175,447,l),
(555,447,ls),
(712,447,o),
(774,378,o),
(764,252,cs),
(752,126,o),
(658,52,o),
(555,52,cs),
(452,52,o),
(390,108,o),
(404,225,c),
(104,225,l),
(80,-83,o),
(284,-250,o),
(519,-250,cs)
);
}
);
width = 1103;
},
{
layerId = "3D647E92-BB94-42FD-9C12-A678B6C1687F";
shapes = (
{
closed = 1;
nodes = (
(710,-228,o),
(906,-42,o),
(930,212,cs),
(954,460,o),
(814,612,o),
(564,612,cs),
(508,612,o),
(450,606,o),
(392,592,c),
(458,948,l),
(946,948,l),
(962,1090,l),
(340,1090,l),
(232,482,l),
(524,482,ls),
(712,482,o),
(800,378,o),
(786,212,cs),
(770,42,o),
(640,-84,o),
(476,-84,cs),
(338,-84,o),
(254,-2,o),
(268,150,c),
(130,150,l),
(106,-96,o),
(266,-228,o),
(462,-228,cs)
);
}
);
width = 1023.9913;
}
);
},
{
glyphname = six.osf;
lastChange = "2023-04-19 13:05:52 +0000";
layers = (
{
layerId = "AD226DB4-BE97-401A-8A1F-FC26A063DFB1";
shapes = (
{
closed = 1;
nodes = (
(703,-20,o),
(853,125,o),
(877,342,cs),
(895,561,o),
(751,717,o),
(564,717,cs),
(402,717,o),
(241,620,o),
(208,334,c),
(175,835,o),
(384,1164,o),
(639,1164,cs),
(781,1164,o),
(842,1075,o),
(854,938,c),
(926,938,l),
(917,1109,o),
(821,1232,o),
(647,1232,cs),
(370,1232,o),
(192,978,o),
(155,584,cs),
(127,248,o),
(246,-20,o),
(495,-20,cs)
);
},
{
closed = 1;
nodes = (
(351,48,o),
(243,157,o),
(260,344,cs),
(274,501,o),
(403,635,o),
(561,635,cs),
(721,635,o),
(824,524,o),
(807,344,cs),
(791,157,o),
(666,48,o),
(502,48,cs)
);
}
);
width = 967;
},
{
layerId = "2146CDF3-509B-498B-BCC4-8BA41979C9D7";
shapes = (
{
closed = 1;
nodes = (
(900,-33,o),
(1110,145,o),
(1134,408,cs),
(1158,660,o),
(1027,842,o),
(788,842,cs),
(638,842,o),
(491,778,o),
(432,558,c),
(451,874,o),
(554,1079,o),
(738,1079,cs),
(814,1079,o),
(855,1029,o),
(854,944,c),
(1169,944,l),
(1193,1208,o),
(1018,1377,o),
(752,1377,cs),
(436,1377,o),
(179,1129,o),
(135,650,cs),
(94,248,o),
(306,-33,o),
(626,-33,cs)
);
},
{
closed = 1;
nodes = (
(561,272,o),
(493,335,o),
(503,423,cs),
(510,528,o),
(594,583,o),
(679,583,cs),
(767,583,o),
(837,524,o),
(827,423,cs),
(818,335,o),
(738,272,o),
(653,272,cs)
);
}
);
width = 1164;
},
{
layerId = "3D647E92-BB94-42FD-9C12-A678B6C1687F";
shapes = (
{
closed = 1;
nodes = (
(768,-24,o),
(938,132,o),
(962,364,cs),
(982,594,o),
(842,758,o),
(638,758,cs),
(480,758,o),
(324,672,o),
(282,408,c),
(266,848,o),
(440,1136,o),
(672,1136,cs),
(792,1136,o),
(846,1060,o),
(854,940,c),
(1006,940,l),
(1008,1142,o),
(886,1280,o),
(682,1280,cs),
(392,1280,o),
(188,1028,o),
(148,606,cs),
(116,248,o),
(266,-24,o),
(538,-24,cs)
);
},
{
closed = 1;
nodes = (
(420,122,o),
(326,216,o),
(340,370,cs),
(352,510,o),
(466,618,o),
(600,618,cs),
(736,618,o),
(828,524,o),
(814,370,cs),
(800,216,o),
(690,122,o),
(552,122,cs)
);
}
);
width = 1032.09565;
}
);
},
{
glyphname = seven.osf;
lastChange = "2023-04-19 13:05:52 +0000";
layers = (
{
layerId = "AD226DB4-BE97-401A-8A1F-FC26A063DFB1";
shapes = (
{
closed = 1;
nodes = (
(134,964,l),
(774,964,l),
(119,-183,l),
(200,-183,l),
(850,975,l),
(853,1033,l),
(139,1033,l)
);
}
);
width = 792;
},
{
layerId = "2146CDF3-509B-498B-BCC4-8BA41979C9D7";
shapes = (
{
closed = 1;
nodes = (
(134,958,l),
(714,958,l),
(1,-222,l),
(364,-222,l),
(1014,955,l),
(1044,1243,l),
(159,1243,l)
);
}
);
width = 956;
},
{
layerId = "3D647E92-BB94-42FD-9C12-A678B6C1687F";
shapes = (
{
closed = 1;
nodes = (
(134,962,l),
(754,962,l),
(80,-196,l),
(254,-196,l),
(904,968,l),
(916,1102,l),
(146,1102,l)
);
}
);
width = 846.1913;
}
);
},
{
glyphname = eight.osf;
lastChange = "2023-04-19 13:05:52 +0000";
layers = (
{
layerId = "AD226DB4-BE97-401A-8A1F-FC26A063DFB1";
shapes = (
{
closed = 1;
nodes = (
(775,-15,o),
(942,99,o),
(962,281,cs),
(978,433,o),
(898,517,o),
(747,582,cs),
(693,603,l),
(866,629,o),
(962,764,o),
(974,906,cs),
(994,1089,o),
(858,1232,o),
(639,1232,cs),
(401,1232,o),
(244,1088,o),
(231,920,c),
(212,769,o),
(327,679,o),
(420,634,c),
(264,603,o),
(153,487,o),
(141,321,cs),
(121,126,o),
(286,-15,o),
(515,-15,cs)
);
},
{
closed = 1;
nodes = (
(329,48,o),
(190,145,o),
(209,324,cs),
(221,451,o),
(333,573,o),
(498,602,c),
(711,511,ls),
(827,465,o),
(905,394,o),
(892,286,cs),
(880,144,o),
(730,48,o),
(527,48,cs)
);
},
{
closed = 1;
nodes = (
(477,697,ls),
(364,748,o),
(297,802,o),
(305,918,c),
(323,1050,o),
(454,1164,o),
(628,1164,cs),
(811,1164,o),
(925,1055,o),
(908,907,cs),
(892,755,o),
(767,649,o),
(601,643,c)
);
}
);
width = 1043;
},
{
layerId = "2146CDF3-509B-498B-BCC4-8BA41979C9D7";
shapes = (
{
closed = 1;
nodes = (
(959,-35,o),
(1172,145,o),
(1192,380,cs),
(1208,564,o),
(1115,648,o),
(944,727,c),
(962,721,l),
(1102,754,o),
(1198,855,o),
(1210,978,cs),
(1230,1214,o),
(1022,1377,o),
(744,1377,cs),
(428,1377,o),
(238,1246,o),
(211,999,c),
(199,821,o),
(307,706,o),
(420,640,c),
(258,623,o),
(126,526,o),
(108,367,cs),
(88,139,o),
(273,-35,o),
(614,-35,cs)
);
},
{
closed = 1;
nodes = (
(513,272,o),
(414,323,o),
(419,403,cs),
(424,478,o),
(530,534,o),
(656,530,c),
(816,459,l),
(866,432,o),
(885,400,o),
(886,358,c),
(880,308,o),
(815,272,o),
(639,272,cs)
);
},
{
closed = 1;
nodes = (
(582,894,ls),
(528,918,o),
(507,947,o),
(515,984,c),
(514,1044,o),
(612,1079,o),
(719,1079,cs),
(831,1079,o),
(905,1035,o),
(902,953,c),
(892,880,o),
(800,833,o),
(713,834,c)
);
}
);
width = 1234;
},
{
layerId = "3D647E92-BB94-42FD-9C12-A678B6C1687F";
shapes = (
{
closed = 1;
nodes = (
(836,-22,o),
(1018,114,o),
(1038,314,cs),
(1054,476,o),
(970,560,o),
(812,630,cs),
(782,642,l),
(944,670,o),
(1040,794,o),
(1052,930,cs),
(1072,1130,o),
(912,1280,o),
(674,1280,cs),
(410,1280,o),
(242,1140,o),
(224,946,cs),
(208,786,o),
(320,688,o),
(420,636,c),
(262,610,o),
(144,500,o),
(130,336,cs),
(110,130,o),
(282,-22,o),
(548,-22,cs)
);
},
{
closed = 1;
nodes = (
(390,122,o),
(264,204,o),
(278,350,cs),
(288,460,o),
(398,560,o),
(550,578,c),
(746,494,ls),
(840,454,o),
(898,396,o),
(890,310,cs),
(880,198,o),
(758,122,o),
(564,122,cs)
);
},
{
closed = 1;
nodes = (
(512,762,ls),
(418,804,o),
(366,850,o),
(374,940,cs),
(386,1048,o),
(506,1136,o),
(658,1136,cs),
(818,1136,o),
(918,1048,o),
(906,922,cs),
(892,796,o),
(778,710,o),
(638,706,c)
);
}
);
width = 1106.11304;
}
);
},
{
glyphname = nine.osf;
lastChange = "2023-04-19 13:05:52 +0000";
layers = (
{
layerId = "AD226DB4-BE97-401A-8A1F-FC26A063DFB1";
shapes = (
{
closed = 1;
nodes = (
(750,-217,o),
(891,34,o),
(931,432,cs),
(965,803,o),
(818,1033,o),
(580,1033,cs),
(378,1033,o),
(226,888,o),
(210,671,cs),
(188,454,o),
(327,297,o),
(512,297,cs),
(699,297,o),
(831,430,o),
(862,638,c),
(867,569,o),
(860,517,o),
(863,459,c),
(818,78,o),
(704,-151,o),
(468,-151,cs),
(291,-151,o),
(204,-25,o),
(225,159,c),
(153,159,l),
(133,-51,o),
(258,-217,o),
(464,-217,cs)
);
},
{
closed = 1;
nodes = (
(361,378,o),
(259,487,o),
(276,671,cs),
(296,858,o),
(417,964,o),
(577,964,cs),
(736,964,o),
(840,858,o),
(823,671,cs),
(805,514,o),
(679,378,o),
(524,378,cs)
);
}
);
width = 988;
},
{
layerId = "2146CDF3-509B-498B-BCC4-8BA41979C9D7";
shapes = (
{
closed = 1;
nodes = (
(822,-250,o),
(1088,21,o),
(1128,498,cs),
(1162,836,o),
(1035,1243,o),
(652,1243,cs),
(378,1243,o),
(166,1046,o),
(138,783,cs),
(116,526,o),
(281,343,o),
(518,343,cs),
(660,343,o),
(798,436,o),
(849,632,c),
(847,602,o),
(847,556,o),
(836,511,c),
(818,236,o),
(717,52,o),
(553,52,cs),
(469,52,o),
(428,93,o),
(422,179,c),
(114,179,l),
(87,-84,o),
(271,-250,o),
(524,-250,cs)
);
},
{
closed = 1;
nodes = (
(486,602,o),
(437,684,o),
(446,783,cs),
(454,871,o),
(516,958,o),
(623,958,cs),
(730,958,o),
(780,871,o),
(771,783,c),
(766,678,o),
(699,602,o),
(590,602,cs)
);
}
);
width = 1158;
},
{
layerId = "3D647E92-BB94-42FD-9C12-A678B6C1687F";
shapes = (
{
closed = 1;
nodes = (
(774,-228,o),
(956,30,o),
(996,454,cs),
(1030,814,o),
(890,1102,o),
(604,1102,cs),
(378,1102,o),
(206,940,o),
(186,708,cs),
(164,478,o),
(312,312,o),
(514,312,cs),
(686,312,o),
(820,432,o),
(858,636,c),
(860,580,o),
(856,530,o),
(854,476,c),
(818,130,o),
(708,-84,o),
(496,-84,cs),
(350,-84,o),
(278,14,o),
(290,166,c),
(140,166,l),
(118,-62,o),
(262,-228,o),
(484,-228,cs)
);
},
{
closed = 1;
nodes = (
(402,452,o),
(318,552,o),
(332,708,cs),
(348,862,o),
(450,962,o),
(592,962,cs),
(734,962,o),
(820,862,o),
(806,708,cs),
(792,568,o),
(686,452,o),
(546,452,cs)
);
}
);
width = 1044.17391;
}
);
},
{
glyphname = zero.tf;
lastChange = "2020-02-19 16:24:59 +0000";
layers = (
{
layerId = "AD226DB4-BE97-401A-8A1F-FC26A063DFB1";
shapes = (
{
closed = 1;
nodes = (
(780,-15,o),
(959,196,o),
(994,610,cs),
(1030,1018,o),
(900,1232,o),
(656,1232,cs),
(409,1232,o),
(233,1018,o),
(199,610,cs),
(160,196,o),
(290,-15,o),
(532,-15,cs)
);
},
{
closed = 1;
nodes = (
(325,48,o),
(231,252,o),
(265,610,cs),
(299,963,o),
(430,1164,o),
(644,1164,cs),
(870,1164,o),
(961,963,o),
(924,610,cs),
(888,252,o),
(766,48,o),
(543,48,cs)
);
}
);
width = 1200;
},
{
layerId = "2146CDF3-509B-498B-BCC4-8BA41979C9D7";
shapes = (
{
closed = 1;
nodes = (
(846,-35,o),
(1090,190,o),
(1139,670,cs),
(1188,1157,o),
(979,1377,o),
(669,1377,cs),
(357,1377,o),
(115,1157,o),
(68,670,cs),
(21,190,o),
(224,-35,o),
(538,-35,cs)
);
},
{
closed = 1;
nodes = (
(424,272,o),
(349,410,o),
(377,670,cs),
(404,936,o),
(502,1079,o),
(644,1079,cs),
(779,1079,o),
(856,936,o),
(833,670,cs),
(809,410,o),
(700,272,o),
(563,272,cs)
);
}
);
width = 1200;
},
{
layerId = "3D647E92-BB94-42FD-9C12-A678B6C1687F";
shapes = (
{
closed = 1;
nodes = (
(802,-22,o),
(1002,194,o),
(1042,630,cs),
(1082,1064,o),
(926,1280,o),
(660,1280,cs),
(392,1280,o),
(194,1064,o),
(156,630,cs),
(114,194,o),
(268,-22,o),
(534,-22,cs)
);
},
{
closed = 1;
nodes = (
(358,122,o),
(270,304,o),
(302,630,cs),
(334,954,o),
(454,1136,o),
(644,1136,cs),
(840,1136,o),
(926,954,o),
(894,630,cs),
(862,304,o),
(744,122,o),
(550,122,cs)
);
}
);
width = 1200;
}
);
},
{
glyphname = one.tf;
lastChange = "2020-02-19 16:24:59 +0000";
layers = (
{
layerId = "AD226DB4-BE97-401A-8A1F-FC26A063DFB1";
shapes = (
{
closed = 1;
nodes = (
(895,0,l),
(899,70,l),
(555,70,l),
(661,1214,l),
(597,1214,l),
(544,1157,o),
(472,1124,o),
(403,1117,c),
(395,1037,l),
(455,1045,o),
(532,1078,o),
(592,1128,c),
(495,70,l),
(225,70,l),
(221,0,l)
);
}
);
width = 1200;
},
{
layerId = "2146CDF3-509B-498B-BCC4-8BA41979C9D7";
shapes = (
{
closed = 1;
nodes = (
(1073,0,l),
(1102,300,l),
(837,300,l),
(937,1359,l),
(722,1359,l),
(616,1288,o),
(532,1263,o),
(442,1248,c),
(415,938,l),
(475,933,o),
(532,939,o),
(598,964,c),
(534,300,l),
(271,300,l),
(241,0,l)
);
}
);
width = 1200;
},
{
layerId = "3D647E92-BB94-42FD-9C12-A678B6C1687F";
shapes = (
{
closed = 1;
nodes = (
(954,0,l),
(966,146,l),
(648,146,l),
(752,1262,l),
(638,1262,l),
(568,1200,o),
(492,1170,o),
(416,1160,c),
(402,1004,l),
(462,1008,o),
(532,1032,o),
(594,1074,c),
(508,146,l),
(240,146,l),
(228,0,l)
);
}
);
width = 1200;
}
);
},
{
glyphname = two.tf;
lastChange = "2020-10-22 18:07:07 +0000";
layers = (
{
layerId = "AD226DB4-BE97-401A-8A1F-FC26A063DFB1";
shapes = (
{
closed = 1;
nodes = (
(904,0,l),
(908,70,l),
(265,70,l),
(273,154,ls),
(287,294,o),
(369,380,o),
(513,445,cs),
(733,545,ls),
(864,606,o),
(980,705,o),
(1003,897,cs),
(1025,1083,o),
(896,1232,o),
(694,1232,cs),
(469,1232,o),
(340,1119,o),
(306,953,c),
(375,953,l),
(401,1094,o),
(520,1164,o),
(686,1164,cs),
(850,1164,o),
(947,1061,o),
(929,902,cs),
(917,757,o),
(836,668,o),
(707,611,cs),
(494,513,ls),
(350,446,o),
(223,365,o),
(207,147,cs),
(195,0,l)
);
}
);
width = 1200;
},
{
layerId = "2146CDF3-509B-498B-BCC4-8BA41979C9D7";
shapes = (
{
closed = 1;
nodes = (
(1043,0,l),
(1072,300,l),
(390,300,l),
(391,312,ls),
(392,354,o),
(415,374,o),
(486,399,cs),
(760,506,ls),
(1015,606,o),
(1119,744,o),
(1134,949,cs),
(1156,1214,o),
(962,1377,o),
(707,1377,cs),
(442,1377,o),
(195,1237,o),
(167,914,c),
(500,914,l),
(526,1028,o),
(599,1092,o),
(686,1092,cs),
(784,1092,o),
(822,1028,o),
(817,962,cs),
(812,888,o),
(770,832,o),
(674,795,cs),
(403,691,ls),
(192,610,o),
(111,483,o),
(89,265,cs),
(64,0,l)
);
}
);
width = 1200;
},
{
layerId = "3D647E92-BB94-42FD-9C12-A678B6C1687F";
shapes = (
{
closed = 1;
nodes = (
(950,0,l),
(962,146,l),
(306,146,l),
(312,206,ls),
(322,314,o),
(384,378,o),
(504,430,cs),
(742,532,ls),
(914,606,o),
(1026,718,o),
(1046,914,cs),
(1068,1126,o),
(918,1280,o),
(698,1280,cs),
(460,1280,o),
(292,1158,o),
(260,940,c),
(416,940,l),
(442,1072,o),
(546,1140,o),
(686,1140,cs),
(828,1140,o),
(906,1050,o),
(892,922,cs),
(882,800,o),
(814,722,o),
(696,672,cs),
(464,572,ls),
(298,500,o),
(185.991,403.991,o),
(168.009,185.991,cs),
(152,0,l)
);
}
);
width = 1200;
}
);
},
{
glyphname = three.tf;
lastChange = "2020-02-19 16:24:59 +0000";
layers = (
{
layerId = "AD226DB4-BE97-401A-8A1F-FC26A063DFB1";
shapes = (
{
closed = 1;
nodes = (
(809,-15,o),
(948,121,o),
(970,326,cs),
(984,495,o),
(892,597,o),
(752,634,c),
(888,686,o),
(968,776,o),
(984,908,cs),
(1000,1090,o),
(863,1232,o),
(672,1232,cs),
(511,1232,o),
(363,1160,o),
(313,961,c),
(378,961,l),
(427,1120,o),
(537,1164,o),
(660,1164,cs),
(829,1164,o),
(925,1051,o),
(908,905,cs),
(892,751,o),
(750,656,o),
(539,656,cs),
(501,656,l),
(491,595,l),
(593,595,ls),
(834,595,o),
(915,473,o),
(901,328,cs),
(886,172,o),
(768,48,o),
(584,48,cs),
(401,48,o),
(254,151,o),
(277,362,c),
(216,362,l),
(190,114,o),
(364,-15,o),
(572,-15,cs)
);
}
);
width = 1200;
},
{
layerId = "2146CDF3-509B-498B-BCC4-8BA41979C9D7";
shapes = (
{
closed = 1;
nodes = (
(861,-35,o),
(1099,141,o),
(1121,386,cs),
(1135,534,o),
(1056,643,o),
(922,706,c),
(1052,752,o),
(1126,861,o),
(1135,993,cs),
(1158,1229,o),
(968,1377,o),
(678,1377,cs),
(393,1377,o),
(179,1239,o),
(129,934,c),
(444,934,l),
(473,1035,o),
(564,1079,o),
(666,1079,cs),
(783,1079,o),
(820,1024,o),
(817,951,cs),
(813,863,o),
(750,807,o),
(657,807,cs),
(468,807,l),
(445,549,l),
(632,549,ls),
(749,549,o),
(810,512,o),
(802,419,cs),
(795,330,o),
(708,272,o),
(584,272,cs),
(453,272,o),
(393,342,o),
(389,434,c),
(65,434,l),
(39,127,o),
(292,-35,o),
(559,-35,cs)
);
}
);
width = 1200;
},
{
layerId = "3D647E92-BB94-42FD-9C12-A678B6C1687F";
shapes = (
{
closed = 1;
nodes = (
(826,-22,o),
(998,128,o),
(1020,346,cs),
(1034,508,o),
(946,612,o),
(808,658,c),
(942,708,o),
(1020,804,o),
(1034,936,cs),
(1052,1136,o),
(898,1280,o),
(674,1280,cs),
(472,1280,o),
(302,1186,o),
(252,952,c),
(400,952,l),
(442,1092,o),
(546,1136,o),
(662,1136,cs),
(814,1136,o),
(890,1042,o),
(878,920,cs),
(866,788,o),
(750,706,o),
(578,706,cs),
(490,706,l),
(476,580,l),
(606,580,ls),
(806,580,o),
(880,486,o),
(868,358,cs),
(856,224,o),
(748,122,o),
(584,122,cs),
(418,122,o),
(300,214,o),
(314,386,c),
(166,386,l),
(140,118,o),
(340,-22,o),
(568,-22,cs)
);
}
);
width = 1200;
}
);
},
{
glyphname = four.tf;
lastChange = "2020-02-19 16:24:59 +0000";
layers = (
{
layerId = "AD226DB4-BE97-401A-8A1F-FC26A063DFB1";
shapes = (
{
closed = 1;
nodes = (
(187,383,l),
(180,321,l),
(755,321,l),
(729,0,l),
(789,0,l),
(817,321,l),
(1006,321,l),
(1016,386,l),
(827,386,l),
(907,1237,l),
(857,1237,l)
);
},
{
closed = 1;
nodes = (
(758,383,l),
(268,383,l),
(825,1095,l)
);
}
);
width = 1200;
},
{
layerId = "2146CDF3-509B-498B-BCC4-8BA41979C9D7";
shapes = (
{
closed = 1;
nodes = (
(56,514,l),
(35,269,l),
(637,269,l),
(611,0,l),
(907,0,l),
(935,269,l),
(1145,269,l),
(1167,550,l),
(958,550,l),
(1032,1355,l),
(739,1355,l)
);
},
{
closed = 1;
nodes = (
(679,514,l),
(407,514,l),
(713,885,l)
);
}
);
width = 1200;
},
{
layerId = "3D647E92-BB94-42FD-9C12-A678B6C1687F";
shapes = (
{
closed = 1;
nodes = (
(144,426,l),
(132,304,l),
(716,304,l),
(690.009,0,l),
(827.991,0,l),
(856,304,l),
(1052,304,l),
(1066,440,l),
(870,440,l),
(948,1276,l),
(818.009,1275.991,l)
);
},
{
closed = 1;
nodes = (
(732,426,l),
(314,426,l),
(788,1026,l)
);
}
);
width = 1200;
}
);
},
{
glyphname = five.tf;
lastChange = "2020-02-19 16:24:59 +0000";
layers = (
{
layerId = "AD226DB4-BE97-401A-8A1F-FC26A063DFB1";
shapes = (
{
closed = 1;
nodes = (
(770,-15,o),
(920,149,o),
(947,382,cs),
(975,616,o),
(831,729,o),
(578,729,cs),
(526,729,o),
(463,721,o),
(407,711,c),
(486,1149,l),
(972,1149,l),
(979,1215,l),
(429,1215,l),
(330,663,l),
(577,663,ls),
(783,663,o),
(891,566,o),
(875,382,cs),
(858,190,o),
(738,48,o),
(547,48,cs),
(388,48,o),
(266,141,o),
(282,309,c),
(223,309,l),
(199,93,o),
(367,-15,o),
(540,-15,cs)
);
}
);
width = 1200;
},
{
layerId = "2146CDF3-509B-498B-BCC4-8BA41979C9D7";
shapes = (
{
closed = 1;
nodes = (
(836,-35,o),
(1059,188,o),
(1078,461,cs),
(1093,707,o),
(956,854,o),
(723,854,cs),
(671,854,o),
(588,846,o),
(525,836,c),
(565,1044,l),
(1063,1044,l),
(1091,1346,l),
(304,1346,l),
(179,611,l),
(597,611,ls),
(731,611,o),
(786,560,o),
(776,461,cs),
(767,354,o),
(672,272,o),
(574,272,cs),
(473,272,o),
(411,319,o),
(421,434,c),
(111,434,l),
(94,139,o),
(249,-35,o),
(546,-35,cs)
);
}
);
width = 1200;
},
{
layerId = "3D647E92-BB94-42FD-9C12-A678B6C1687F";
shapes = (
{
closed = 1;
nodes = (
(792,-22,o),
(966,162,o),
(990,408,cs),
(1014,646,o),
(872,770,o),
(626,770,cs),
(574,770,o),
(504,762,o),
(446,752,c),
(512,1114,l),
(1002,1114,l),
(1016,1258,l),
(388,1258,l),
(280,646,l),
(584,646,ls),
(766,646,o),
(856,564,o),
(842,408,cs),
(828,244,o),
(716,122,o),
(556,122,cs),
(416,122,o),
(314,200,o),
(328,350,c),
(186,350,l),
(164,108,o),
(328,-22,o),
(542,-22,cs)
);
}
);
width = 1200;
}
);
},
{
glyphname = six.tf;
lastChange = "2020-10-22 18:07:07 +0000";
layers = (
{
layerId = "AD226DB4-BE97-401A-8A1F-FC26A063DFB1";
shapes = (
{
closed = 1;
nodes = (
(762,-20,o),
(912,125,o),
(936,342,cs),
(954,561,o),
(810,717,o),
(623,717,cs),
(461,717,o),
(300,620,o),
(267,334,c),
(234,835,o),
(442,1164,o),
(698,1164,cs),
(840,1164,o),
(900,1075,o),
(913,938,c),
(984,938,l),
(976,1109,o),
(880,1232,o),
(706,1232,cs),
(429,1232,o),
(251,978,o),
(213,584,cs),
(181,248,o),
(305,-20,o),
(553,-20,cs)
);
},
{
closed = 1;
nodes = (
(409,48,o),
(302,157,o),
(318,344,cs),
(330,501,o),
(462,635,o),
(620,635,cs),
(780,635,o),
(882,524,o),
(866,344,cs),
(850,157,o),
(725,48,o),
(561,48,cs)
);
}
);
width = 1200;
},
{
layerId = "2146CDF3-509B-498B-BCC4-8BA41979C9D7";
shapes = (
{
closed = 1;
nodes = (
(853,-33,o),
(1063,145,o),
(1087,408,cs),
(1112,660,o),
(980,842,o),
(741,842,cs),
(592,842,o),
(445,778,o),
(385,558,c),
(404,874,o),
(508,1079,o),
(692,1079,cs),
(768,1079,o),
(809,1029,o),
(808,944,c),
(1123,944,l),
(1146,1208,o),
(971,1377,o),
(706,1377,cs),
(390,1377,o),
(133,1129,o),
(88,650,cs),
(50,248,o),
(259,-33,o),
(580,-33,cs)
);
},
{
closed = 1;
nodes = (
(514,272,o),
(447,335,o),
(457,423,cs),
(469,528,o),
(547,583,o),
(633,583,cs),
(720,583,o),
(791,524,o),
(781,423,cs),
(771,335,o),
(692,272,o),
(607,272,cs)
);
}
);
width = 1200;
},
{
layerId = "3D647E92-BB94-42FD-9C12-A678B6C1687F";
shapes = (
{
closed = 1;
nodes = (
(792,-24,o),
(962,132,o),
(986,364,cs),
(1006,594,o),
(866,758,o),
(662,758,cs),
(504,758,o),
(348,672,o),
(306,408,c),
(290,848,o),
(464,1136,o),
(696,1136,cs),
(816,1136,o),
(870,1060,o),
(878,940,c),
(1030,940,l),
(1032,1142,o),
(910,1280,o),
(706,1280,cs),
(416,1280,o),
(212,1028,o),
(172,606,cs),
(138,248,o),
(290,-24,o),
(562,-24,cs)
);
},
{
closed = 1;
nodes = (
(444,122,o),
(350,216,o),
(364,370,cs),
(376,510,o),
(490,618,o),
(624,618,cs),
(760,618,o),
(852,524,o),
(838,370,cs),
(824,216,o),
(714,122,o),
(576,122,cs)
);
}
);
width = 1200;
}
);
},
{
glyphname = seven.tf;
lastChange = "2020-02-19 16:24:59 +0000";
layers = (
{
layerId = "AD226DB4-BE97-401A-8A1F-FC26A063DFB1";
shapes = (
{
closed = 1;
nodes = (
(317,0,l),
(965,1155,l),
(971,1215,l),
(255,1215,l),
(250,1145,l),
(890,1145,l),
(227,0,l)
);
}
);
width = 1200;
},
{
layerId = "2146CDF3-509B-498B-BCC4-8BA41979C9D7";
shapes = (
{
closed = 1;
nodes = (
(501,0,l),
(1070,1024,l),
(1102,1346,l),
(222,1346,l),
(190,1027,l),
(720,1027,l),
(102,0,l)
);
}
);
width = 1200;
},
{
layerId = "3D647E92-BB94-42FD-9C12-A678B6C1687F";
shapes = (
{
closed = 1;
nodes = (
(378,0,l),
(1000,1112,l),
(1014,1258,l),
(244,1258,l),
(230,1106,l),
(834,1106,l),
(186,0,l)
);
}
);
width = 1200;
}
);
},
{
color = 4;
glyphname = eight.tf;
lastChange = "2020-10-22 18:22:22 +0000";
layers = (
{
layerId = "AD226DB4-BE97-401A-8A1F-FC26A063DFB1";
shapes = (
{
closed = 1;
nodes = (
(820,-15,o),
(987,99,o),
(1007,281,cs),
(1023,433,o),
(952,536,o),
(792,582,cs),
(738,603,l),
(911,629,o),
(1007,764,o),
(1019,906,cs),
(1034,1089,o),
(902,1232,o),
(684,1232,cs),
(446,1232,o),
(287,1088,o),
(275,920,cs),
(263,769,o),
(371,679,o),
(465,634,c),
(309,603,o),
(197,487,o),
(186,321,cs),
(172,126,o),
(331,-15,o),
(560,-15,cs)
);
},
{
closed = 1;
nodes = (
(374,48,o),
(235,145,o),
(253,324,cs),
(265,451,o),
(378,573,o),
(543,602,c),
(756,511,ls),
(872,465,o),
(949,394,o),
(937,286,cs),
(923,144,o),
(775,48,o),
(572,48,cs)
);
},
{
closed = 1;
nodes = (
(522,697,ls),
(408,748,o),
(341,802,o),
(349,918,c),
(368,1050,o),
(499,1164,o),
(672,1164,cs),
(856,1164,o),
(969,1055,o),
(953,907,cs),
(937,755,o),
(812,649,o),
(646,643,c)
);
}
);
width = 1200;
},
{
background = {
shapes = (
{
closed = 1;
nodes = (
(899,-35,o),
(1112,145,o),
(1132,380,cs),
(1148,564,o),
(1043,627,o),
(883,727,c),
(902,721,l),
(1042,754,o),
(1138,855,o),
(1150,978,cs),
(1173,1214,o),
(962,1377,o),
(684,1377,cs),
(367,1377,o),
(175,1246,o),
(150,999,cs),
(132,821,o),
(246,706,o),
(360,640,c),
(197,623,o),
(66,526,o),
(47,367,cs),
(21,139,o),
(213,-35,o),
(554,-35,cs)
);
},
{
closed = 1;
nodes = (
(453,272,o),
(353,323,o),
(358,403,cs),
(364,478,o),
(469,534,o),
(595,530,c),
(756,459,l),
(806,432,o),
(824,400,o),
(825,358,cs),
(824,308,o),
(755,272,o),
(578,272,cs)
);
},
{
closed = 1;
nodes = (
(522,894,ls),
(468,918,o),
(446,947,o),
(454,984,c),
(453,1044,o),
(551,1079,o),
(659,1079,cs),
(771,1079,o),
(844,1035,o),
(841,953,cs),
(838,880,o),
(740,833,o),
(652,834,c)
);
}
);
};
layerId = "2146CDF3-509B-498B-BCC4-8BA41979C9D7";
shapes = (
{
closed = 1;
nodes = (
(899,-35,o),
(1112,145,o),
(1132,380,cs),
(1147,551,o),
(1057,619,o),
(915,707,cs),
(894,720,l),
(1034,747,o),
(1138,853,o),
(1150,978,cs),
(1173,1214,o),
(962,1377,o),
(684,1377,cs),
(367,1377,o),
(175,1246,o),
(150,999,cs),
(132,821,o),
(246,706,o),
(360,640,c),
(197,623,o),
(66,526,o),
(47,367,cs),
(20,139,o),
(213,-35,o),
(554,-35,cs)
);
},
{
closed = 1;
nodes = (
(453,272,o),
(351,323,o),
(358,403,cs),
(365,478,o),
(469,534,o),
(595,530,c),
(756,459,ls),
(808,436,o),
(824,400,o),
(825,358,cs),
(824,308,o),
(755,272,o),
(578,272,cs)
);
},
{
closed = 1;
nodes = (
(551,881,ls),
(468,920,o),
(448,946,o),
(455,991,cs),
(464,1044,o),
(551,1079,o),
(659,1079,cs),
(771,1079,o),
(844,1035,o),
(841,953,cs),
(838,880,o),
(740,833,o),
(652,834,c)
);
}
);
width = 1200;
},
{
layerId = "3D647E92-BB94-42FD-9C12-A678B6C1687F";
shapes = (
{
closed = 1;
nodes = (
(846,-22,o),
(1028,114,o),
(1048,314,cs),
(1064,476,o),
(982,566,o),
(822,630,cs),
(792,642,l),
(954,670,o),
(1050,794,o),
(1062,930,cs),
(1080,1130,o),
(922,1280,o),
(684,1280,cs),
(420,1280,o),
(250,1140,o),
(234,946,cs),
(220,786,o),
(330,688,o),
(430,636,c),
(272,610,o),
(154,500,o),
(140,336,cs),
(122,130,o),
(292,-22,o),
(558,-22,cs)
);
},
{
closed = 1;
nodes = (
(400,122,o),
(274,204,o),
(288,350,cs),
(298,460,o),
(408,560,o),
(560,578,c),
(756,494,ls),
(850,454,o),
(908,396,o),
(900,310,cs),
(890,198,o),
(768,122,o),
(574,122,cs)
);
},
{
closed = 1;
nodes = (
(522,762,ls),
(428,804,o),
(376,850,o),
(384,940,cs),
(396,1048,o),
(516,1136,o),
(668,1136,cs),
(828,1136,o),
(928,1048,o),
(916,922,cs),
(904,796,o),
(788,710,o),
(648,706,c)
);
}
);
width = 1200;
}
);
},
{
glyphname = nine.tf;
lastChange = "2020-02-19 16:24:59 +0000";
layers = (
{
layerId = "AD226DB4-BE97-401A-8A1F-FC26A063DFB1";
shapes = (
{
closed = 1;
nodes = (
(802,-15,o),
(949,227,o),
(987,632,cs),
(1021,1004,o),
(879,1232,o),
(641,1232,cs),
(438,1232,o),
(284,1089,o),
(264,874,cs),
(244,655,o),
(384,498,o),
(575,498,cs),
(756,498,o),
(890,626,o),
(921,837,c),
(923,770,o),
(921,722,o),
(917,657,cs),
(895,284,o),
(757,48,o),
(528,48,cs),
(353,48,o),
(267,172,o),
(283,359,c),
(211,359,l),
(191,148,o),
(311,-15,o),
(522,-15,cs)
);
},
{
closed = 1;
nodes = (
(416,575,o),
(316,689,o),
(334,869,cs),
(352,1053,o),
(473,1162,o),
(633,1162,cs),
(795,1162,o),
(894,1053,o),
(877,869,cs),
(865,709,o),
(738,575,o),
(580,575,cs)
);
}
);
width = 1200;
},
{
layerId = "2146CDF3-509B-498B-BCC4-8BA41979C9D7";
shapes = (
{
closed = 1;
nodes = (
(862,-35,o),
(1067,254,o),
(1112,692,cs),
(1152,1095,o),
(925,1377,o),
(621,1377,cs),
(347,1377,o),
(139,1201,o),
(113,934,cs),
(86,682,o),
(226,504,o),
(457,504,cs),
(605,504,o),
(751,566,o),
(822,791,c),
(824,764,o),
(822,735,o),
(818,709,cs),
(783,448,o),
(711,272,o),
(534,272,cs),
(458,272,o),
(392,317,o),
(395,398,c),
(86,398,l),
(60,135,o),
(259,-35,o),
(516,-35,cs)
);
},
{
closed = 1;
nodes = (
(482,766,o),
(407,820,o),
(419,921,cs),
(431,1014,o),
(512,1077,o),
(594,1077,cs),
(677,1077,o),
(755,1014,o),
(746,921,cs),
(734,821,o),
(647,766,o),
(567,766,cs)
);
}
);
width = 1200;
},
{
layerId = "3D647E92-BB94-42FD-9C12-A678B6C1687F";
shapes = (
{
closed = 1;
nodes = (
(822,-22,o),
(988,236,o),
(1028,652,cs),
(1064,1034,o),
(894,1280,o),
(634,1280,cs),
(408,1280,o),
(236,1126,o),
(214,894,cs),
(192,664,o),
(332,500,o),
(536,500,cs),
(706,500,o),
(844,606,o),
(888,822,c),
(890,768,o),
(888,726,o),
(884,674,cs),
(858,338,o),
(742,122,o),
(530,122,cs),
(388,122,o),
(308,220,o),
(320,372,c),
(170,372,l),
(148,144,o),
(294,-22,o),
(520,-22,cs)
);
},
{
closed = 1;
nodes = (
(438,638,o),
(346,732,o),
(362,886,cs),
(378,1040,o),
(486,1134,o),
(620,1134,cs),
(756,1134,o),
(848,1040,o),
(834,886,cs),
(822,746,o),
(708,638,o),
(576,638,cs)
);
}
);
width = 1200;
}
);
},
{
color = 4;
glyphname = zero.dnom;
lastChange = "2020-10-22 19:42:05 +0000";
layers = (
{
background = {
shapes = (
{
pos = (208,-6);
ref = zero;
scale = (0.625,0.625);
}
);
};
layerId = "AD226DB4-BE97-401A-8A1F-FC26A063DFB1";
shapes = (
{
closed = 1;
nodes = (
(669,-15,o),
(781,117,o),
(803,375,cs),
(825,630,o),
(744,764,o),
(591,764,cs),
(437,764,o),
(327,630,o),
(306,375,cs),
(281,117,o),
(363,-15,o),
(514,-15,cs)
);
},
{
closed = 1;
nodes = (
(385,24,o),
(326,152,o),
(347,375,cs),
(371,596,o),
(450,722,o),
(584,722,cs),
(725,722,o),
(782,596,o),
(759,375,cs),
(736,152,o),
(660,24,o),
(521,24,cs)
);
}
);
width = 994;
},
{
background = {
shapes = (
{
closed = 1;
nodes = (
(825,-35,o),
(978,106,o),
(1008,406,cs),
(1038,710,o),
(908,848,o),
(715,848,cs),
(520,848,o),
(368,710,o),
(339,406,cs),
(310,106,o),
(436,-35,o),
(633,-35,cs)
);
},
{
closed = 1;
nodes = (
(561,157,o),
(515,243,o),
(532,406,c),
(543,572,o),
(610,661,o),
(699,661,cs),
(783,661,o),
(831,572,o),
(816,406,cs),
(802,243,o),
(734,157,o),
(648,157,cs)
);
}
);
};
layerId = "2146CDF3-509B-498B-BCC4-8BA41979C9D7";
shapes = (
{
closed = 1;
nodes = (
(825,-35,o),
(978,106,o),
(1008,406,cs),
(1038,710,o),
(908,848,o),
(715,848,cs),
(520,848,o),
(368,710,o),
(339,406,cs),
(310,106,o),
(436,-35,o),
(633,-35,cs)
);
},
{
closed = 1;
nodes = (
(561,157,o),
(519,243,o),
(532,406,cs),
(545,572,o),
(610,661,o),
(699,661,cs),
(783,661,o),
(831,572,o),
(816,406,cs),
(802,243,o),
(734,157,o),
(648,157,cs)
);
}
);
width = 1224;
},
{
background = {
shapes = (
{
alignment = -1;
pos = (223,-8);
ref = zero;
scale = (0.625,0.625);
}
);
};
layerId = "3D647E92-BB94-42FD-9C12-A678B6C1687F";
shapes = (
{
closed = 1;
nodes = (
(721,-22,o),
(846,113,o),
(871,386,cs),
(896,657,o),
(798,792,o),
(632,792,cs),
(465,792,o),
(341,657,o),
(317,386,cs),
(291,113,o),
(387,-22,o),
(553,-22,cs)
);
},
{
closed = 1;
nodes = (
(443,68,o),
(388,182,o),
(408,386,cs),
(428,588,o),
(503,702,o),
(622,702,cs),
(745,702,o),
(798,588,o),
(778,386,cs),
(758,182,o),
(685,68,o),
(563,68,cs)
);
}
);
width = 1070;
}
);
},
{
color = 4;
glyphname = one.dnom;
lastChange = "2020-10-22 19:42:05 +0000";
layers = (
{
background = {
shapes = (
{
pos = (124,0);
ref = one;
scale = (0.625,0.625);
}
);
};
layerId = "AD226DB4-BE97-401A-8A1F-FC26A063DFB1";
shapes = (
{
closed = 1;
nodes = (
(339,723,o),
(294,703,o),
(251,698,c),
(246,648,l),
(284,653,o),
(332,674,o),
(369,705,c),
(304,0,l),
(341,0,l),
(412,759,l),
(372,759,l)
);
}
);
width = 546;
},
{
background = {
shapes = (
{
closed = 1;
nodes = (
(375,805,o),
(322.5,789.375,o),
(266.25,780,c),
(249.375,586.25,l),
(286.875,583.125,o),
(322.5,586.875,o),
(363.75,602.5,c),
(306.875,0,l),
(496.25,0,l),
(575.625,849.375,l),
(441.25,849.375,l)
);
}
);
};
layerId = "2146CDF3-509B-498B-BCC4-8BA41979C9D7";
shapes = (
{
closed = 1;
nodes = (
(374,805,o),
(322,789,o),
(265,780,c),
(248,586,l),
(286,583,o),
(322,587,o),
(363,603,c),
(306,0,l),
(495,0,l),
(575,849,l),
(440,849,l)
);
}
);
width = 697;
},
{
background = {
shapes = (
{
alignment = -1;
pos = (134,0);
ref = one;
scale = (0.625,0.625);
}
);
};
layerId = "3D647E92-BB94-42FD-9C12-A678B6C1687F";
shapes = (
{
closed = 1;
nodes = (
(351,750,o),
(303,731,o),
(256,725,c),
(247,628,l),
(284,630,o),
(328,645,o),
(367,671,c),
(304,0,l),
(392,0,l),
(466,789,l),
(394,789,l)
);
}
);
width = 595.89565;
}
);
},
{
color = 4;
glyphname = two.dnom;
lastChange = "2020-10-22 19:42:05 +0000";
layers = (
{
background = {
shapes = (
{
pos = (198,0);
ref = two;
scale = (0.625,0.625);
}
);
};
layerId = "AD226DB4-BE97-401A-8A1F-FC26A063DFB1";
shapes = (
{
closed = 1;
nodes = (
(333,184,o),
(383,238,o),
(473,278,cs),
(611,341,ls),
(694,375,o),
(766,441,o),
(780,561,cs),
(789,677,o),
(713,770,o),
(586,770,cs),
(446,770,o),
(365,699,o),
(344,596,c),
(387,596,l),
(403,684,o),
(478,728,o),
(581,728,cs),
(684,728,o),
(745,663,o),
(733,564,cs),
(726,473,o),
(675,416,o),
(595,382,cs),
(462,321,ls),
(371,281,o),
(293,228,o),
(282,92,cs),
(275,0,l),
(718,0,l),
(720,44,l),
(318,44,l),
(323,96,ls)
);
}
);
width = 996;
},
{
background = {
shapes = (
{
pos = (238,0);
ref = two;
scale = (0.625,0.625);
}
);
};
layerId = "2146CDF3-509B-498B-BCC4-8BA41979C9D7";
shapes = (
{
closed = 1;
nodes = (
(506,218,o),
(515,231,o),
(549,244,cs),
(733,316,ls),
(892,378,o),
(958,465,o),
(967,593,cs),
(985,759,o),
(860,861,o),
(700,861,cs),
(535,861,o),
(381,773,o),
(363,571,c),
(571,571,l),
(587,643,o),
(633,683,o),
(687,683,cs),
(748,683,o),
(773,643,o),
(770,601,cs),
(766,555,o),
(741,517,o),
(680,494,cs),
(510,429,ls),
(378,379,o),
(327,302,o),
(314,166,cs),
(298,0,l),
(910,0,l),
(928,188,l),
(502,188,l),
(503,195,ls)
);
}
);
width = 1141;
},
{
background = {
shapes = (
{
alignment = -1;
pos = (211,0);
ref = two;
scale = (0.625,0.625);
}
);
};
layerId = "3D647E92-BB94-42FD-9C12-A678B6C1687F";
shapes = (
{
closed = 1;
nodes = (
(389,196,o),
(428,236,o),
(503,269,cs),
(651,333,ls),
(759,378,o),
(829,449,o),
(841,571,cs),
(854,704,o),
(761,800,o),
(624,800,cs),
(475,800,o),
(370,724,o),
(350,588,c),
(448,588,l),
(464,670,o),
(529,713,o),
(616,713,cs),
(705,713,o),
(754,656,o),
(745,576,cs),
(739,500,o),
(696,451,o),
(623,420,cs),
(478,358,ls),
(374,314,o),
(305,253,o),
(293,116,cs),
(283,0,l),
(781,0,l),
(789,91,l),
(379,91,l),
(383,129,ls)
);
}
);
width = 1043.91304;
}
);
},
{
color = 4;
glyphname = three.dnom;
lastChange = "2020-10-22 19:42:05 +0000";
layers = (
{
background = {
shapes = (
{
pos = (198,-6);
ref = three;
scale = (0.625,0.625);
}
);
};
layerId = "AD226DB4-BE97-401A-8A1F-FC26A063DFB1";
shapes = (
{
closed = 1;
nodes = (
(658,-15,o),
(745,70,o),
(759,198,cs),
(768,303,o),
(710,367,o),
(623,390,c),
(708,423,o),
(758,479,o),
(768,562,cs),
(778,675,o),
(693,764,o),
(573,764,cs),
(472,764,o),
(380,719,o),
(348,595,c),
(390,595,l),
(420,694,o),
(489,722,o),
(565,722,cs),
(671,722,o),
(731,651,o),
(721,560,cs),
(711,463,o),
(621,404,o),
(490,404,cs),
(466,404,l),
(460,366,l),
(523,366,ls),
(674,366,o),
(725,290,o),
(716,199,cs),
(706,102,o),
(633,24,o),
(518,24,cs),
(403,24,o),
(312,88,o),
(326,220,c),
(288,220,l),
(271,65,o),
(380,-15,o),
(511,-15,cs)
);
}
);
width = 1003;
},
{
background = {
shapes = (
{
pos = (238,-13);
ref = three;
scale = (0.625,0.625);
}
);
};
layerId = "2146CDF3-509B-498B-BCC4-8BA41979C9D7";
shapes = (
{
closed = 1;
nodes = (
(797,-35,o),
(946,75,o),
(960,228,cs),
(968,321,o),
(918,389,o),
(835,428,c),
(916,457,o),
(962,525,o),
(968,608,cs),
(982,755,o),
(864,848,o),
(683,848,cs),
(504,848,o),
(370,761,o),
(339,571,c),
(536,571,l),
(554,634,o),
(611,661,o),
(675,661,cs),
(748,661,o),
(771,627,o),
(769,581,cs),
(764,526,o),
(727,491,o),
(670,491,cs),
(551,491,l),
(537,330,l),
(654,330,ls),
(726,330,o),
(765,307,o),
(760,249,cs),
(754,193,o),
(701,157,o),
(623,157,cs),
(542,157,o),
(504,201,o),
(501,258,c),
(299,258,l),
(283,66,o),
(441,-35,o),
(608,-35,cs)
);
}
);
width = 1187;
},
{
background = {
shapes = (
{
alignment = -1;
pos = (211,-8);
ref = three;
scale = (0.625,0.625);
}
);
};
layerId = "3D647E92-BB94-42FD-9C12-A678B6C1687F";
shapes = (
{
closed = 1;
nodes = (
(704,-22,o),
(811,72,o),
(825,208,cs),
(834,310,o),
(779,375,o),
(693,403,c),
(776,435,o),
(825,495,o),
(834,577,cs),
(845,702,o),
(749,792,o),
(609,792,cs),
(483,792,o),
(376,733,o),
(345,587,c),
(438,587,l),
(464,675,o),
(529,702,o),
(601,702,cs),
(696,702,o),
(744,643,o),
(736,567,cs),
(729,485,o),
(656,433,o),
(549,433,cs),
(494,433,l),
(485,355,l),
(566,355,ls),
(691,355,o),
(738,296,o),
(730,216,cs),
(721,132,o),
(655,68,o),
(553,68,cs),
(449,68,o),
(375,126,o),
(384,233,c),
(291,233,l),
(275,66,o),
(400,-22,o),
(543,-22,cs)
);
}
);
width = 1063.8;
}
);
},
{
color = 4;
glyphname = four.dnom;
lastChange = "2020-10-22 19:42:05 +0000";
layers = (
{
background = {
shapes = (
{
pos = (188,0);
ref = four;
scale = (0.625,0.625);
}
);
};
layerId = "AD226DB4-BE97-401A-8A1F-FC26A063DFB1";
shapes = (
{
closed = 1;
nodes = (
(620,0,l),
(637,201,l),
(755,201,l),
(761,241,l),
(643,241,l),
(693,773,l),
(662,773,l),
(243,239,l),
(239,201,l),
(598,201,l),
(582,0,l)
);
},
{
closed = 1;
nodes = (
(642,684,l),
(600,239,l),
(294,239,l)
);
}
);
width = 937;
},
{
background = {
shapes = (
{
pos = (233,0);
ref = four;
scale = (0.625,0.625);
}
);
};
layerId = "2146CDF3-509B-498B-BCC4-8BA41979C9D7";
shapes = (
{
closed = 1;
nodes = (
(812,0,l),
(830,168,l),
(961,168,l),
(975,344,l),
(844,344,l),
(890,847,l),
(707,847,l),
(280,321,l),
(267,168,l),
(643,168,l),
(627,0,l)
);
},
{
closed = 1;
nodes = (
(691,553,l),
(670,321,l),
(500,321,l)
);
}
);
width = 1147;
},
{
background = {
shapes = (
{
alignment = -1;
pos = (203,0);
ref = four;
scale = (0.625,0.625);
}
);
};
layerId = "3D647E92-BB94-42FD-9C12-A678B6C1687F";
shapes = (
{
closed = 1;
nodes = (
(683,0,l),
(701,190,l),
(823,190,l),
(832,275,l),
(710,275,l),
(758,798,l),
(677,798,l),
(256,266,l),
(248,190,l),
(613,190,l),
(597,0,l)
);
},
{
closed = 1;
nodes = (
(658,641,l),
(623,266,l),
(362,266,l)
);
}
);
width = 1006.3913;
}
);
},
{
color = 4;
glyphname = five.dnom;
lastChange = "2020-10-22 19:42:05 +0000";
layers = (
{
background = {
shapes = (
{
pos = (202,-6);
ref = five;
scale = (0.625,0.625);
}
);
};
layerId = "AD226DB4-BE97-401A-8A1F-FC26A063DFB1";
shapes = (
{
closed = 1;
nodes = (
(645,-15,o),
(739,87,o),
(755,233,cs),
(768,379,o),
(683,450,o),
(525,450,cs),
(492,450,o),
(453,445,o),
(418,438,c),
(467,712,l),
(771,712,l),
(775,753,l),
(432,753,l),
(370,408,l),
(525,408,ls),
(653,408,o),
(720,348,o),
(710,233,cs),
(699,113,o),
(625,24,o),
(505,24,cs),
(406,24,o),
(330,82,o),
(340,187,c),
(303,187,l),
(288,52,o),
(393,-15,o),
(501,-15,cs)
);
}
);
width = 981;
},
{
background = {
shapes = (
{
pos = (230,-13);
ref = five;
scale = (0.625,0.625);
}
);
};
layerId = "2146CDF3-509B-498B-BCC4-8BA41979C9D7";
shapes = (
{
closed = 1;
nodes = (
(760,-35,o),
(898,105,o),
(910,275,c),
(927,429,o),
(834,521,o),
(688,521,cs),
(656,521,o),
(604,516,o),
(565,510,c),
(590,640,l),
(902,640,l),
(918,828,l),
(427,828,l),
(348,369,l),
(610,369,ls),
(693,369,o),
(728,337,o),
(722,275,cs),
(715,208,o),
(657,157,o),
(595,157,cs),
(533,157,o),
(493,186,o),
(500,258,c),
(307,258,l),
(295,74,o),
(392,-35,o),
(578,-35,cs)
);
}
);
width = 1086;
},
{
background = {
shapes = (
{
alignment = -1;
pos = (211,-8);
ref = five;
scale = (0.625,0.625);
}
);
};
layerId = "3D647E92-BB94-42FD-9C12-A678B6C1687F";
shapes = (
{
closed = 1;
nodes = (
(683,-22,o),
(791,93,o),
(806,247,cs),
(820,396,o),
(733,473,o),
(579,473,cs),
(546,473,o),
(503,468,o),
(466,462,c),
(508,688,l),
(814,688,l),
(823,778,l),
(430,778,l),
(363,396,l),
(553,396,ls),
(666,396,o),
(723,345,o),
(714,247,cs),
(704,145,o),
(635,68,o),
(535,68,cs),
(448,68,o),
(384,117,o),
(393,211,c),
(304,211,l),
(290,60,o),
(393,-22,o),
(526,-22,cs)
);
}
);
width = 1015.69565;
}
);
},
{
color = 4;
glyphname = six.dnom;
lastChange = "2020-10-22 19:42:05 +0000";
layers = (
{
background = {
shapes = (
{
pos = (202,-8);
ref = six;
scale = (0.625,0.625);
}
);
};
layerId = "AD226DB4-BE97-401A-8A1F-FC26A063DFB1";
shapes = (
{
closed = 1;
nodes = (
(640,-21,o),
(734,70,o),
(749,206,cs),
(760,343,o),
(670,440,o),
(554,440,cs),
(452,440,o),
(352,380,o),
(331,201,c),
(310,514,o),
(441,720,o),
(600,720,cs),
(689,720,o),
(727,664,o),
(735,578,c),
(780,578,l),
(774,685,o),
(714,762,o),
(605,762,cs),
(432,762,o),
(321,603,o),
(298,357,cs),
(280,147,o),
(355,-21,o),
(510,-21,cs)
);
},
{
closed = 1;
nodes = (
(420,22,o),
(353,90,o),
(364,207,cs),
(372,305,o),
(453,389,o),
(552,389,cs),
(652,389,o),
(716,320,o),
(705,207,cs),
(695,90,o),
(617,22,o),
(515,22,cs)
);
}
);
width = 967;
},
{
background = {
shapes = (
{
pos = (244,-12);
ref = six;
scale = (0.625,0.625);
}
);
};
layerId = "2146CDF3-509B-498B-BCC4-8BA41979C9D7";
shapes = (
{
closed = 1;
nodes = (
(806,-33,o),
(937,79,o),
(952,243,cs),
(967,401,o),
(885,514,o),
(736,514,cs),
(642,514,o),
(550,474,o),
(513,337,c),
(525,534,o),
(589,662,o),
(704,662,cs),
(752,662,o),
(777,631,o),
(777,578,c),
(974,578,l),
(989,743,o),
(879,849,o),
(713,849,cs),
(516,849,o),
(355,694,o),
(327,394,cs),
(302,143,o),
(434,-33,o),
(634,-33,cs)
);
},
{
closed = 1;
nodes = (
(594,158,o),
(551,197,o),
(557,252,cs),
(562,318,o),
(614,352,o),
(667,352,cs),
(722,352,o),
(766,316,o),
(760,252,cs),
(754,197,o),
(704,158,o),
(651,158,cs)
);
}
);
width = 1164;
},
{
background = {
shapes = (
{
alignment = -1;
pos = (216,-9);
ref = six;
scale = (0.625,0.625);
}
);
};
layerId = "3D647E92-BB94-42FD-9C12-A678B6C1687F";
shapes = (
{
closed = 1;
nodes = (
(695,-24,o),
(801,74,o),
(816,219,cs),
(829,362,o),
(741,465,o),
(614,465,cs),
(515,465,o),
(418,411,o),
(391,246,c),
(381,521,o),
(490,701,o),
(635,701,cs),
(710,701,o),
(744,654,o),
(749,579,c),
(844,579,l),
(845,705,o),
(769,791,o),
(641,791,cs),
(460,791,o),
(333,634,o),
(308,370,cs),
(288,146,o),
(381,-24,o),
(551,-24,cs)
);
},
{
closed = 1;
nodes = (
(478,67,o),
(419,126,o),
(428,222,cs),
(435,310,o),
(506,377,o),
(590,377,cs),
(675,377,o),
(733,319,o),
(724,222,cs),
(715,126,o),
(646,67,o),
(560,67,cs)
);
}
);
width = 1032.09565;
}
);
},
{
color = 4;
glyphname = seven.dnom;
lastChange = "2020-10-22 19:42:05 +0000";
layers = (
{
background = {
shapes = (
{
pos = (188,0);
ref = seven;
scale = (0.625,0.625);
}
);
};
layerId = "AD226DB4-BE97-401A-8A1F-FC26A063DFB1";
shapes = (
{
closed = 1;
nodes = (
(325,0,l),
(730,722,l),
(733,759,l),
(286,759,l),
(282,716,l),
(683,716,l),
(268,0,l)
);
}
);
width = 792;
},
{
background = {
shapes = (
{
pos = (207,0);
ref = seven;
scale = (0.625,0.625);
}
);
};
layerId = "2146CDF3-509B-498B-BCC4-8BA41979C9D7";
shapes = (
{
closed = 1;
nodes = (
(487,0,l),
(843,640,l),
(863,841,l),
(313,841,l),
(293,642,l),
(624,642,l),
(238,0,l)
);
}
);
width = 956;
},
{
background = {
shapes = (
{
alignment = -1;
pos = (194,0);
ref = seven;
scale = (0.625,0.625);
}
);
};
layerId = "3D647E92-BB94-42FD-9C12-A678B6C1687F";
shapes = (
{
closed = 1;
nodes = (
(378,0,l),
(767,695,l),
(776,786,l),
(294,786,l),
(286,691,l),
(663,691,l),
(258,0,l)
);
}
);
width = 846.1913;
}
);
},
{
color = 4;
glyphname = eight.dnom;
lastChange = "2020-10-22 19:42:05 +0000";
layers = (
{
background = {
shapes = (
{
pos = (209,-6);
ref = eight;
scale = (0.625,0.625);
}
);
};
layerId = "AD226DB4-BE97-401A-8A1F-FC26A063DFB1";
shapes = (
{
closed = 1;
nodes = (
(692,-15,o),
(797,56,o),
(809,170,cs),
(819,265,o),
(769,317,o),
(675,358,cs),
(641,371,l),
(749,387,o),
(809,472,o),
(817,560,cs),
(829,675,o),
(744,764,o),
(607,764,cs),
(459,764,o),
(361,674,o),
(352,569,c),
(341,475,o),
(412,418,o),
(471,390,c),
(373,371,o),
(304,298,o),
(296,195,cs),
(284,73,o),
(387,-15,o),
(530,-15,cs)
);
},
{
closed = 1;
nodes = (
(414,24,o),
(327,85,o),
(339,197,cs),
(346,276,o),
(416,352,o),
(519,370,c),
(652,313,ls),
(725,285,o),
(774,240,o),
(766,173,cs),
(758,84,o),
(664,24,o),
(537,24,cs)
);
},
{
closed = 1;
nodes = (
(506,430,ls),
(436,462,o),
(394,495,o),
(399,568,c),
(410,650,o),
(492,722,o),
(601,722,cs),
(715,722,o),
(786,653,o),
(776,561,cs),
(766,466,o),
(687,400,o),
(584,396,c)
);
}
);
width = 1043;
},
{
background = {
shapes = (
{
pos = (247,-13);
ref = eight;
scale = (0.625,0.625);
}
);
};
layerId = "2146CDF3-509B-498B-BCC4-8BA41979C9D7";
shapes = (
{
closed = 1;
nodes = (
(846.375,-34.875,o),
(979.5,77.625,o),
(992,224.5,cs),
(1001,332,o),
(952,384,o),
(858,431,cs),
(846,437,l),
(933,457,o),
(995.75,521.375,o),
(1003.25,598.25,cs),
(1015.75,745.75,o),
(885.75,847.625,o),
(712,847.625,cs),
(514.5,847.625,o),
(395,766,o),
(378.875,611.375,cs),
(367,500,o),
(438.875,428.25,o),
(509.5,387,c),
(408.25,376.375,o),
(325.75,315.75,o),
(314.5,216.375,cs),
(302,73.875,o),
(417.625,-34.875,o),
(630.75,-34.875,cs)
);
},
{
closed = 1;
nodes = (
(567.625,157,o),
(505.75,188.875,o),
(508.875,238.875,cs),
(512,285.75,o),
(578.25,320.75,o),
(657,318.25,c),
(757,273.875,ls),
(789,260,o),
(800.125,237,o),
(800.75,210.75,cs),
(797,179.5,o),
(756.375,157,o),
(646.375,157,cs)
);
},
{
closed = 1;
nodes = (
(610.75,545.75,ls),
(577,561,o),
(568,578,o),
(568.875,602,cs),
(570,640,o),
(629.5,661.375,o),
(696.375,661.375,cs),
(766.375,661.375,o),
(812.625,633.875,o),
(810.75,582.625,c),
(804.5,537,o),
(747,507.625,o),
(692.625,508.25,c)
);
}
);
width = 1234;
},
{
background = {
shapes = (
{
alignment = -1;
pos = (222,-8);
ref = eight;
scale = (0.625,0.625);
}
);
};
layerId = "3D647E92-BB94-42FD-9C12-A678B6C1687F";
shapes = (
{
closed = 1;
nodes = (
(744,-22,o),
(857,63,o),
(870,188,cs),
(880,290,o),
(827,342,o),
(729,386,cs),
(710,393,l),
(811,411,o),
(871,488,o),
(879,573,cs),
(891,698,o),
(791,792,o),
(642,792,cs),
(477,792,o),
(372,705,o),
(361,583,cs),
(351,483,o),
(421,422,o),
(484,390,c),
(385,373,o),
(311,305,o),
(302,202,cs),
(290,73,o),
(397,-22,o),
(564,-22,cs)
);
},
{
closed = 1;
nodes = (
(465,68,o),
(386,120,o),
(395,211,cs),
(401,280,o),
(470,342,o),
(565,353,c),
(687,301,ls),
(746,276,o),
(782,240,o),
(777,186,cs),
(771,116,o),
(695,68,o),
(574,68,cs)
);
},
{
closed = 1;
nodes = (
(541,468,ls),
(482,495,o),
(450,523,o),
(455,580,cs),
(462,647,o),
(537,702,o),
(632,702,cs),
(732,702,o),
(795,647,o),
(787,568,cs),
(779,490,o),
(707,436,o),
(620,433,c)
);
}
);
width = 1106.11304;
}
);
},
